<svg width="12" height="7" viewBox="0 0 12 7" fill="none" xmlns="http://www.w3.org/2000/svg">
<path d="M1.26381 1.33928C1.26381 1.41518 1.30176 1.50056 1.35868 1.55748L5.77944 5.97824C5.83636 6.03516 5.92174 6.0731 5.99763 6.0731C6.07352 6.0731 6.1589 6.03516 6.21582 5.97824L10.6366 1.55748C10.6935 1.50056 10.7314 1.41518 10.7314 1.33929C10.7314 1.26339 10.6935 1.17801 10.6366 1.12109L10.1622 0.646763C10.1053 0.589843 10.02 0.551897 9.94406 0.551897C9.86816 0.551897 9.78279 0.589843 9.72587 0.646763L5.99763 4.375L2.26939 0.646762C2.21247 0.589843 2.12709 0.551897 2.0512 0.551897C1.96582 0.551897 1.88993 0.589843 1.83301 0.646762L1.35868 1.12109C1.30176 1.17801 1.26381 1.26339 1.26381 1.33928Z" fill="black"/>
<path d="M1.35868 1.55748L1.00512 1.91103L1.00512 1.91103L1.35868 1.55748ZM5.77944 5.97824L6.13299 5.62468L5.77944 5.97824ZM6.21582 5.97824L6.56937 6.33179L6.21582 5.97824ZM10.6366 1.55748L10.9901 1.91103L10.9901 1.91103L10.6366 1.55748ZM10.6366 1.12109L10.283 1.47465L10.283 1.47465L10.6366 1.12109ZM10.1622 0.646764L9.8087 1.00032L9.8087 1.00032L10.1622 0.646764ZM9.72587 0.646764L9.37231 0.29321L9.72587 0.646764ZM5.99763 4.375L5.64407 4.72855L5.99763 5.08211L6.35118 4.72855L5.99763 4.375ZM2.26939 0.646763L2.62295 0.293209L2.62294 0.293208L2.26939 0.646763ZM1.83301 0.646763L2.18656 1.00032L2.18656 1.00031L1.83301 0.646763ZM1.35868 1.12109L1.00512 0.767539L1.00512 0.767541L1.35868 1.12109ZM0.763811 1.33928C0.763811 1.56167 0.864735 1.77064 1.00512 1.91103L1.71223 1.20393C1.73112 1.22281 1.74151 1.2403 1.74798 1.25508C1.75411 1.26911 1.76381 1.29697 1.76381 1.33928L0.763811 1.33928ZM1.00512 1.91103L5.42588 6.33179L6.13299 5.62468L1.71223 1.20392L1.00512 1.91103ZM5.42588 6.33179C5.56627 6.47218 5.77524 6.5731 5.99763 6.5731L5.99763 5.5731C6.03994 5.5731 6.0678 5.5828 6.08183 5.58894C6.09661 5.5954 6.1141 5.60579 6.13299 5.62468L5.42588 6.33179ZM5.99763 6.5731C6.22001 6.5731 6.42898 6.47218 6.56937 6.33179L5.86227 5.62468C5.88116 5.60579 5.89865 5.5954 5.91343 5.58894C5.92746 5.5828 5.95532 5.5731 5.99763 5.5731L5.99763 6.5731ZM6.56937 6.33179L10.9901 1.91103L10.283 1.20392L5.86227 5.62468L6.56937 6.33179ZM10.9901 1.91103C11.1305 1.77064 11.2314 1.56167 11.2314 1.33929L10.2314 1.33929C10.2314 1.29697 10.2411 1.26912 10.2473 1.25509C10.2537 1.2403 10.2641 1.22281 10.283 1.20392L10.9901 1.91103ZM11.2314 1.33929C11.2314 1.1169 11.1305 0.907932 10.9901 0.76754L10.283 1.47465C10.2641 1.45576 10.2537 1.43827 10.2473 1.42348C10.2411 1.40946 10.2314 1.3816 10.2314 1.33929L11.2314 1.33929ZM10.9901 0.767541L10.5158 0.29321L9.8087 1.00032L10.283 1.47465L10.9901 0.767541ZM10.5158 0.29321C10.3754 0.152817 10.1664 0.0518968 9.94406 0.0518968L9.94406 1.0519C9.90175 1.0519 9.87389 1.0422 9.85986 1.03606C9.84508 1.0296 9.82759 1.01921 9.8087 1.00032L10.5158 0.29321ZM9.94406 0.0518968C9.72167 0.0518968 9.5127 0.152817 9.37231 0.29321L10.0794 1.00032C10.0605 1.01921 10.043 1.0296 10.0283 1.03606C10.0142 1.0422 9.98637 1.0519 9.94406 1.0519L9.94406 0.0518968ZM9.37231 0.29321L5.64407 4.02145L6.35118 4.72855L10.0794 1.00032L9.37231 0.29321ZM6.35118 4.02145L2.62295 0.293209L1.91584 1.00032L5.64407 4.72855L6.35118 4.02145ZM2.62294 0.293208C2.48255 0.152817 2.27358 0.0518961 2.0512 0.0518961L2.0512 1.0519C2.00889 1.0519 1.98103 1.0422 1.967 1.03606C1.95222 1.0296 1.93473 1.01921 1.91584 1.00032L2.62294 0.293208ZM2.0512 0.0518961C1.81136 0.0518961 1.61346 0.159199 1.47945 0.293211L2.18656 1.00031C2.16639 1.02049 2.12029 1.0519 2.0512 1.0519L2.0512 0.0518961ZM1.47946 0.293209L1.00512 0.767539L1.71223 1.47465L2.18656 1.00032L1.47946 0.293209ZM1.00512 0.767541C0.864735 0.907929 0.763811 1.1169 0.763811 1.33928L1.76381 1.33928C1.76381 1.3816 1.75411 1.40946 1.74798 1.42348C1.74151 1.43827 1.73112 1.45576 1.71223 1.47464L1.00512 0.767541Z" fill="black"/>
</svg>
