<svg width="11" height="14" viewBox="0 0 11 14" fill="none" xmlns="http://www.w3.org/2000/svg">
<path d="M5.5 8C5.00555 8 4.5222 7.85338 4.11108 7.57868C3.69995 7.30397 3.37952 6.91353 3.1903 6.45671C3.00108 5.99989 2.95157 5.49723 3.04804 5.01228C3.1445 4.52732 3.3826 4.08187 3.73223 3.73223C4.08187 3.3826 4.52732 3.1445 5.01228 3.04804C5.49723 2.95157 5.9999 3.00108 6.45671 3.1903C6.91353 3.37952 7.30397 3.69995 7.57868 4.11108C7.85338 4.5222 8 5.00555 8 5.5C7.99921 6.1628 7.73556 6.79822 7.26689 7.26689C6.79822 7.73556 6.1628 7.99921 5.5 8ZM5.5 4C5.20333 4 4.91332 4.08797 4.66665 4.2528C4.41997 4.41762 4.22771 4.65189 4.11418 4.92598C4.00065 5.20007 3.97095 5.50167 4.02882 5.79264C4.0867 6.08361 4.22956 6.35088 4.43934 6.56066C4.64912 6.77044 4.91639 6.9133 5.20737 6.97118C5.49834 7.02906 5.79994 6.99935 6.07403 6.88582C6.34812 6.77229 6.58238 6.58003 6.74721 6.33336C6.91203 6.08668 7 5.79667 7 5.5C6.9996 5.1023 6.84144 4.721 6.56022 4.43978C6.279 4.15856 5.8977 4.0004 5.5 4Z" fill="black"/>
<path d="M5.50001 14L1.28201 9.0255C1.2234 8.95081 1.16539 8.87564 1.10801 8.8C0.387496 7.85089 -0.00174059 6.69161 5.85144e-06 5.5C5.85144e-06 4.04131 0.579469 2.64236 1.61092 1.61091C2.64237 0.579463 4.04132 0 5.50001 0C6.9587 0 8.35764 0.579463 9.38909 1.61091C10.4205 2.64236 11 4.04131 11 5.5C11.0018 6.69107 10.6127 7.84982 9.89251 8.7985L9.89201 8.8C9.89201 8.8 9.74201 8.997 9.71951 9.0235L5.50001 14ZM1.90601 8.1975C1.90701 8.1975 2.02301 8.3515 2.04951 8.3845L5.50001 12.454L8.95501 8.379C8.97701 8.3515 9.09401 8.1965 9.09451 8.196C9.68308 7.42056 10.0012 6.47352 10 5.5C10 4.30653 9.5259 3.16193 8.68199 2.31802C7.83807 1.47411 6.69348 1 5.50001 1C4.30653 1 3.16194 1.47411 2.31803 2.31802C1.47411 3.16193 1.00001 4.30653 1.00001 5.5C0.998957 6.47412 1.31739 7.42171 1.90651 8.1975H1.90601Z" fill="black"/>
</svg>
