<svg width="16" height="16" viewBox="0 0 16 16" fill="none" xmlns="http://www.w3.org/2000/svg">
<path d="M13.0424 2.8015L13.0211 2.78817L10.3151 1.45483L7.39441 5.34883L8.73841 7.14083C8.69779 7.81499 8.41216 8.45106 7.93526 8.9293C7.45837 9.40754 6.82312 9.69498 6.14908 9.7375L6.14108 9.73817L4.34908 8.39417L0.455078 11.3148L1.78841 14.0208L1.80174 14.0422C1.94241 14.2662 2.18774 14.4128 2.46774 14.4128H3.16841C8.82641 14.4128 13.4131 9.82617 13.4131 4.16817V3.47017V3.4675C13.4131 3.1875 13.2664 2.94217 13.0457 2.8035L13.0424 2.8015ZM12.4131 4.16817C12.4131 9.2655 8.26574 13.4128 3.16841 13.4128H2.60308L1.71841 11.6168L4.34908 9.64417L5.81374 10.7428H5.98041C6.97784 10.7416 7.93407 10.3449 8.63942 9.63965C9.34477 8.93442 9.74166 7.97826 9.74308 6.98083V6.81417L8.64441 5.3495L10.6171 2.71883L12.4131 3.6035V4.16817Z" fill="black"/>
</svg>
