<svg width="213" height="184" viewBox="0 0 213 184" fill="none" xmlns="http://www.w3.org/2000/svg">
<path d="M172.289 14.7686H52.8486V145.185H172.289V14.7686Z" fill="#FFCE76"/>
<path d="M172.309 0.967773H116.967V8.90996H172.309V0.967773Z" fill="#BCD7FD"/>
<path d="M95.7811 33.1289H72.9717V53.9436H95.7811V33.1289Z" fill="white"/>
<path d="M154.196 26.6924H105.252V71.3543H154.196V26.6924Z" fill="white"/>
<path d="M140.839 31.2305H109.389V35.5213H140.839V31.2305Z" fill="#BCD7FD"/>
<path d="M138.713 40.2041H109.737C109.428 40.2041 109.428 40.6992 109.737 40.6992H138.713C139.022 40.6992 139.022 40.2041 138.713 40.2041Z" fill="#BCD7FD"/>
<path d="M138.713 45.8154H109.737C109.428 45.8154 109.428 46.3105 109.737 46.3105H138.713C139.022 46.3105 139.022 45.8154 138.713 45.8154Z" fill="#BCD7FD"/>
<path d="M138.713 51.4268H109.737C109.428 51.4268 109.428 51.9219 109.737 51.9219H138.713C139.022 51.9425 139.022 51.4268 138.713 51.4268Z" fill="#BCD7FD"/>
<path d="M151.722 32.0554C151.818 33.417 150.697 34.5103 149.421 34.5103C148.146 34.5103 147.121 33.417 147.121 32.0554C147.121 30.4876 148.146 29.6006 149.421 29.6006C150.678 29.6006 151.606 30.3639 151.722 32.0554Z" fill="#FFA79B"/>
<path d="M171.748 26.5273H169.622V67.0222H171.748V26.5273Z" fill="#BCD7FD"/>
<path d="M134.692 4.26855H119.248C118.938 4.26855 118.938 4.76365 119.248 4.76365H134.692C135.002 4.78428 135.002 4.26855 134.692 4.26855Z" fill="white"/>
<path d="M172.289 18.0693V18.5644H60.9097C60.6004 18.5644 60.6004 18.0693 60.9097 18.0693H172.289Z" fill="white"/>
<path d="M89.8273 30.3643H73.2808C72.9715 30.3643 72.9715 30.8594 73.2808 30.8594H89.8273C90.1366 30.8594 90.1366 30.3643 89.8273 30.3643Z" fill="white"/>
<path d="M74.1695 81.71H3.57617V138.11H74.1695V81.71Z" fill="#BCD7FD"/>
<path d="M38.9113 89.4043H11.25V112.633H38.9113V89.4043Z" fill="#D24A43"/>
<path d="M9.58766 83.8555H6.28223V86.8879H9.58766V83.8555Z" fill="#FFA79B"/>
<path d="M64.06 111.622C64.002 111.622 63.944 111.602 63.886 111.56L44.1887 91.0345C44.092 90.9314 44.092 90.7869 44.1887 90.6838C44.2853 90.5807 44.4207 90.5807 44.5173 90.6838L64.2146 111.21C64.3113 111.313 64.3113 111.457 64.2146 111.56C64.176 111.602 64.118 111.622 64.06 111.622Z" fill="white"/>
<path d="M44.5941 111.869C44.5361 111.869 44.4781 111.849 44.4201 111.807C44.3235 111.704 44.3235 111.56 44.4201 111.457L63.6535 90.4358C63.7502 90.3326 63.8855 90.3326 63.9822 90.4358C64.0788 90.5389 64.0788 90.6833 63.9822 90.7865L44.7488 111.807C44.7101 111.849 44.6521 111.869 44.5941 111.869Z" fill="white"/>
<path d="M8.10001 141.369H0.677272C0.541962 141.369 0.445312 141.266 0.445312 141.121V132.87C0.445312 132.725 0.541962 132.622 0.677272 132.622C0.812583 132.622 0.909232 132.725 0.909232 132.87V140.853H8.08068C8.21599 140.853 8.31264 140.956 8.31264 141.101C8.31264 141.245 8.21599 141.369 8.10001 141.369Z" fill="#003865"/>
<path d="M77.1847 141.183H69.4527C69.3173 141.183 69.2207 141.08 69.2207 140.936C69.2207 140.791 69.3173 140.688 69.4527 140.688H76.9334V133.035C76.9334 132.89 77.03 132.787 77.1654 132.787C77.3007 132.787 77.3973 132.89 77.3973 133.035V140.936C77.4166 141.08 77.32 141.183 77.1847 141.183Z" fill="#003865"/>
<path d="M0.521999 86.3102C0.386689 86.3102 0.290039 86.2071 0.290039 86.0627V78.1411C0.290039 77.9967 0.386689 77.8936 0.521999 77.8936H8.25402C8.38933 77.8936 8.48598 77.9967 8.48598 78.1411C8.48598 78.2855 8.38933 78.3887 8.25402 78.3887H0.75396V86.042C0.75396 86.1864 0.657309 86.3102 0.521999 86.3102Z" fill="#003865"/>
<path d="M35.7221 116.676H11.5982C11.2889 116.676 11.2889 117.171 11.5982 117.171H35.7221C36.0313 117.171 36.0313 116.676 35.7221 116.676Z" fill="#003865"/>
<path d="M35.7221 120.08H11.5982C11.2889 120.08 11.2889 120.575 11.5982 120.575H35.7221C36.0313 120.575 36.0313 120.08 35.7221 120.08Z" fill="#003865"/>
<path d="M30.445 123.483H11.5402C11.3082 123.483 11.3082 123.979 11.5402 123.979H30.445C30.6963 123.979 30.6963 123.483 30.445 123.483Z" fill="#003865"/>
<path d="M31.0053 94.624C28.705 98.9149 26.4047 103.226 24.1044 107.517C22.1714 105 20.2384 102.484 18.3054 99.9876C18.1121 99.74 17.7835 100.091 17.9768 100.338C19.9871 102.938 21.9781 105.537 23.9884 108.136C24.0851 108.26 24.2977 108.219 24.3557 108.095C26.714 103.701 29.0723 99.2862 31.4305 94.8922C31.5658 94.6034 31.1599 94.3352 31.0053 94.624Z" fill="white"/>
<path d="M66.9594 128.909H56.3086V133.84H66.9594V128.909Z" fill="#FECA55"/>
<path d="M81.244 54.8294C81.2246 54.8294 81.186 54.8294 81.1666 54.8088C81.0507 54.7675 80.9733 54.6231 81.012 54.4993C81.0507 54.3549 81.0893 54.2312 82.5777 53.9836C82.7131 53.963 82.829 54.0455 82.8484 54.1899C82.8677 54.3343 82.7904 54.4581 82.6551 54.4787C81.8432 54.6231 81.4953 54.7263 81.4179 54.7675C81.36 54.8088 81.302 54.8294 81.244 54.8294Z" fill="#D24A43"/>
<path d="M150.562 115.685C150.446 115.685 150.349 115.582 150.33 115.458C150.214 114.468 150.079 113.478 149.943 112.508C149.924 112.364 150.021 112.24 150.137 112.22C150.272 112.199 150.388 112.302 150.407 112.426C150.542 113.396 150.678 114.386 150.794 115.376C150.813 115.52 150.716 115.644 150.581 115.665C150.581 115.685 150.562 115.685 150.562 115.685ZM149.731 109.806C149.615 109.806 149.518 109.724 149.499 109.6C149.344 108.63 149.151 107.64 148.977 106.691C148.957 106.547 149.035 106.423 149.151 106.402C149.286 106.382 149.402 106.464 149.421 106.588C149.615 107.558 149.789 108.527 149.943 109.517C149.963 109.662 149.885 109.785 149.75 109.806H149.731ZM148.59 103.989C148.474 103.989 148.378 103.906 148.358 103.803C148.146 102.833 147.914 101.864 147.662 100.936C147.624 100.791 147.701 100.667 147.836 100.626C147.952 100.585 148.088 100.667 148.126 100.812C148.378 101.761 148.609 102.73 148.822 103.7C148.861 103.844 148.783 103.968 148.648 104.009C148.629 103.989 148.609 103.989 148.59 103.989ZM147.121 98.2538C147.024 98.2538 146.928 98.1919 146.889 98.0681C146.618 97.1192 146.329 96.1703 146.019 95.2626C145.981 95.1388 146.039 94.9944 146.155 94.9325C146.271 94.8913 146.406 94.9532 146.464 95.0769C146.773 96.0052 147.063 96.9542 147.334 97.9031C147.372 98.0269 147.295 98.1713 147.179 98.2125C147.16 98.2538 147.14 98.2538 147.121 98.2538ZM145.265 92.6427C145.169 92.6427 145.091 92.5808 145.053 92.4777C144.705 91.5494 144.357 90.6417 143.99 89.734C143.932 89.6102 143.99 89.4658 144.106 89.4039C144.222 89.3421 144.357 89.4039 144.415 89.5277C144.782 90.4354 145.149 91.3431 145.497 92.2714C145.536 92.3952 145.478 92.5396 145.362 92.6014C145.323 92.6427 145.304 92.6427 145.265 92.6427ZM143.023 87.1966C142.926 87.1966 142.849 87.1348 142.81 87.0522C142.405 86.1652 141.96 85.2781 141.535 84.4323C141.477 84.3086 141.515 84.1642 141.631 84.0816C141.747 84.0198 141.883 84.061 141.96 84.1848C142.405 85.0512 142.83 85.9383 143.255 86.8253C143.313 86.9491 143.255 87.0935 143.139 87.1554C143.1 87.1966 143.062 87.1966 143.023 87.1966ZM140.336 81.9981C140.259 81.9981 140.182 81.9569 140.143 81.8743C139.66 81.0286 139.157 80.1828 138.635 79.3782C138.558 79.2545 138.597 79.11 138.693 79.0275C138.809 78.945 138.944 78.9863 139.022 79.0894C139.544 79.894 140.046 80.7397 140.53 81.6062C140.607 81.7299 140.568 81.8743 140.452 81.9569C140.433 81.9775 140.375 81.9981 140.336 81.9981ZM137.205 77.0678C137.127 77.0678 137.069 77.0265 137.011 76.9646C136.451 76.1807 135.871 75.3968 135.291 74.6542C135.214 74.551 135.214 74.386 135.33 74.3035C135.426 74.221 135.581 74.221 135.658 74.3447C136.258 75.108 136.837 75.8919 137.398 76.6758C137.475 76.779 137.456 76.944 137.359 77.0265C137.321 77.0678 137.263 77.0678 137.205 77.0678ZM133.629 72.5294C133.571 72.5294 133.493 72.5088 133.455 72.4469C132.817 71.7248 132.179 71.0235 131.502 70.3427C131.406 70.2396 131.406 70.0952 131.502 69.992C131.599 69.8889 131.734 69.8889 131.831 69.992C132.488 70.6728 133.165 71.3948 133.803 72.1168C133.899 72.2199 133.88 72.385 133.783 72.4675C133.745 72.5088 133.687 72.5294 133.629 72.5294ZM129.627 68.4036C129.569 68.4036 129.511 68.3829 129.473 68.3417C128.777 67.7022 128.062 67.0627 127.327 66.4644C127.23 66.3819 127.211 66.2169 127.288 66.1137C127.366 66.0106 127.52 65.99 127.617 66.0725C128.352 66.6707 129.086 67.3102 129.782 67.9704C129.879 68.0529 129.898 68.2179 129.801 68.3211C129.763 68.3623 129.685 68.4036 129.627 68.4036ZM125.22 64.7522C125.181 64.7522 125.123 64.7316 125.085 64.711C124.331 64.154 123.538 63.6176 122.765 63.1019C122.649 63.0194 122.611 62.875 122.688 62.7512C122.765 62.6274 122.901 62.5862 123.017 62.6687C123.809 63.1844 124.602 63.7414 125.355 64.2984C125.471 64.3809 125.491 64.5253 125.413 64.6491C125.355 64.711 125.297 64.7522 125.22 64.7522ZM120.465 61.6372C120.426 61.6372 120.388 61.6372 120.349 61.6166C119.537 61.1421 118.706 60.6883 117.875 60.2757C117.759 60.2138 117.701 60.0694 117.759 59.9457C117.817 59.8219 117.952 59.76 118.068 59.8219C118.919 60.2551 119.75 60.7089 120.562 61.1834C120.678 61.2453 120.716 61.4103 120.658 61.5341C120.639 61.596 120.562 61.6372 120.465 61.6372ZM115.439 59.0586C115.4 59.0586 115.381 59.0586 115.342 59.038C114.492 58.6667 113.622 58.2953 112.752 57.9653C112.636 57.924 112.559 57.7796 112.617 57.6352C112.656 57.5114 112.791 57.4289 112.926 57.4908C113.815 57.8415 114.685 58.1922 115.536 58.5841C115.652 58.646 115.71 58.7904 115.671 58.9142C115.632 59.0173 115.536 59.0586 115.439 59.0586ZM110.201 57.037C110.181 57.037 110.162 57.037 110.123 57.0163C109.234 56.7275 108.345 56.4387 107.456 56.1912C107.321 56.1499 107.263 56.0261 107.282 55.8817C107.321 55.7373 107.436 55.6754 107.572 55.6961C108.48 55.9436 109.369 56.2324 110.259 56.5212C110.375 56.5625 110.452 56.7069 110.413 56.8307C110.394 56.9544 110.297 57.037 110.201 57.037ZM104.808 55.5104C104.788 55.5104 104.769 55.5104 104.75 55.5104C103.86 55.3041 102.933 55.1185 102.024 54.9534C101.889 54.9328 101.811 54.809 101.831 54.6646C101.85 54.5202 101.966 54.4377 102.101 54.4583C103.029 54.6234 103.938 54.809 104.846 55.0359C104.982 55.0566 105.059 55.201 105.02 55.3454C105.02 55.4279 104.924 55.5104 104.808 55.5104ZM99.2985 54.4996C99.2792 54.4996 99.2792 54.4996 99.2599 54.4996C98.3514 54.3758 97.4235 54.2727 96.4957 54.1695C96.3604 54.1489 96.2637 54.0251 96.283 53.9013C96.3024 53.7569 96.399 53.6538 96.5343 53.6744C97.4622 53.7569 98.4094 53.8807 99.3179 54.0045C99.4532 54.0251 99.5305 54.1489 99.5305 54.2933C99.5305 54.4171 99.4339 54.4996 99.2985 54.4996ZM85.3809 54.1283C85.2649 54.1283 85.1489 54.0251 85.1489 53.9013C85.1296 53.7569 85.2263 53.6332 85.3616 53.6332C86.2508 53.5507 87.1979 53.4888 88.1644 53.4475C88.2997 53.4269 88.3964 53.5507 88.4157 53.6951C88.4157 53.8395 88.3191 53.9426 88.1838 53.9632C87.2366 54.0045 86.2894 54.0664 85.4196 54.1489C85.4002 54.1283 85.3809 54.1283 85.3809 54.1283ZM93.7508 53.9839C93.7508 53.9839 93.7315 53.9839 93.7508 53.9839C92.8036 53.9426 91.8758 53.9013 90.948 53.9013C90.8126 53.9013 90.716 53.7776 90.716 53.6538C90.716 53.5094 90.832 53.4062 90.948 53.4062C91.8758 53.4062 92.823 53.4475 93.7508 53.4888C93.8861 53.4888 93.9828 53.6125 93.9828 53.7569C93.9828 53.8807 93.8668 53.9839 93.7508 53.9839Z" fill="#D24A43"/>
<path d="M151.007 120.203C150.891 120.203 150.775 120.1 150.775 119.976C150.736 119.46 150.697 118.965 150.639 118.47C150.62 118.326 150.717 118.202 150.852 118.202C150.987 118.181 151.104 118.284 151.104 118.429C151.142 118.924 151.2 119.44 151.239 119.935C151.258 120.079 151.162 120.203 151.026 120.203H151.007Z" fill="#D24A43"/>
<path d="M158.816 106.32L171.477 104.814L186.728 111.127C186.728 111.127 187.192 154.283 186.264 154.035C185.317 153.788 151.142 151.766 151.142 151.003C151.142 150.24 148.899 130.56 148.899 130.56L158.816 106.32Z" fill="#FECA55"/>
<path d="M147.45 111.127C142.366 121.214 140.955 124.247 140.955 124.247L125.259 109.373C125.22 107.042 124.872 104.649 124.041 102.504C122.997 99.8425 121.373 99.4918 119.634 97.4082C118.629 96.1911 117.43 97.8415 118.435 99.0586L119.46 100.379C119.479 101.039 119.827 102.772 119.904 103.432C118.223 101.72 115.98 99.2236 113.815 98.1509C113.216 97.8621 112.656 98.089 112.327 98.5222C111.824 98.5841 111.419 99.0379 111.303 99.5537C110.819 99.9456 110.549 100.75 110.974 101.431C110.645 101.802 110.471 102.339 110.703 102.916C110.723 102.957 110.742 102.978 110.742 103.019C110.607 103.164 110.781 103.679 110.645 103.927C110.046 105.062 111.786 109.6 115.014 111.869C115.961 114.221 117.933 115.747 118.087 115.789C121.509 120.698 133.358 138.192 139.138 143.927C145.691 150.446 151.084 142.276 155.452 127.403C159.821 112.509 160.652 107.475 160.652 107.475L171.883 104.958C157.637 104.051 152.553 101.018 147.45 111.127Z" fill="#FFA79B"/>
<path d="M171.941 104.939L171.671 105.001L164.055 106.713L160.711 107.455C160.711 107.455 159.879 112.51 155.511 127.383C155.221 128.353 154.931 129.302 154.641 130.209C150.833 126.744 146.909 123.422 142.946 120.142C143.951 118.1 145.401 115.171 147.47 111.086C151.394 103.309 155.298 103.33 163.436 104.134C165.775 104.361 168.443 104.67 171.574 104.877C171.69 104.918 171.806 104.918 171.941 104.939Z" fill="#FECA55"/>
<path d="M155.162 113.004C154.814 117.088 154.466 121.173 154.099 125.257C154.079 125.422 154.331 125.422 154.331 125.257C154.679 121.173 155.027 117.088 155.394 113.004C155.394 112.839 155.162 112.839 155.162 113.004Z" fill="white"/>
<path d="M141.787 126.351C141.632 125.856 141.477 125.34 141.322 124.845C141.284 124.7 141.052 124.762 141.09 124.907C141.245 125.402 141.4 125.918 141.555 126.413C141.593 126.578 141.826 126.516 141.787 126.351Z" fill="#952C28"/>
<path d="M117.179 103.989C115.845 102.483 114.492 100.957 113.158 99.451C113.062 99.3272 112.888 99.5129 112.984 99.6366C114.318 101.143 115.671 102.669 117.005 104.175C117.121 104.278 117.276 104.093 117.179 103.989Z" fill="#952C28"/>
<path d="M115.652 105.619C114.435 104.134 113.197 102.628 111.98 101.142C111.883 101.019 111.709 101.204 111.806 101.328C113.023 102.813 114.261 104.319 115.478 105.805C115.575 105.908 115.749 105.722 115.652 105.619Z" fill="#952C28"/>
<path d="M114.416 107.248C113.43 106.072 112.464 104.896 111.478 103.721C111.381 103.597 111.207 103.782 111.304 103.906C112.29 105.082 113.256 106.258 114.242 107.434C114.358 107.558 114.532 107.372 114.416 107.248Z" fill="#952C28"/>
<path d="M120.621 109.023C120.04 107.64 119.924 106.134 120.253 104.649C120.292 104.484 120.06 104.422 120.021 104.587C119.673 106.134 119.808 107.702 120.408 109.146C120.466 109.311 120.679 109.167 120.621 109.023Z" fill="#952C28"/>
<path d="M162.817 144.093C158.661 143.948 154.486 143.783 150.33 143.453C150.755 147.352 151.123 150.694 151.123 151.003C151.123 151.767 185.298 153.788 186.245 154.036C186.535 154.118 186.69 150.178 186.767 144.67C178.784 144.546 170.801 144.381 162.817 144.093Z" fill="#2252B2"/>
<path d="M179.113 145.64C193.34 142.71 211.568 136.872 212.09 151.333C212.612 165.773 194.944 166.516 175.247 166.475C155.569 166.413 154.525 166.413 151.142 170.559C147.991 174.438 145.092 177.656 141.342 174.046L152.92 154.634C152.94 154.654 171.98 147.125 179.113 145.64Z" fill="#2252B2"/>
<path d="M191.097 144.67C192.508 145.144 193.919 145.227 195.388 145.02C197.669 144.711 199.641 143.638 200.994 141.967C197.34 141.947 193.126 142.648 188.854 143.535C189.492 144.092 190.478 144.463 191.097 144.67Z" fill="black"/>
<path d="M156.399 153.293C154.292 154.098 152.939 154.634 152.939 154.634L141.36 174.046C145.13 177.656 148.01 174.417 151.161 170.559C152.862 168.476 153.964 167.445 157.076 166.929C156.244 162.494 156.148 157.852 156.399 153.293Z" fill="black"/>
<path d="M177.024 161.338C177.024 161.338 173.912 159.193 169.795 156.47C169.234 161.483 168.674 166.495 167.823 171.446C172.559 173.055 173.545 174.334 175.014 177.243C177.314 181.823 179.499 185.701 184.234 183.184L177.024 161.338Z" fill="#FFA79B"/>
<path d="M170.8 157.13C165.001 153.272 156.612 147.847 152.321 145.825C138.422 139.286 121.103 128.909 117.082 142.793C113.061 156.676 131.038 161.978 151.257 167.011C159.879 169.157 165.02 170.456 168.268 171.591C169.35 166.826 170.471 162.04 170.8 157.13Z" fill="#2252B2"/>
<path d="M177.025 161.338C177.025 161.338 175.44 160.245 173.043 158.636C173.294 160.162 173.719 161.668 173.855 163.236C173.971 164.783 173.623 166.207 173.062 167.63C172.347 169.425 171.438 171.075 171.148 172.829C173.197 173.942 173.99 175.18 175.034 177.243C177.334 181.823 179.518 185.701 184.254 183.184L177.025 161.338Z" fill="black"/>
<path d="M169.466 156.098C163.184 152.736 156.612 150.013 149.846 147.95C149.692 147.909 149.634 148.156 149.788 148.197C156.534 150.26 163.087 152.983 169.35 156.325C169.486 156.387 169.602 156.181 169.466 156.098Z" fill="white"/>
<path d="M192.856 147.888C185.143 147.744 177.449 148.383 169.853 149.786C167.668 150.199 165.503 150.652 163.358 151.189C163.203 151.23 163.281 151.478 163.416 151.436C170.935 149.58 178.629 148.486 186.341 148.198C188.506 148.115 190.691 148.094 192.856 148.136C193.01 148.156 193.01 147.888 192.856 147.888Z" fill="white"/>
<path d="M141.844 143.969C138.848 142.978 135.833 141.988 132.836 141.019C132.682 140.977 132.624 141.204 132.778 141.266C135.775 142.256 138.79 143.247 141.786 144.216C141.922 144.257 141.98 144.03 141.844 143.969Z" fill="white"/>
<path d="M171.457 104.814C180.098 105.702 191.077 104.319 192.392 112.757C193.687 121.215 194.634 125.113 195.233 131.178C195.833 137.243 197.959 144.546 190.865 145.309C183.771 146.073 167.456 147.455 167.456 147.455L164.267 138.234C164.267 138.234 177.508 133.179 181.76 131.797L180.929 113.623L171.457 104.814Z" fill="#FFA79B"/>
<path d="M194.904 128.332C190.458 128.435 186.013 128.641 181.644 129.425L180.929 113.644L175.091 108.198L171.67 105L171.573 104.918L171.457 104.814C173.39 105.021 175.439 105.103 177.469 105.206C184.524 105.578 191.367 106.197 192.372 112.777C193.474 119.812 194.324 123.711 194.904 128.332Z" fill="#FECA55"/>
<path d="M181.413 116.428C181.413 116.263 181.181 116.263 181.181 116.428C181.2 120.348 181.219 124.247 181.239 128.166C181.239 128.331 181.471 128.331 181.471 128.166C181.452 124.247 181.432 120.327 181.413 116.428Z" fill="white"/>
<path d="M184.118 131.798C183.558 131.798 183.016 131.777 182.456 131.777C182.301 131.777 182.301 132.025 182.456 132.025C183.016 132.025 183.558 132.046 184.118 132.046C184.273 132.046 184.273 131.798 184.118 131.798Z" fill="#952C28"/>
<path d="M170.568 106.919C172.231 106.486 173.855 105.991 175.498 105.496L171.902 96.4395L165.601 99.4307C165.717 99.5338 166.722 103.928 167.514 107.517C168.539 107.311 169.563 107.167 170.568 106.919Z" fill="#FFA79B"/>
<path d="M169.988 97.9862C169.968 97.718 169.949 97.4498 169.891 97.1816L165.619 99.4508C165.696 99.5127 166.16 101.452 166.682 103.783C168.306 102.153 169.582 100.173 169.988 97.9862Z" fill="black"/>
<path d="M176.753 91.9625C176.715 89.6314 173.448 87.2385 170.858 86.9084C169.737 86.764 169.466 85.7944 168.925 86.599C167.591 88.6206 163.242 94.7474 163.435 97.1404C163.725 100.627 167.668 101.411 170.239 100.111C172.829 98.8114 176.811 95.2632 176.753 91.9625Z" fill="#FFA79B"/>
<path d="M176.889 92.4781C177.237 91.8798 177.063 91.1372 176.599 90.7246C176.579 90.704 176.579 90.704 176.56 90.6834C176.715 89.5281 175.922 88.5998 174.956 88.4967C174.84 88.2079 174.627 87.981 174.337 87.8366C174.299 87.7128 174.26 87.6096 174.183 87.5271C174.009 87.3415 173.796 87.2589 173.564 87.2589C173.409 86.7432 173.139 86.2894 172.675 86.0418C172.385 85.8768 172.056 85.9181 171.805 86.0625C171.244 85.4436 170.549 84.9279 169.853 84.8866C169.563 84.866 168.983 85.0104 168.731 85.7736C168.442 85.753 168.171 85.918 168.036 86.2481C167.842 86.7432 168.074 87.2589 168.442 87.5684C168.654 87.754 168.963 87.8778 169.253 87.8572C170.143 88.9093 172.559 90.7246 173.139 90.704C172.694 91.7973 172.192 94.3141 173.409 94.541C173.641 95.6343 172.501 97.4291 173.061 98.1923C174.299 97.1196 175.458 95.82 176.135 94.4172C176.154 94.4172 176.193 94.4172 176.232 94.4172C177.101 94.2109 177.372 93.1382 176.889 92.4781Z" fill="#952C28"/>
<path d="M175.768 97.2228C176.058 95.9851 174.918 94.3967 173.275 94.5617C172.521 95.6963 171.748 96.8103 170.955 97.9036C171.342 98.605 172.521 99.4508 173.565 99.3683C174.744 99.2445 175.459 98.5431 175.768 97.2228Z" fill="#FFA79B"/>
<path d="M173.989 96.3977C173.525 96.4596 173.061 96.5008 172.597 96.5627C172.443 96.5834 172.481 96.8103 172.636 96.8103C172.675 96.8103 172.694 96.8103 172.733 96.8103C172.752 96.8103 172.752 96.8103 172.771 96.8103C173.197 96.769 173.603 96.7071 174.028 96.6659C174.183 96.6246 174.144 96.3771 173.989 96.3977Z" fill="#952C28"/>
<path d="M170.221 92.1277C170.085 92.2928 169.93 92.4784 169.795 92.6434C169.64 92.8291 169.408 92.5403 169.563 92.3753C169.698 92.2102 169.853 92.0246 169.988 91.8595C170.124 91.6739 170.356 91.9421 170.221 92.1277Z" fill="black"/>
<path d="M168.037 90.2088C167.902 90.3738 167.747 90.5595 167.611 90.7245C167.457 90.9102 167.224 90.6214 167.379 90.4563C167.515 90.2913 167.669 90.1056 167.805 89.9406C167.94 89.7549 168.172 90.0231 168.037 90.2088Z" fill="black"/>
<path d="M166.703 92.0244C166.838 92.0863 166.761 92.3132 166.625 92.2513C166.316 92.1275 166.161 92.5195 166.238 92.7876C166.316 93.0558 166.528 93.2415 166.722 93.4271C166.838 93.5303 166.703 93.7366 166.586 93.6334C166.277 93.3446 165.909 92.9733 166.006 92.4782C166.045 92.1275 166.393 91.9006 166.703 92.0244Z" fill="#952C28"/>
<path d="M170.665 90.8078C170.84 91.0141 170.994 91.1998 171.169 91.406C171.381 91.6536 171.014 91.963 170.801 91.7155C170.627 91.5092 170.472 91.3235 170.298 91.1172C170.104 90.8697 170.472 90.5603 170.665 90.8078Z" fill="#952C28"/>
<path d="M168.5 88.7652C168.616 88.8684 168.732 88.9715 168.868 89.0746C169.1 89.2809 168.829 89.6729 168.597 89.4872C168.481 89.3841 168.365 89.2809 168.229 89.1778C167.997 88.9715 168.268 88.5589 168.5 88.7652Z" fill="#952C28"/>
<path d="M165.291 95.9434C165.484 96.1703 165.813 96.2322 166.064 96.1084C166.199 96.0465 166.296 96.2735 166.161 96.3354C165.793 96.5004 165.387 96.4179 165.097 96.1084C165.001 95.9847 165.175 95.8403 165.291 95.9434Z" fill="#952C28"/>
<path d="M177.488 105.206C176.908 106.382 176.077 107.393 175.091 108.197C174.009 109.085 172.714 109.703 171.264 109.951C168.48 110.425 165.349 109.167 164.035 106.712C163.648 105.97 163.416 105.124 163.416 104.175C165.755 104.402 168.422 104.711 171.554 104.917L171.438 104.814C173.39 105 175.439 105.082 177.488 105.206Z" fill="#FFA79B"/>
<path d="M168.423 147.867L144.956 147.021L137.746 126.31L161.213 127.135L168.423 147.867Z" fill="black"/>
<path d="M177.082 147.661L145.149 146.505C144.84 146.485 144.82 147.001 145.13 147.001L177.063 148.156C177.372 148.176 177.392 147.681 177.082 147.661Z" fill="black"/>
<path d="M150.214 138.006C150.136 138.006 150.078 138.006 150.001 137.986C149.441 137.924 148.938 137.594 148.571 137.078C148.203 136.562 148.01 135.902 148.049 135.242C148.087 134.561 148.377 133.963 148.861 133.571C150.078 132.581 151.142 132.725 152.069 134.025C152.437 134.541 152.591 135.18 152.514 135.84C152.437 136.48 152.127 137.058 151.625 137.449C151.18 137.821 150.697 138.006 150.214 138.006ZM150.33 133.468C149.962 133.468 149.576 133.654 149.131 134.004C148.3 134.685 148.377 135.985 148.938 136.789C149.228 137.202 149.615 137.449 150.059 137.491C150.484 137.532 150.929 137.388 151.335 137.078C152.127 136.439 152.282 135.222 151.683 134.376C151.238 133.757 150.813 133.468 150.33 133.468Z" fill="white"/>
<path d="M165.214 140.462C163.822 136.377 162.45 132.313 161.058 128.229C161 128.084 160.787 128.146 160.826 128.291C162.218 132.375 163.59 136.439 164.982 140.524C165.04 140.668 165.253 140.606 165.214 140.462Z" fill="white"/>
<path d="M158.101 121.978C157.869 122.741 157.637 123.504 157.405 124.247C157.308 124.556 157.772 124.68 157.869 124.391C158.101 123.628 158.333 122.865 158.565 122.122C158.661 121.813 158.197 121.668 158.101 121.978Z" fill="#2252B2"/>
<path d="M164.461 120.327L161.87 124.804C161.716 125.072 162.122 125.34 162.276 125.051C163.146 123.566 163.997 122.081 164.867 120.575C165.021 120.307 164.615 120.059 164.461 120.327Z" fill="#2252B2"/>
<path d="M168.287 130.931C167.205 131.158 166.142 131.385 165.059 131.612C164.769 131.674 164.885 132.169 165.195 132.107C166.277 131.88 167.34 131.653 168.423 131.426C168.713 131.364 168.597 130.869 168.287 130.931Z" fill="#2252B2"/>
<path d="M189.667 30.3021C187.482 30.3021 185.704 28.3424 185.704 25.9494C185.704 23.3502 187.289 21.5967 189.667 21.5967C192.025 21.5967 193.436 23.1439 193.629 25.9288C193.707 27.0221 193.339 28.0948 192.624 28.92C191.851 29.7864 190.769 30.3021 189.667 30.3021ZM189.667 22.0918C187.579 22.0918 186.187 23.639 186.187 25.9494C186.187 28.0742 187.753 29.807 189.667 29.807C190.653 29.807 191.6 29.3532 192.276 28.5899C192.914 27.8679 193.224 26.9396 193.166 25.97C192.992 23.4327 191.774 22.0918 189.667 22.0918Z" fill="black"/>
<path d="M62.3198 160.121C59.285 160.121 56.8301 157.418 56.8301 154.077C56.8301 150.466 59.0337 148.032 62.3198 148.032C65.6059 148.032 67.5583 150.178 67.8095 154.056C67.9062 155.582 67.4229 157.047 66.4178 158.202C65.3546 159.419 63.8662 160.121 62.3198 160.121ZM62.3198 148.527C59.3237 148.527 57.294 150.755 57.294 154.077C57.294 157.13 59.5556 159.626 62.3198 159.626C63.7309 159.626 65.1033 158.986 66.0698 157.872C66.9783 156.82 67.4423 155.479 67.3456 154.097C67.0943 150.508 65.316 148.527 62.3198 148.527Z" fill="black"/>
<path d="M182.959 14.0466L177.469 17.471C177.199 17.6361 177.45 18.0693 177.701 17.9042C179.538 16.7696 181.374 15.6144 183.191 14.4798C183.462 14.3148 183.23 13.8816 182.959 14.0466Z" fill="black"/>
<path d="M183.655 16.5222C181.916 17.6155 180.195 18.7089 178.456 19.8228C178.185 19.9879 178.436 20.4211 178.688 20.2561C180.427 19.1627 182.148 18.0694 183.887 16.9554C184.158 16.7904 183.907 16.3572 183.655 16.5222Z" fill="black"/>
<path d="M109.33 5.69181C108.75 7.42465 106.643 6.8883 105.58 6.10439C104.575 5.38238 103.744 4.30966 102.584 3.8352C101.289 3.29884 99.5494 3.62891 99.0854 5.17608C98.9888 5.48552 99.4527 5.60929 99.5494 5.32049C100.091 3.56702 102.198 4.06211 103.28 4.82539C104.285 5.54741 105.116 6.62012 106.257 7.11521C107.552 7.6722 109.272 7.38339 109.794 5.83621C109.891 5.52678 109.427 5.38238 109.33 5.69181Z" fill="black"/>
<path d="M108.848 9.21915C108.268 10.952 106.161 10.4156 105.098 9.63173C104.093 8.90972 103.262 7.83701 102.102 7.36254C100.807 6.82618 99.0669 7.15625 98.603 8.70343C98.5064 9.01286 98.9703 9.13664 99.0669 8.84783C99.6082 7.09436 101.715 7.58946 102.798 8.35273C103.803 9.07475 104.634 10.1475 105.774 10.6426C107.07 11.1995 108.79 10.9107 109.312 9.36356C109.409 9.05412 108.945 8.93035 108.848 9.21915Z" fill="black"/>
<path d="M201.728 92.5399C200.317 95.9024 198.887 99.2649 197.476 102.627C197.36 102.916 197.766 103.184 197.882 102.875C199.293 99.5125 200.723 96.15 202.134 92.7874C202.25 92.4986 201.844 92.2511 201.728 92.5399Z" fill="black"/>
<path d="M202.018 98.8727C201.226 100.564 200.453 102.235 199.66 103.927C199.525 104.216 199.931 104.463 200.066 104.174C200.859 102.483 201.632 100.812 202.424 99.1202C202.56 98.852 202.154 98.5839 202.018 98.8727Z" fill="black"/>
<path d="M209.229 133.077C208.127 133.242 207.025 133.407 205.923 133.572C205.614 133.613 205.749 134.108 206.058 134.067C207.16 133.902 208.262 133.737 209.364 133.572C209.654 133.531 209.538 133.035 209.229 133.077Z" fill="black"/>
<path d="M53.1774 155.129C49.9686 157.645 46.9338 153.231 44.6722 151.395C42.9132 149.971 40.149 149.188 38.4866 151.189C38.2933 151.436 38.6219 151.787 38.8152 151.539C41.5407 148.259 45.1554 152.633 47.1851 154.448C48.8861 155.974 51.4184 157.13 53.4287 155.562C53.6607 155.376 53.4287 154.943 53.1774 155.129Z" fill="black"/>
<path d="M52.2301 158.677C49.0214 161.193 45.9865 156.779 43.7249 154.943C41.9659 153.519 39.2017 152.735 37.5393 154.736C37.346 154.984 37.6746 155.335 37.8679 155.087C40.5934 151.807 44.2082 156.18 46.2378 157.996C47.9389 159.522 50.4711 160.678 52.4814 159.11C52.7134 158.924 52.4814 158.47 52.2301 158.677Z" fill="black"/>
<path d="M16.5464 145.557C16.0825 144.464 15.5992 143.371 15.1353 142.277C15 141.988 14.5941 142.236 14.7294 142.525C15.1933 143.618 15.6766 144.711 16.1405 145.805C16.2758 146.114 16.6817 145.846 16.5464 145.557Z" fill="black"/>
<path d="M6.55291 36.8212C5.29646 34.2219 4.04 31.602 2.76422 29.0028C2.62891 28.714 2.22298 28.9615 2.35829 29.2503C3.61474 31.8496 4.87119 34.4695 6.14698 37.0687C6.28229 37.3575 6.68822 37.11 6.55291 36.8212Z" fill="black"/>
<path d="M9.70387 35.0054C8.35077 32.5712 6.99766 30.137 5.64456 27.7027C5.48992 27.4139 5.08399 27.6821 5.23863 27.9503C6.59173 30.3845 7.94484 32.8188 9.29794 35.253C9.45258 35.5418 9.85851 35.2942 9.70387 35.0054Z" fill="black"/>
<path d="M18.4994 32.1178C18.422 33.5412 18.3446 34.9853 18.2672 36.4087C18.2478 36.7387 18.7316 36.7387 18.7316 36.4087C18.8089 34.9853 18.8863 33.5412 18.9637 32.1178C18.9831 31.8084 18.5187 31.8084 18.4994 32.1178Z" fill="black"/>
<path d="M40.2449 55.2632L48.1315 25.2273L41.7333 20.1113C31.4304 26.4032 27.487 28.4248 18.8079 48.6001C17.9187 50.6423 17.1261 52.6227 16.3916 54.5206C24.3556 54.7681 32.3002 54.9951 40.2449 55.2632Z" fill="#2252B2"/>
<path d="M37.094 33.231C34.0592 35.5415 31.005 39.1516 30.6764 43.2774C30.4251 46.4955 32.0295 49.7755 33.8852 52.1891C34.7164 53.2618 35.6829 54.3139 36.7847 55.1185C37.9445 55.1597 39.085 55.1803 40.2448 55.2216L47.1456 28.9814C43.5696 29.6622 40.0515 30.9825 37.094 33.231Z" fill="black"/>
<path d="M100.729 109.105C93.3446 108.548 92.7067 109.393 89.7492 92.4157C89.4013 90.4559 89.1113 88.5168 88.86 86.6602C88.5894 86.8252 88.2995 86.9902 88.0289 87.1553C85.4966 88.6612 82.8484 89.9814 80.1615 91.1573C78.4605 91.8999 76.7401 92.6013 75.0391 93.3852C77.2813 99.0376 80.9154 107.021 86.8497 117.996L105.793 113.849C105.793 113.849 106.315 109.538 100.729 109.105Z" fill="#FFA79B"/>
<path d="M100.729 109.105C96.9982 108.816 94.9879 108.899 93.5188 106.836C92.475 107.207 91.6245 108.094 90.7353 108.837C89.7881 109.621 88.8216 110.384 87.7778 111.044C86.5986 111.787 85.3615 112.385 84.0664 112.798C84.9169 114.448 85.8448 116.181 86.8306 117.996L105.774 113.85C105.793 113.85 106.315 109.538 100.729 109.105Z" fill="#697CCC"/>
<path d="M83.1382 122.307C76.3534 118.263 75.4062 118.779 79.6781 101.265C80.1614 99.2435 80.7026 97.2837 81.2439 95.3858C80.9153 95.4065 80.5673 95.4477 80.2387 95.4684C77.2039 95.6953 74.1497 95.6953 71.1149 95.5303C69.1819 95.4271 67.2682 95.2621 65.3352 95.2002C65.1033 101.616 65.2386 110.92 66.2824 124.122L85.9991 129.176C85.9797 129.197 88.2607 125.36 83.1382 122.307Z" fill="#FFA79B"/>
<path d="M65.2388 98.2539C65.9734 98.3364 66.6886 98.4396 67.4231 98.5427C70.168 98.9553 72.9322 99.2029 75.6964 99.4298C77.1461 99.5536 80.2583 99.306 81.708 99.4091C85.98 82.679 90.6385 70.8379 78.4026 66.4233C65.7994 61.8849 39.4526 58.1717 39.4526 58.1717L40.1098 55.6756C32.3971 54.7266 24.6844 53.7158 16.9524 53.0557C9.97423 70.6729 9.45232 81.7713 18.4795 82.2458C28.2605 82.7409 66.8819 82.2458 66.8819 82.2458C66.8819 82.2458 65.4321 85.9177 65.2388 98.2539Z" fill="#697CCC"/>
<path d="M83.1381 122.308C79.7167 120.265 77.7643 119.378 77.2424 116.738C76.1019 116.593 74.9228 117.026 73.7823 117.315C72.5645 117.625 71.3274 117.872 70.071 117.996C68.6405 118.14 67.2295 118.12 65.8184 117.893C65.9537 119.873 66.089 121.957 66.2629 124.144L85.9796 129.198C85.9796 129.198 88.2605 125.361 83.1381 122.308Z" fill="#697CCC"/>
<path d="M85.0333 72.6328C85.0333 72.6328 88.706 81.462 90.2331 87.6508C90.2331 87.6508 79.8335 95.2216 76.5087 96.7275C73.2033 98.2541 85.0333 72.6328 85.0333 72.6328Z" fill="#697CCC"/>
<path d="M79.6598 100.461C79.4856 100.956 79.3308 101.472 79.1567 101.967C79.0987 102.111 79.3308 102.194 79.3889 102.029C79.563 101.534 79.7178 101.018 79.892 100.523C79.95 100.379 79.7178 100.317 79.6598 100.461Z" fill="#952C28"/>
<path d="M37.288 60.399C36.5727 60.1514 35.8575 59.9039 35.1617 59.6563C35.007 59.6151 34.949 59.842 35.1037 59.9039L37.23 60.6465C37.3653 60.6878 37.4233 60.4609 37.288 60.399Z" fill="black"/>
<path d="M85.7096 77.0267C85.0717 81.1525 84.4145 85.2577 83.7766 89.3835C83.7573 89.5485 83.9699 89.6104 84.0086 89.4454C84.6465 85.3196 85.3037 81.2144 85.9416 77.0886C85.9609 76.9442 85.729 76.8617 85.7096 77.0267Z" fill="white"/>
<path d="M67.9454 81.4819C67.7132 81.647 67.481 81.812 67.2295 81.977C67.094 82.0595 67.2295 82.2865 67.3455 82.2039C67.5777 82.0389 67.8099 81.8739 68.0615 81.7088C68.1776 81.6057 68.0615 81.3994 67.9454 81.4819Z" fill="white"/>
<path d="M68.912 62.9163C69.4532 63.0813 69.7045 62.5037 69.5305 62.1117C70.6903 61.988 69.5885 59.76 69.3179 59.3268C67.1916 56.1087 60.3294 56.6863 55.0137 58.6873L63.113 62.7306L68.9313 63.4732C69.0666 62.9781 69.1053 63.1432 68.912 62.9163Z" fill="#FFA79B"/>
<path d="M68.6993 62.5862C67.8488 61.2659 66.7856 60.1313 65.5485 59.203C65.4325 59.0999 65.2972 59.3268 65.4325 59.4299C66.631 60.3376 67.6555 61.431 68.4867 62.7306C68.5833 62.8337 68.7959 62.71 68.6993 62.5862Z" fill="#952C28"/>
<path d="M62.2239 58.9758C62.1079 58.8726 61.9533 59.0377 62.0499 59.1615C62.8618 59.9454 63.3644 60.9768 63.4997 62.1527C63.519 62.3177 63.751 62.3177 63.7316 62.1527C63.6157 60.9149 63.0937 59.8216 62.2239 58.9758Z" fill="#952C28"/>
<path d="M69.2404 61.6169C68.7571 60.276 67.9066 59.1621 66.7661 58.4194C66.6308 58.3369 66.5148 58.5432 66.6502 58.6463C67.752 59.3684 68.5638 60.4204 69.0278 61.6994C69.0664 61.8438 69.2984 61.782 69.2404 61.6169Z" fill="#952C28"/>
<path d="M66.7465 62.7105C66.1666 62.4836 65.7607 62.071 65.4901 61.4934C65.4707 61.4521 65.4321 61.4315 65.3934 61.4315C64.8522 61.4934 64.3883 61.3696 63.9243 61.0395C63.789 60.957 63.6731 61.1633 63.8084 61.2665C64.0597 61.4521 64.3303 61.5965 64.6396 61.6584C64.9682 61.7409 65.2001 61.6378 65.4321 61.9472C65.7994 62.4217 66.128 62.7518 66.6692 62.9787C66.8238 62.9993 66.8818 62.7518 66.7465 62.7105Z" fill="#952C28"/>
<path d="M81.1869 45.4437C77.6689 51.5705 74.1315 57.6973 70.6134 63.8242C70.4588 64.0923 70.884 64.2986 71.0387 64.0305C74.5567 57.9036 78.0941 51.7768 81.6122 45.65C81.7668 45.3818 81.3416 45.1755 81.1869 45.4437Z" fill="black"/>
<path d="M75.542 48.8266C74.5175 46.413 73.5124 43.9994 72.4879 41.5858C72.3719 41.297 71.9466 41.5445 72.082 41.8333C73.1064 44.2469 74.1116 46.6605 75.1361 49.0741C75.2521 49.3629 75.658 49.1154 75.542 48.8266Z" fill="#FECA55"/>
<path d="M72.2563 51.6528C70.5552 50.0437 68.8735 48.414 67.1725 46.805C66.9405 46.5987 66.6119 46.9494 66.8439 47.1557C68.5449 48.7647 70.2266 50.3944 71.9277 52.0035C72.1403 52.2098 72.4883 51.8591 72.2563 51.6528Z" fill="#FECA55"/>
<path d="M70.8838 63.6998L54.2213 60.853C53.912 60.8118 53.854 61.3069 54.144 61.3481L70.8065 64.1949C71.1158 64.2568 71.1737 63.7617 70.8838 63.6998Z" fill="black"/>
<path d="M100.245 122.823L66.1855 95.6954L92.4551 58.1299L126.515 85.2571L100.245 122.823ZM66.8428 95.5922L100.148 122.121L125.857 85.3602L92.5517 58.8313L66.8428 95.5922Z" fill="#003865"/>
<path d="M114.607 85.7734L94.832 69.9303C94.6194 69.7652 94.3295 70.1572 94.5421 70.3428L114.317 86.186C114.529 86.351 114.819 85.959 114.607 85.7734Z" fill="#2252B2"/>
<path d="M110.78 91.2392L91.0049 75.3961C90.7923 75.231 90.5023 75.623 90.7149 75.8087L110.49 91.6518C110.702 91.7962 110.992 91.4042 110.78 91.2392Z" fill="#2252B2"/>
<path d="M106.508 97.2841L86.7334 81.441C86.5208 81.276 86.2308 81.6679 86.4435 81.8536L106.218 97.6967C106.431 97.8617 106.721 97.4491 106.508 97.2841Z" fill="#2252B2"/>
<path d="M103.983 101.562L100.195 98.5283L97.3524 102.571L101.14 105.605L103.983 101.562Z" fill="#D24A43"/>
<path d="M99.9935 107.206L97.4419 110.837L97.152 111.25L96.9973 111.126L93.3633 108.217L95.9535 104.545L96.2048 104.174L96.3981 104.339L99.9935 107.206Z" fill="#FECA55"/>
<path d="M121.508 86.4746C121.238 86.9078 120.658 86.9697 120.271 86.6602C119.885 86.3508 119.807 85.7526 120.097 85.34C120.445 84.8449 120.948 84.8449 121.334 85.1543C121.721 85.4638 121.837 85.9176 121.508 86.4746Z" fill="#D24A43"/>
<path d="M118.724 84.2461C118.454 84.6793 117.874 84.7412 117.487 84.4317C117.1 84.1223 117.023 83.5241 117.313 83.1115C117.661 82.6164 118.164 82.6164 118.55 82.9258C118.937 83.2352 119.053 83.6891 118.724 84.2461Z" fill="#D24A43"/>
<path d="M115.825 81.915C115.554 82.3482 114.974 82.4101 114.588 82.1007C114.201 81.7912 114.124 81.193 114.414 80.7804C114.762 80.2853 115.264 80.2853 115.651 80.5948C116.037 80.9042 116.153 81.3787 115.825 81.915Z" fill="#D24A43"/>
<path d="M94.3108 66.237C94.1948 66.237 94.0982 66.1544 94.0788 66.0307L93.1123 61.3272C93.093 61.1828 93.1703 61.0591 93.2863 61.0178C93.4216 60.9972 93.5376 61.0797 93.5762 61.2035L94.5428 65.9069C94.5621 66.0513 94.4848 66.1751 94.3688 66.2163C94.3301 66.237 94.3108 66.237 94.3108 66.237Z" fill="#952C28"/>
<path d="M91.6041 64.4009C91.4881 64.4009 91.3914 64.3184 91.3721 64.1946C91.3528 64.0502 91.4301 63.9265 91.5461 63.8852L95.9533 62.8537C96.0886 62.8331 96.2046 62.9156 96.2433 63.0394C96.2626 63.1838 96.1853 63.3076 96.0693 63.3488L91.6621 64.3803C91.6427 64.4009 91.6234 64.4009 91.6041 64.4009Z" fill="#952C28"/>
<path d="M97.4417 110.837L97.1518 111.249L97.0165 111.126C96.6685 108.939 96.3206 106.732 95.9727 104.545L96.2239 104.194L96.4172 104.339C96.7459 106.505 97.0938 108.671 97.4417 110.837Z" fill="white"/>
<path d="M52.5969 20.0486C52.3263 20.1518 46.1986 28.6303 46.1986 28.6303L41.7334 20.1312L48.7502 15.4277L52.5969 20.0486Z" fill="#FFA79B"/>
<path d="M50.4902 22.7514C51.592 21.2661 52.4812 20.0902 52.5972 20.049L50.7995 17.8623C50.2389 19.4507 50.1423 21.1423 50.4902 22.7514Z" fill="black"/>
<path d="M80.3354 76.6965C79.2336 76.3664 78.383 75.8507 77.5132 75.1905C77.3199 74.9842 74.9423 73.994 74.749 73.7671C75.2129 72.8594 77.7065 73.7878 78.5763 74.0766C79.2529 74.2829 80.6253 73.7878 79.4849 72.6944C78.499 71.7661 74.1304 69.0843 73.7632 69.1256C72.526 68.548 71.1149 68.4242 69.7618 68.548C62.3584 60.9977 52.5581 53.7569 49.7166 50.1262C49.7166 50.1262 49.6779 45.691 49.5813 41.297C49.5426 39.5229 49.4653 37.4187 49.388 34.9639C49.0787 26.4234 48.3055 21.6581 43.6856 19.8428C43.6856 19.8428 36.1469 26.0934 35.9923 33.8086C35.8376 41.5239 33.1701 56.088 38.2925 61.4103C43.4343 66.7532 61.044 75.1286 65.2579 77.0884C66.1471 77.9755 68.0608 79.1719 68.6407 79.7289C70.2644 81.6681 72.932 82.9058 75.4642 82.7408C75.9281 82.7201 76.2374 82.452 76.4114 82.1219C76.4887 81.9569 76.6627 81.895 76.8366 81.9156C77.0879 81.9569 77.3392 81.9981 77.5905 82.0187C78.2284 82.0806 78.5957 81.6474 78.673 81.1317C78.7117 80.9048 78.9049 80.7191 79.1176 80.7397C79.1176 80.7397 79.1176 80.7397 79.1369 80.7397C80.1421 80.8223 80.4707 79.6877 80.1034 78.945C80.1421 78.945 80.1614 78.945 80.2001 78.945C82.0751 78.9863 81.7078 77.109 80.3354 76.6965Z" fill="#FFA79B"/>
<path d="M39.2209 42.6791C42.1591 42.4522 45.0779 42.0396 47.9967 41.5652C48.5187 41.4827 49.0599 41.3795 49.5818 41.297C49.5431 39.5229 49.4658 37.4187 49.3885 34.9639C49.0792 26.4234 48.306 21.6581 43.6861 19.8428C43.6861 19.8428 36.1474 26.0934 35.9928 33.8086C35.9348 36.3254 35.6255 39.5848 35.3936 43.0092C36.65 42.8854 37.9258 42.7823 39.2209 42.6791Z" fill="#2252B2"/>
<path d="M75.9666 81.5445C74.3815 81.3589 72.9124 80.6988 71.6946 79.6054C71.5787 79.5023 71.4047 79.6879 71.5207 79.7911C72.7965 80.9257 74.3042 81.6271 75.9666 81.8127C76.1212 81.8127 76.1212 81.5445 75.9666 81.5445Z" fill="#952C28"/>
<path d="M78.1705 79.976C76.6628 79.8522 75.2517 79.2539 74.0726 78.2431C73.9566 78.14 73.7826 78.3256 73.8986 78.4288C75.1357 79.5015 76.5855 80.1204 78.1705 80.2441C78.3252 80.2441 78.3252 79.976 78.1705 79.976Z" fill="#952C28"/>
<path d="M79.2139 78.3678C77.8608 77.5632 76.4884 76.7793 75.1353 75.9748C75 75.8923 74.884 76.1192 75.0193 76.2017C76.3724 77.0063 77.7448 77.7902 79.0979 78.5947C79.2139 78.6772 79.3299 78.4503 79.2139 78.3678Z" fill="#952C28"/>
<path d="M49.5236 50.2089C49.2143 49.8788 48.8857 49.5281 48.5764 49.198C48.4604 49.0743 48.3058 49.2599 48.4025 49.3837C48.7117 49.7138 49.0403 50.0645 49.3496 50.3945C49.4656 50.4977 49.6203 50.312 49.5236 50.2089Z" fill="#952C28"/>
<path d="M62.8219 62.05C61.4301 60.771 60.019 59.492 58.6273 58.1923C58.5113 58.0892 58.3373 58.2749 58.4533 58.378C59.8451 59.657 61.2561 60.936 62.6479 62.2356C62.7639 62.3388 62.9379 62.1531 62.8219 62.05Z" fill="white"/>
<path d="M51.5723 6.70227C53.4473 5.25824 57.4486 6.7229 59.3623 8.84769C60.1935 9.776 61.1406 9.40468 60.8314 10.4155C60.0775 12.9116 57.4293 21.2458 55.9022 22.1122C52.8287 23.845 49.8132 20.9776 49.1947 17.8007C48.5954 14.6445 48.9047 8.76518 51.5723 6.70227Z" fill="#FFA79B"/>
<path d="M61.6239 8.47601C60.7927 7.44456 58.7824 7.2589 57.7385 7.48582C55.7089 6.16556 53.0027 5.56731 51.5722 6.68128C49.7939 8.06343 49.0593 11.1372 48.9434 13.984C49.9099 13.984 50.4898 13.3032 51.5143 12.8081C54.4911 12.9319 56.7334 11.0959 57.3326 10.0026C57.8158 10.7865 60.1355 11.3228 61.0246 10.704C62.2231 9.77564 61.8752 8.80608 61.6239 8.47601Z" fill="#D24A43"/>
<path d="M55.3426 13.4268C55.2265 13.6125 55.091 13.8188 54.975 14.0044C54.8395 14.1901 55.1491 14.3758 55.2845 14.1901C55.4006 14.0044 55.5361 13.7982 55.6522 13.6125C55.7876 13.4062 55.478 13.2205 55.3426 13.4268Z" fill="black"/>
<path d="M58.7254 14.3341C58.6093 14.5197 58.4739 14.726 58.3578 14.9117C58.2223 15.0973 58.5319 15.283 58.6674 15.0973C58.7835 14.9117 58.9189 14.7054 59.035 14.5197C59.1704 14.3134 58.8608 14.1278 58.7254 14.3341Z" fill="black"/>
<path d="M57.5646 16.3769C57.4486 16.2738 57.294 16.4594 57.4099 16.5626C57.6612 16.7895 57.41 17.1195 57.1587 17.1814C56.9074 17.2433 56.6367 17.1402 56.4048 17.037C56.2695 16.9751 56.1535 17.2021 56.3081 17.2639C56.6947 17.429 57.178 17.594 57.5453 17.2639C57.7966 17.037 57.8159 16.6038 57.5646 16.3769Z" fill="#952C28"/>
<path d="M56.2311 12.6226C55.9991 12.5607 55.7478 12.4989 55.5159 12.437C55.2259 12.3545 55.1293 12.8496 55.4192 12.9321C55.6512 12.994 55.9025 13.0558 56.1344 13.1177C56.4437 13.1796 56.5404 12.6845 56.2311 12.6226Z" fill="#D24A43"/>
<path d="M59.4017 13.1376C59.2662 13.0757 59.1308 13.0139 58.976 12.9313C58.7051 12.8076 58.4923 13.2614 58.7631 13.3852C58.8986 13.4471 59.034 13.509 59.1888 13.5915C59.4791 13.7152 59.6919 13.2614 59.4017 13.1376Z" fill="#D24A43"/>
<path d="M54.9942 19.5749C54.704 19.4923 54.5105 19.2242 54.4911 18.9147C54.4718 18.7497 54.2396 18.7703 54.259 18.9354C54.2977 19.3686 54.5685 19.6986 54.9555 19.8224C55.1103 19.8637 55.149 19.6161 54.9942 19.5749Z" fill="#952C28"/>
<path d="M50.8187 12.6849C50.78 12.6024 50.7027 12.5611 50.6447 12.5611C50.664 12.4374 50.5867 12.293 50.4127 12.293C48.731 12.3755 47.3199 13.4482 46.7014 15.0779C43.4926 11.5297 38.0028 11.571 35.0067 15.4698C34.5814 16.0268 34.3495 16.0681 33.6922 16.13C33.2477 16.1712 32.8031 16.3156 32.3778 16.5013C31.5273 16.8932 30.7927 17.574 30.3288 18.4404C29.401 20.1939 29.8069 22.3806 31.044 23.804C29.343 24.4435 27.9319 25.97 28.1252 28.0329C28.3571 30.4465 30.4835 31.1479 32.4358 31.0448C34.6587 30.921 37.1523 30.4672 38.9693 28.9819C40.5544 27.6822 41.4822 25.4749 40.9023 23.3914C45.0196 25.5368 47.03 19.2656 47.3006 18.7086C50.2968 18.4611 49.7942 16.0062 50.1808 15.3873C51.0506 14.129 51.4566 14.0671 50.8187 12.6849Z" fill="#D24A43"/>
<path d="M48.2478 12.9939C47.8225 14.2316 48.8277 16.047 50.5287 16.1295C51.4179 15.0568 52.3264 14.0253 53.2543 12.9939C52.9256 12.2306 51.8238 11.1579 50.7413 11.096C49.5236 11.0341 48.6924 11.653 48.2478 12.9939Z" fill="#FFA79B"/>
<path d="M50.7613 13.1583C50.9354 13.6122 51.1096 14.066 51.2837 14.5405C51.3418 14.6849 51.1289 14.7674 51.0515 14.623C51.0322 14.6024 51.0322 14.5611 51.0128 14.5405C51.0128 14.5198 51.0128 14.5198 51.0128 14.4992C50.858 14.0866 50.6839 13.674 50.5291 13.2408C50.4904 13.0758 50.7032 12.9933 50.7613 13.1583Z" fill="#952C28"/>
</svg>
