<svg width="190" height="191" viewBox="0 0 190 191" fill="none" xmlns="http://www.w3.org/2000/svg">
<path d="M110.901 106.355H4.93262V185.686H110.901V106.355Z" fill="#BCD7FD"/>
<path d="M57.975 117.178H16.4521V149.85H57.975V117.178Z" fill="#D24A43"/>
<path d="M13.957 109.372H8.99512V113.638H13.957V109.372Z" fill="#FFA79B"/>
<path d="M95.725 148.429C95.638 148.429 95.5509 148.4 95.4639 148.342L65.8959 119.47C65.7508 119.325 65.7508 119.122 65.8959 118.977C66.041 118.832 66.2441 118.832 66.3892 118.977L95.9572 147.848C96.1023 147.993 96.1023 148.197 95.9572 148.342C95.8991 148.4 95.8121 148.429 95.725 148.429Z" fill="white"/>
<path d="M66.5057 148.777C66.4187 148.777 66.3316 148.748 66.2446 148.69C66.0995 148.545 66.0995 148.342 66.2446 148.197L95.1161 118.629C95.2612 118.483 95.4643 118.483 95.6094 118.629C95.7545 118.774 95.7545 118.977 95.6094 119.122L66.7378 148.69C66.6798 148.748 66.5928 148.777 66.5057 148.777Z" fill="white"/>
<path d="M11.722 190.271H0.579644C0.376528 190.271 0.231445 190.126 0.231445 189.922V178.316C0.231445 178.113 0.376528 177.968 0.579644 177.968C0.782761 177.968 0.927843 178.113 0.927843 178.316V189.545H11.693C11.8961 189.545 12.0412 189.69 12.0412 189.893C12.0412 190.097 11.8961 190.271 11.722 190.271Z" fill="#003865"/>
<path d="M115.428 190.01H103.821C103.618 190.01 103.473 189.864 103.473 189.661C103.473 189.458 103.618 189.313 103.821 189.313H115.05V178.548C115.05 178.345 115.195 178.2 115.399 178.2C115.602 178.2 115.747 178.345 115.747 178.548V189.661C115.776 189.864 115.631 190.01 115.428 190.01Z" fill="#003865"/>
<path d="M0.348199 112.825C0.145082 112.825 0 112.68 0 112.477V101.335C0 101.132 0.145082 100.986 0.348199 100.986H11.9549C12.158 100.986 12.3031 101.132 12.3031 101.335C12.3031 101.538 12.158 101.683 11.9549 101.683H0.6964V112.448C0.6964 112.651 0.551315 112.825 0.348199 112.825Z" fill="#003865"/>
<path d="M53.187 155.538H16.9742C16.5099 155.538 16.5099 156.234 16.9742 156.234H53.187C53.6512 156.234 53.6512 155.538 53.187 155.538Z" fill="#003865"/>
<path d="M53.187 160.326H16.9742C16.5099 160.326 16.5099 161.022 16.9742 161.022H53.187C53.6512 161.022 53.6512 160.326 53.187 160.326Z" fill="#003865"/>
<path d="M45.2654 165.113H16.8871C16.5389 165.113 16.5389 165.81 16.8871 165.81H45.2654C45.6426 165.81 45.6426 165.113 45.2654 165.113Z" fill="#003865"/>
<path d="M46.1065 124.519C42.6535 130.554 39.2005 136.619 35.7475 142.654C32.8459 139.114 29.9442 135.574 27.0425 132.063C26.7524 131.715 26.2591 132.208 26.5493 132.557C29.567 136.213 32.5557 139.869 35.5734 143.525C35.7185 143.699 36.0377 143.641 36.1248 143.467C39.6648 137.286 43.2048 131.077 46.7448 124.896C46.948 124.49 46.3386 124.113 46.1065 124.519Z" fill="white"/>
<path d="M100.078 172.745H84.0898V179.68H100.078V172.745Z" fill="#FECA55"/>
<path d="M59.9774 69.1551L71.8162 26.9069L62.2117 19.7108C46.7458 28.5608 40.8265 31.4045 27.798 59.7827C26.4632 62.6554 25.2735 65.441 24.1709 68.1105C36.1258 68.4587 48.0516 68.7779 59.9774 69.1551Z" fill="#2252B2"/>
<path d="M55.2478 38.1654C50.6922 41.4152 46.1076 46.4931 45.6143 52.2965C45.2371 56.8231 47.6455 61.4367 50.4311 64.8317C51.6788 66.3405 53.1296 67.8204 54.7835 68.952C56.5245 69.0101 58.2365 69.0391 59.9775 69.0971L70.3365 32.1879C64.9684 33.1455 59.6874 35.0025 55.2478 38.1654Z" fill="black"/>
<path d="M150.77 144.889C139.686 144.105 138.728 145.295 134.289 121.414C133.766 118.658 133.331 115.93 132.954 113.318C132.548 113.551 132.112 113.783 131.706 114.015C127.905 116.133 123.93 117.99 119.896 119.644C117.343 120.689 114.76 121.675 112.207 122.778C115.573 130.728 121.028 141.958 129.936 157.395L158.373 151.562C158.373 151.562 159.156 145.498 150.77 144.889Z" fill="#FFA79B"/>
<path d="M150.77 144.889C145.17 144.482 142.152 144.598 139.947 141.697C138.38 142.219 137.103 143.467 135.769 144.511C134.347 145.614 132.896 146.688 131.329 147.616C129.559 148.661 127.702 149.502 125.758 150.083C127.035 152.404 128.427 154.841 129.907 157.395L158.344 151.562C158.373 151.562 159.156 145.498 150.77 144.889Z" fill="#697CCC"/>
<path d="M124.365 163.459C114.18 157.772 112.758 158.497 119.171 133.862C119.896 131.019 120.709 128.262 121.521 125.593C121.028 125.622 120.506 125.68 120.013 125.709C115.457 126.028 110.872 126.028 106.317 125.796C103.415 125.651 100.542 125.418 97.6407 125.331C97.2925 134.356 97.4956 147.442 99.0625 166.013L128.659 173.122C128.63 173.151 132.054 167.754 124.365 163.459Z" fill="#FFA79B"/>
<path d="M97.4957 129.626C98.5983 129.742 99.6719 129.887 100.775 130.032C104.895 130.612 109.044 130.961 113.194 131.28C115.37 131.454 120.042 131.106 122.218 131.251C128.631 107.718 135.624 91.0627 117.256 84.8532C98.3371 78.4695 58.7874 73.2465 58.7874 73.2465L59.774 69.7355C48.1964 68.4007 36.6187 66.9789 25.0121 66.0504C14.5371 90.8306 13.7536 106.442 27.3044 107.109C41.9868 107.805 99.9621 107.109 99.9621 107.109C99.9621 107.109 97.7858 112.274 97.4957 129.626Z" fill="#697CCC"/>
<path d="M124.364 163.459C119.228 160.587 116.298 159.339 115.514 155.625C113.802 155.422 112.032 156.031 110.32 156.437C108.492 156.872 106.635 157.221 104.749 157.395C102.602 157.598 100.483 157.569 98.3652 157.25C98.5684 160.035 98.7715 162.966 99.0326 166.042L128.63 173.151C128.63 173.151 132.054 167.754 124.364 163.459Z" fill="#697CCC"/>
<path d="M127.209 93.5872C127.209 93.5872 132.722 106.006 135.014 114.711C135.014 114.711 119.403 125.36 114.412 127.479C109.45 129.626 127.209 93.5872 127.209 93.5872Z" fill="#697CCC"/>
<path d="M119.141 132.731C118.88 133.427 118.648 134.152 118.387 134.849C118.3 135.052 118.648 135.168 118.735 134.936C118.996 134.239 119.228 133.514 119.49 132.818C119.577 132.615 119.228 132.528 119.141 132.731Z" fill="#952C28"/>
<path d="M55.5365 76.3803C54.4629 76.0321 53.3893 75.6839 52.3447 75.3357C52.1126 75.2776 52.0255 75.5968 52.2577 75.6839L55.4495 76.7285C55.6526 76.7865 55.7396 76.4673 55.5365 76.3803Z" fill="black"/>
<path d="M128.224 99.7677C127.266 105.571 126.28 111.345 125.322 117.149C125.293 117.381 125.612 117.468 125.67 117.236C126.628 111.432 127.614 105.658 128.572 99.8547C128.601 99.6516 128.253 99.5356 128.224 99.7677Z" fill="white"/>
<path d="M101.558 106.035C101.21 106.267 100.862 106.5 100.484 106.732C100.281 106.848 100.484 107.167 100.658 107.051C101.007 106.819 101.355 106.587 101.732 106.354C101.906 106.209 101.732 105.919 101.558 106.035Z" fill="white"/>
<path d="M103.008 79.9203C103.821 80.1525 104.198 79.34 103.937 78.7887C105.678 78.6146 104.024 75.4808 103.618 74.8714C100.426 70.3448 90.1251 71.1573 82.1455 73.9719L94.3035 79.6592L103.037 80.7038C103.241 80.0074 103.299 80.2395 103.008 79.9203Z" fill="#FFA79B"/>
<path d="M102.689 79.456C101.412 77.599 99.8162 76.0031 97.9592 74.6973C97.7851 74.5522 97.582 74.8714 97.7851 75.0165C99.5841 76.2932 101.122 77.8311 102.37 79.6592C102.515 79.8042 102.834 79.6301 102.689 79.456Z" fill="#952C28"/>
<path d="M92.9689 74.3781C92.7948 74.233 92.5626 74.4652 92.7077 74.6393C93.9264 75.7419 94.6809 77.1927 94.884 78.8467C94.913 79.0788 95.2612 79.0788 95.2322 78.8467C95.0581 77.1057 94.2746 75.5678 92.9689 74.3781Z" fill="#952C28"/>
<path d="M103.501 78.0922C102.776 76.2061 101.499 74.6392 99.7871 73.5946C99.584 73.4786 99.4099 73.7687 99.613 73.9138C101.267 74.9294 102.486 76.4093 103.182 78.2083C103.24 78.4114 103.588 78.3244 103.501 78.0922Z" fill="#952C28"/>
<path d="M99.7579 79.6301C98.8874 79.311 98.2781 78.7306 97.8718 77.9182C97.8428 77.8601 97.7848 77.8311 97.7267 77.8311C96.9143 77.9182 96.2179 77.7441 95.5215 77.2798C95.3184 77.1637 95.1443 77.4539 95.3474 77.599C95.7246 77.8601 96.1308 78.0632 96.5951 78.1503C97.0884 78.2664 97.4366 78.1213 97.7848 78.5565C98.3361 79.2239 98.8294 79.6882 99.6418 80.0074C99.874 80.0364 99.961 79.6882 99.7579 79.6301Z" fill="#952C28"/>
<path d="M121.434 55.3432C116.153 63.9612 110.843 72.5791 105.562 81.1971C105.33 81.5743 105.968 81.8645 106.2 81.4872C111.481 72.8693 116.791 64.2513 122.072 55.6334C122.304 55.2562 121.666 54.966 121.434 55.3432Z" fill="black"/>
<path d="M112.961 60.102C111.423 56.707 109.914 53.3121 108.376 49.9171C108.202 49.5109 107.564 49.8591 107.767 50.2653C109.305 53.6603 110.814 57.0552 112.352 60.4502C112.526 60.8564 113.135 60.5082 112.961 60.102Z" fill="#FECA55"/>
<path d="M108.028 64.0772C105.474 61.8139 102.95 59.5216 100.396 57.2583C100.048 56.9682 99.5549 57.4614 99.9031 57.7516C102.457 60.0149 104.981 62.3072 107.534 64.5705C107.854 64.8607 108.376 64.3674 108.028 64.0772Z" fill="#FECA55"/>
<path d="M105.968 81.023L80.9553 77.0187C80.491 76.9606 80.404 77.657 80.8392 77.7151L105.852 81.7194C106.316 81.8064 106.403 81.11 105.968 81.023Z" fill="black"/>
<path d="M150.045 164.185L98.918 126.028L138.352 73.1884L189.479 111.345L150.045 164.185ZM99.9045 125.883L149.9 163.198L188.492 111.49L138.497 74.175L99.9045 125.883Z" fill="#003865"/>
<path d="M171.605 112.071L141.921 89.786C141.602 89.5539 141.166 90.1052 141.486 90.3663L171.17 112.651C171.489 112.883 171.924 112.332 171.605 112.071Z" fill="#2252B2"/>
<path d="M165.86 119.76L136.176 97.4754C135.857 97.2433 135.421 97.7946 135.74 98.0558L165.424 120.341C165.744 120.544 166.179 119.992 165.86 119.76Z" fill="#2252B2"/>
<path d="M159.447 128.262L129.763 105.977C129.443 105.745 129.008 106.296 129.327 106.558L159.011 128.842C159.331 129.075 159.766 128.494 159.447 128.262Z" fill="#2252B2"/>
<path d="M155.657 134.28L149.971 130.013L145.703 135.698L151.389 139.966L155.657 134.28Z" fill="#D24A43"/>
<path d="M149.669 142.219L145.838 147.326L145.403 147.906L145.171 147.732L139.716 143.641L143.604 138.476L143.981 137.954L144.271 138.186L149.669 142.219Z" fill="#FECA55"/>
<path d="M181.964 113.057C181.557 113.667 180.687 113.754 180.107 113.319C179.526 112.883 179.41 112.042 179.845 111.461C180.368 110.765 181.122 110.765 181.702 111.2C182.283 111.636 182.457 112.274 181.964 113.057Z" fill="#D24A43"/>
<path d="M177.786 109.924C177.38 110.533 176.509 110.62 175.929 110.185C175.348 109.749 175.232 108.908 175.668 108.328C176.19 107.631 176.944 107.631 177.525 108.066C178.105 108.502 178.279 109.14 177.786 109.924Z" fill="#D24A43"/>
<path d="M173.433 106.645C173.027 107.254 172.157 107.341 171.576 106.906C170.996 106.471 170.88 105.629 171.315 105.049C171.837 104.352 172.592 104.352 173.172 104.788C173.752 105.223 173.927 105.89 173.433 106.645Z" fill="#D24A43"/>
<path d="M141.137 84.592C140.963 84.592 140.818 84.476 140.789 84.3019L139.338 77.6861C139.309 77.4829 139.425 77.3088 139.6 77.2508C139.803 77.2218 139.977 77.3379 140.035 77.512L141.486 84.1278C141.515 84.3309 141.399 84.505 141.225 84.563C141.166 84.592 141.137 84.592 141.137 84.592Z" fill="#952C28"/>
<path d="M137.075 82.0095C136.901 82.0095 136.756 81.8935 136.727 81.7194C136.698 81.5162 136.814 81.3421 136.988 81.2841L143.604 79.8333C143.807 79.8043 143.981 79.9203 144.039 80.0944C144.068 80.2975 143.952 80.4716 143.778 80.5297L137.162 81.9805C137.133 82.0095 137.104 82.0095 137.075 82.0095Z" fill="#952C28"/>
<path d="M145.838 147.326L145.403 147.906L145.2 147.732C144.677 144.657 144.155 141.552 143.633 138.476L144.01 137.983L144.3 138.186C144.793 141.233 145.316 144.279 145.838 147.326Z" fill="white"/>
<path d="M78.5193 19.6237C78.113 19.7688 68.9148 31.6947 68.9148 31.6947L62.2119 19.7398L72.745 13.124L78.5193 19.6237Z" fill="#FFA79B"/>
<path d="M75.3566 23.4249C77.0106 21.3357 78.3453 19.6818 78.5194 19.6237L75.8209 16.548C74.9794 18.7823 74.8343 21.1616 75.3566 23.4249Z" fill="black"/>
<path d="M120.158 99.3035C118.504 98.8392 117.227 98.1138 115.921 97.1852C115.631 96.8951 112.062 95.5023 111.772 95.1831C112.468 93.9064 116.211 95.2121 117.517 95.6183C118.533 95.9085 120.593 95.2121 118.881 93.6742C117.401 92.3685 110.843 88.5963 110.292 88.6543C108.435 87.8419 106.317 87.6678 104.285 87.8419C93.172 77.2218 78.4606 67.0369 74.1951 61.93C74.1951 61.93 74.1371 55.6914 73.992 49.5109C73.934 47.0154 73.8179 44.0558 73.7018 40.6028C73.2376 28.5899 72.0769 21.887 65.1419 19.3336C65.1419 19.3336 53.8254 28.1256 53.5933 38.9778C53.3612 49.8301 49.3569 70.3158 57.0463 77.8021C64.7647 85.3174 91.1989 97.0982 97.5245 99.8548C98.8593 101.102 101.732 102.785 102.602 103.569C105.04 106.296 109.044 108.037 112.845 107.805C113.542 107.776 114.006 107.399 114.267 106.935C114.383 106.703 114.644 106.616 114.905 106.645C115.283 106.703 115.66 106.761 116.037 106.79C116.995 106.877 117.546 106.267 117.662 105.542C117.72 105.223 118.01 104.962 118.329 104.991C118.329 104.991 118.329 104.991 118.358 104.991C119.867 105.107 120.361 103.511 119.809 102.466C119.867 102.466 119.896 102.466 119.954 102.466C122.769 102.524 122.218 99.8838 120.158 99.3035Z" fill="#FFA79B"/>
<path d="M58.4387 51.455C62.8492 51.1358 67.2307 50.5555 71.6122 49.8881C72.3957 49.772 73.2081 49.6269 73.9916 49.5109C73.9335 47.0154 73.8175 44.0558 73.7014 40.6028C73.2371 28.5899 72.0765 21.887 65.1415 19.3336C65.1415 19.3336 53.825 28.1256 53.5929 38.9778C53.5058 42.5179 53.0416 47.1025 52.6934 51.9193C54.5794 51.7452 56.4945 51.6001 58.4387 51.455Z" fill="#2252B2"/>
<path d="M113.599 106.122C111.22 105.861 109.015 104.933 107.187 103.395C107.013 103.25 106.751 103.511 106.926 103.656C108.841 105.252 111.104 106.238 113.599 106.5C113.832 106.5 113.832 106.122 113.599 106.122Z" fill="#952C28"/>
<path d="M116.908 103.917C114.644 103.743 112.526 102.902 110.756 101.48C110.582 101.335 110.321 101.596 110.495 101.741C112.352 103.25 114.528 104.12 116.908 104.294C117.14 104.294 117.14 103.917 116.908 103.917Z" fill="#952C28"/>
<path d="M118.474 101.654C116.443 100.522 114.383 99.4195 112.352 98.2879C112.148 98.1718 111.974 98.491 112.177 98.607C114.209 99.7387 116.269 100.841 118.3 101.973C118.474 102.089 118.648 101.77 118.474 101.654Z" fill="#952C28"/>
<path d="M73.9044 62.0461C73.4401 61.5818 72.9468 61.0885 72.4825 60.6242C72.3084 60.4501 72.0763 60.7113 72.2214 60.8854C72.6857 61.3497 73.1789 61.8429 73.6432 62.3072C73.8173 62.4523 74.0495 62.1911 73.9044 62.0461Z" fill="#952C28"/>
<path d="M93.8681 78.7016C91.7789 76.9026 89.6607 75.1036 87.5715 73.2755C87.3974 73.1304 87.1362 73.3916 87.3103 73.5367C89.3995 75.3357 91.5178 77.1347 93.607 78.9628C93.7811 79.1079 94.0422 78.8467 93.8681 78.7016Z" fill="white"/>
<path d="M76.981 0.849948C79.7956 -1.18122 85.802 0.878967 88.6747 3.86768C89.9224 5.17343 91.3442 4.65113 90.88 6.07295C89.7483 9.58396 85.773 21.3067 83.4807 22.5254C78.8671 24.9628 74.3405 20.9295 73.4119 16.4609C72.5124 12.0214 72.9767 3.75161 76.981 0.849948Z" fill="#FFA79B"/>
<path d="M92.0691 3.34538C90.8214 1.89454 87.8037 1.63339 86.2368 1.95257C83.19 0.0955091 79.1277 -0.745974 76.9804 0.820925C74.3109 2.76504 73.2083 7.08852 73.0342 11.0928C74.485 11.0928 75.3555 10.1353 76.8934 9.43887C81.362 9.61297 84.7279 7.03049 85.6274 5.49261C86.3528 6.59524 89.8348 7.34967 91.1696 6.47917C92.9686 5.17343 92.4463 3.80964 92.0691 3.34538Z" fill="#D24A43"/>
<path d="M82.6387 10.3094C82.4646 10.5705 82.2615 10.8607 82.0874 11.1218C81.8843 11.383 82.3486 11.6441 82.5517 11.383C82.7258 11.1218 82.9289 10.8317 83.103 10.5705C83.3061 10.2803 82.8418 10.0192 82.6387 10.3094Z" fill="black"/>
<path d="M87.7169 11.5861C87.5428 11.8472 87.3396 12.1374 87.1655 12.3986C86.9624 12.6597 87.4267 12.9209 87.6298 12.6597C87.8039 12.3986 88.007 12.1084 88.1811 11.8473C88.3842 11.5571 87.92 11.2959 87.7169 11.5861Z" fill="black"/>
<path d="M85.9753 14.4587C85.8012 14.3137 85.5691 14.5748 85.7432 14.7199C86.1204 15.0391 85.7432 15.5033 85.366 15.5904C84.9888 15.6774 84.5825 15.5324 84.2343 15.3873C84.0312 15.3002 83.8571 15.6194 84.0892 15.7065C84.6696 15.9386 85.395 16.1707 85.9463 15.7065C86.3235 15.3873 86.3525 14.7779 85.9753 14.4587Z" fill="#952C28"/>
<path d="M83.9737 9.17771C83.6255 9.09066 83.2483 9.00361 82.9001 8.91656C82.4648 8.80049 82.3197 9.49689 82.755 9.61296C83.1032 9.70001 83.4804 9.78706 83.8286 9.87411C84.2929 9.96116 84.438 9.26476 83.9737 9.17771Z" fill="#D24A43"/>
<path d="M88.7326 9.90315C88.5295 9.8161 88.3264 9.72905 88.0942 9.61298C87.688 9.43888 87.3688 10.0773 87.775 10.2514C87.9782 10.3384 88.1813 10.4255 88.4134 10.5415C88.8487 10.7156 89.1678 10.0772 88.7326 9.90315Z" fill="#D24A43"/>
<path d="M82.1161 18.9563C81.6808 18.8403 81.3906 18.463 81.3616 18.0278C81.3326 17.7957 80.9844 17.8247 81.0134 18.0568C81.0715 18.6662 81.4777 19.1304 82.058 19.3045C82.2902 19.3626 82.3482 19.0144 82.1161 18.9563Z" fill="#952C28"/>
<path d="M73.4096 11.6442C73.3516 11.5282 73.2355 11.4701 73.1485 11.4701C73.1775 11.296 73.0614 11.0929 72.8002 11.0929C70.2758 11.209 68.1576 12.7179 67.2291 15.0102C62.4123 10.0193 54.1716 10.0773 49.674 15.5615C49.0356 16.3449 48.6874 16.403 47.7008 16.49C47.0335 16.5481 46.3661 16.7512 45.7277 17.0123C44.451 17.5636 43.3483 18.5212 42.6519 19.7399C41.2591 22.2063 41.8685 25.2821 43.7256 27.2842C41.1721 28.1837 39.0539 30.331 39.3441 33.2326C39.6923 36.6276 42.8841 37.6141 45.8148 37.4691C49.1517 37.295 52.8948 36.6566 55.6224 34.5674C58.0018 32.7393 59.3946 29.6346 58.5241 26.7039C64.7046 29.7216 67.7223 20.9006 68.1286 20.1171C72.6262 19.7689 71.8717 16.3159 72.4521 15.4454C73.7578 13.6754 74.3671 13.5884 73.4096 11.6442Z" fill="#D24A43"/>
<path d="M71.9899 9.70003C71.3516 11.441 72.8604 13.9945 75.4139 14.1106C76.7487 12.6017 78.1124 11.1509 79.5052 9.70003C79.012 8.62641 77.358 7.11755 75.7331 7.0305C73.905 6.94345 72.6573 7.81395 71.9899 9.70003Z" fill="#FFA79B"/>
<path d="M75.7615 9.93217C76.0226 10.5705 76.2838 11.2089 76.5449 11.8763C76.632 12.0794 76.3128 12.1955 76.1967 11.9924C76.1677 11.9633 76.1677 11.9053 76.1387 11.8763C76.1387 11.8473 76.1387 11.8473 76.1387 11.8182C75.9065 11.2379 75.6454 10.6576 75.4133 10.0482C75.3552 9.8161 75.6744 9.70003 75.7615 9.93217Z" fill="#952C28"/>
</svg>
