<svg width="666" height="436" viewBox="0 0 666 436" fill="none" xmlns="http://www.w3.org/2000/svg">
<path d="M504.805 66.582H433.355V124.621H504.805V66.582Z" fill="#2E3135"/>
<path d="M457.045 94.7419C454.981 111.133 452.918 127.486 450.893 143.878C450.817 144.451 451.734 144.451 451.772 143.878C453.835 127.486 455.898 111.133 457.923 94.7419C458 94.1687 457.083 94.1687 457.045 94.7419Z" fill="#BCD7FD"/>
<path d="M475.614 77.3188H442.869V81.7892H475.614V77.3188Z" fill="white"/>
<path d="M499.494 89.8125H481.574V76.8599H499.494V89.8125ZM482.453 88.9337H498.615V77.7769H482.453V88.9337Z" fill="white"/>
<path d="M475.614 85.3428H442.869V89.8132H475.614V85.3428Z" fill="white"/>
<path d="M473.818 93.8242H443.29C442.716 93.8242 442.716 94.703 443.29 94.703H473.78C474.391 94.7412 474.391 93.8242 473.818 93.8242Z" fill="white"/>
<path d="M461.668 105.44H443.29C442.716 105.44 442.716 106.319 443.29 106.319H461.668C462.241 106.357 462.241 105.44 461.668 105.44Z" fill="#EBF4FF"/>
<g filter="url(#filter0_d)">
<path d="M155.008 304.669V226.806C155.008 211.87 142.9 199.762 127.963 199.762C113.027 199.762 100.919 211.87 100.919 226.806V304.669C100.919 319.605 113.027 331.714 127.963 331.714C142.9 331.714 155.008 319.605 155.008 304.669Z" fill="#F5F5FB"/>
<path d="M223.493 304.669V249.881C223.493 234.945 211.385 222.837 196.448 222.837C181.512 222.837 169.404 234.945 169.404 249.881V304.669C169.404 319.605 181.512 331.714 196.448 331.714C211.385 331.714 223.493 319.605 223.493 304.669Z" fill="#F5F5FB"/>
<path d="M292.019 304.71V155.442C292.019 140.506 279.911 128.397 264.975 128.397C250.038 128.397 237.93 140.506 237.93 155.442V304.71C237.93 319.646 250.038 331.755 264.975 331.755C279.911 331.755 292.019 319.647 292.019 304.71Z" fill="#F5F5FB"/>
<path d="M360.504 304.669V226.806C360.504 211.87 348.396 199.762 333.46 199.762C318.523 199.762 306.415 211.87 306.415 226.806V304.669C306.415 319.605 318.523 331.714 333.46 331.714C348.396 331.714 360.504 319.605 360.504 304.669Z" fill="#F5F5FB"/>
<path d="M428.989 304.669V194.352C428.989 179.416 416.881 167.308 401.945 167.308C387.008 167.308 374.9 179.416 374.9 194.352V304.669C374.9 319.605 387.008 331.713 401.945 331.713C416.881 331.713 428.989 319.605 428.989 304.669Z" fill="#F5F5FB"/>
<path d="M497.515 304.669V226.806C497.515 211.87 485.407 199.762 470.471 199.762C455.534 199.762 443.426 211.87 443.426 226.806V304.669C443.426 319.605 455.534 331.714 470.471 331.714C485.407 331.714 497.515 319.605 497.515 304.669Z" fill="#F5F5FB"/>
<path d="M566 304.67V254.201C566 239.264 553.892 227.156 538.956 227.156C524.019 227.156 511.911 239.264 511.911 254.201V304.67C511.911 319.606 524.019 331.714 538.956 331.714C553.892 331.714 566 319.606 566 304.67Z" fill="#F5F5FB"/>
</g>
<path d="M458.955 245.474C443.404 204.018 451.886 158.435 439.43 116.329C434.425 99.403 425.637 83.1644 412.302 71.3962C400.076 60.6214 384.372 54.6227 368.019 56.3039C352.774 57.8704 338.216 65.9706 331.301 80.0313C322.818 97.3015 325.913 117.361 320.411 135.434C317.775 144.069 313.152 152.36 305.357 157.327C297.066 162.6 286.75 163.211 277.274 161.568C256.909 157.976 240.708 143.763 221.337 137.344C202.003 130.963 180.645 132.262 161.541 138.834C143.43 145.062 127.191 156.028 113.283 169.095C109.768 172.419 106.368 175.858 103.082 179.45C102.7 179.87 103.311 180.519 103.731 180.099C130.63 150.717 169.259 127.906 210.447 135.51C220.916 137.459 230.507 141.7 239.868 146.667C248.465 151.214 256.947 156.219 266.155 159.543C281.935 165.198 301.651 165.58 313.19 151.557C324.385 137.955 324.117 119.195 326.181 102.651C327.403 92.9075 329.619 82.8969 335.465 74.7585C340.165 68.2249 346.966 63.4106 354.417 60.4686C369.853 54.4699 387.391 56.3039 401.566 64.7097C416.926 73.8033 427.93 89.0485 434.616 105.363C450.969 145.177 443.213 189.689 453.453 230.84C454.714 235.883 456.242 240.889 458.076 245.741C458.305 246.238 459.146 246.009 458.955 245.474Z" fill="#D24A43"/>
<path d="M109.08 178.265C109.119 181.857 106.597 183.805 103.54 183.805C100.484 183.805 98 181.322 98 178.265C98 175.208 99.8722 172.61 103.464 172.496C106.52 172.381 109.042 175.208 109.08 178.265Z" fill="#D24A43"/>
<path d="M253.088 151.787C253.126 154.614 251.139 156.142 248.732 156.142C246.325 156.142 244.376 154.194 244.376 151.787C244.376 149.379 245.867 147.316 248.694 147.24C251.101 147.163 253.05 149.379 253.088 151.787Z" fill="#D24A43"/>
<path d="M451.237 186.594C451.275 188.925 449.632 190.148 447.683 190.148C445.697 190.148 444.13 188.543 444.13 186.594C444.13 184.607 445.353 182.964 447.645 182.888C449.594 182.812 451.199 184.646 451.237 186.594Z" fill="#D24A43"/>
<path d="M138.234 337.365C136.17 336.295 142.093 322.12 147.518 308.251C140.832 307.83 134.107 307.677 127.459 307.028C124.326 323.648 121.193 344.663 121.193 347.147C121.193 347.147 143.545 340.078 138.234 337.365Z" fill="#FFA79B"/>
<path d="M125.778 311.575C129.904 311.498 147.136 312.148 149.429 312.224C151.148 305.117 153.746 292.203 154.816 286.204C156.765 275.047 166.546 194.848 167.96 184.532H134.184C133.878 186.328 133.496 188.009 133.343 189.652C133.037 192.785 132.808 195.803 132.579 198.745C130.439 226.141 130.554 247.499 131.624 288.573C130.248 292.471 127.573 301.641 125.778 311.575Z" fill="#FF808B"/>
<path d="M138.234 337.365C138.195 337.327 138.119 337.289 138.081 337.25C136.247 338.091 134.26 338.397 132.082 338.167C128.834 337.824 125.701 336.868 122.454 337.098C121.689 342.37 121.193 346.191 121.193 347.146H145.799C146.448 340.384 143.545 340.078 138.234 337.365Z" fill="#2252B2"/>
<path d="M193.483 336.525C191.458 334.653 192.681 321.967 193.789 308.403C187.217 308.633 180.683 308.747 174.149 308.518C175.028 325.33 177.206 347.185 177.206 347.185H208.422C208.957 337.174 199.061 341.683 193.483 336.525Z" fill="#FFA79B"/>
<path d="M172.048 312.836C179.804 313.065 187.905 312.95 194.629 313.065C195.279 299.31 195.202 291.859 194.858 283.797C193.75 258.885 187.675 220.868 183.931 198.172C183.243 194.007 182.632 190.339 182.135 187.397L147.327 182.43C146.869 192.594 173.997 291.974 173.997 291.974C173.538 295.986 172.468 304.239 172.048 312.836Z" fill="#FF808B"/>
<path d="M193.827 336.831C191.534 337.48 189.204 337.9 186.796 338.015C183.205 338.206 179.728 337.289 176.213 336.983C176.748 343.02 177.168 347.147 177.168 347.147H208.384C208.957 337.365 199.482 341.492 193.827 336.831Z" fill="#2252B2"/>
<path d="M159.477 238.559C158.56 234.241 157.643 229.885 156.726 225.568C156.688 225.415 156.65 225.262 156.612 225.109C156.765 225.109 156.917 225.148 157.07 225.186C157.109 225.339 157.147 225.491 157.147 225.644C158.064 229.924 158.943 234.203 159.86 238.482C159.974 238.712 159.554 238.826 159.477 238.559Z" fill="black"/>
<path d="M157.223 225.605C157.07 225.567 156.918 225.567 156.765 225.529C152.906 225.032 149.008 224.574 145.149 224.077C144.882 224.039 144.882 223.58 145.149 223.618C148.97 224.077 152.829 224.574 156.65 225.032C156.803 225.032 156.956 225.07 157.109 225.109C157.147 225.3 157.185 225.452 157.223 225.605Z" fill="black"/>
<path d="M170.176 127.181C169.908 127.448 167.463 140.63 167.463 140.63L156.574 135.549L162.916 124.354L170.176 127.181Z" fill="#FFA79B"/>
<path d="M169.259 131.193C169.679 129.015 170.061 127.296 170.176 127.219L167.501 126.188C167.387 128.022 167.96 130.047 169.259 131.193Z" fill="black"/>
<path d="M159.554 112.433C160.7 109.567 166.164 108.23 169.794 109.109C171.36 109.491 172.163 108.421 172.507 109.72C173.347 112.891 176.022 123.246 174.837 125.615C172.774 129.78 167.196 128.786 164.406 125.882C161.541 122.94 157.949 116.521 159.554 112.433Z" fill="#FFA79B"/>
<path d="M172.086 107.083C170.481 106.586 168.074 107.847 167.043 108.841C163.871 108.917 160.433 110.216 159.554 112.432C158.484 115.183 151.339 120.762 153.249 125.92C154.434 129.129 162.572 132.644 165.629 130.314C169.259 127.563 167.807 118.546 168.227 117.858C169.679 115.986 169.144 113.54 168.265 111.783C169.335 112.241 172.315 111.171 172.889 109.872C173.615 108 172.583 107.236 172.086 107.083Z" fill="#697CCC"/>
<path d="M163.528 119.998C163.757 118.24 166.087 116.788 168.265 117.858C168.724 119.692 169.259 121.526 169.832 123.36C168.953 124.048 166.928 124.544 165.553 123.895C163.948 123.169 163.298 121.87 163.528 119.998Z" fill="#FFA79B"/>
<path d="M175.143 117.132C174.914 116.444 174.111 116.139 173.462 116.444C173.232 116.559 173.194 116.864 173.309 117.017C173.309 117.056 173.347 117.055 173.347 117.055C173.271 117.094 173.232 117.132 173.156 117.17C172.736 117.514 173.347 118.125 173.767 117.781C173.767 117.781 173.806 117.781 173.767 117.82C173.424 118.049 173.538 118.622 173.997 118.622C174.723 118.622 175.372 117.858 175.143 117.132Z" fill="#FFA79B"/>
<path d="M171.972 112.127C171.628 112.356 171.284 112.585 170.978 112.776C170.481 113.082 170.94 113.846 171.437 113.54C171.781 113.311 172.124 113.082 172.43 112.891C172.927 112.585 172.468 111.783 171.972 112.127Z" fill="#697CCC"/>
<path d="M172.621 114.84C172.583 115.26 172.545 115.642 172.507 116.062C172.468 116.33 172.927 116.33 172.965 116.062C173.003 115.642 173.041 115.26 173.08 114.84C173.08 114.534 172.659 114.534 172.621 114.84Z" fill="black"/>
<path d="M173.997 122.443C173.462 122.443 172.965 122.099 172.774 121.602C172.659 121.335 172.239 121.45 172.354 121.717C172.621 122.405 173.271 122.902 173.997 122.902C174.264 122.902 174.264 122.443 173.997 122.443Z" fill="#D24A43"/>
<path d="M168.265 120.915L166.928 119.807C166.699 119.616 166.393 119.921 166.622 120.112C167.081 120.494 167.501 120.838 167.96 121.22C168.151 121.411 168.456 121.067 168.265 120.915Z" fill="#D24A43"/>
<path d="M183.931 198.21C184.733 188.238 185.459 173.26 186.032 161.53C187.179 136.847 178.276 135.319 162.228 135.434C139.571 135.586 138.425 134.86 135.826 154.347C133.992 168.293 132.884 189.078 132.541 198.707C135.903 198.936 175.296 198.057 183.931 198.21Z" fill="#BCD7FD"/>
<path d="M171.781 167.681C170.099 171.617 170.329 176.354 171.819 180.519C173.156 184.302 175.64 187.091 178.849 188.199C177.168 183.347 175.143 178.609 173.653 173.756C173.003 171.769 172.392 169.744 171.781 167.681Z" fill="black"/>
<path d="M180.225 148.004L192.375 145.444C192.375 145.444 202.08 164.778 201.545 164.969C200.972 165.198 189.93 168.331 189.586 168.102C189.28 167.873 180.225 148.004 180.225 148.004Z" fill="#BCD7FD"/>
<path d="M192.413 145.406C196.769 144.184 204.143 142.502 204.143 142.502C204.143 142.502 206.283 137.191 208.957 133.447C209.416 132.797 213.237 130.963 213.886 130.696C220.458 128.327 216.102 147.049 216.102 147.049C216.102 147.049 199.367 161.683 199.138 161.339C198.87 161.033 192.413 145.406 192.413 145.406Z" fill="#FFA79B"/>
<path d="M208.231 140.286C208.193 138.72 207.926 137.306 207.353 135.854C207.735 135.052 208.04 134.211 208.231 133.294C208.346 132.759 207.735 132.186 207.238 132.568C206.283 133.294 205.557 134.135 205.098 135.128C205.06 135.166 205.022 135.204 205.022 135.281C203.876 137.65 203.379 140.095 203.532 142.77C203.57 143.152 203.799 143.343 204.105 143.381C204.372 143.572 204.716 143.572 204.945 143.381C205.175 143.801 205.824 143.992 206.092 143.457C206.245 143.19 206.359 142.961 206.474 142.693C206.627 142.617 206.741 142.502 206.818 142.273C206.971 141.891 207.123 141.432 207.238 140.936C207.658 141.05 208.231 140.783 208.231 140.286Z" fill="#FFA79B"/>
<path d="M207.314 136.694C207.2 136.427 206.818 136.656 206.932 136.924C207.467 138.108 207.735 139.369 207.773 140.668C207.773 140.936 208.231 140.974 208.231 140.668C208.155 139.293 207.849 137.955 207.314 136.694Z" fill="#D24A43"/>
<path d="M225.234 134.631C225.311 140.209 221.375 143.266 216.599 143.266C211.823 143.266 207.964 139.407 207.964 134.631C207.964 129.855 210.906 125.805 216.484 125.614C221.26 125.461 225.158 129.855 225.234 134.631Z" fill="#D24A43"/>
<path d="M213.39 113.807C213.275 113.234 212.434 113.502 212.511 114.037C212.969 116.253 213.39 118.507 213.848 120.723C213.963 121.296 214.803 121.067 214.727 120.494C214.307 118.278 213.848 116.062 213.39 113.807Z" fill="#D24A43"/>
<path d="M228.1 117.666C226.533 119.424 224.928 121.22 223.362 122.977C222.98 123.398 223.591 124.047 224.011 123.627L228.749 118.316C229.093 117.896 228.482 117.246 228.1 117.666Z" fill="#D24A43"/>
<path d="M205.136 129.397C204.258 128.862 203.341 128.365 202.462 127.83C201.965 127.524 201.507 128.327 202.003 128.594C202.882 129.129 203.799 129.626 204.678 130.161C205.175 130.466 205.633 129.702 205.136 129.397Z" fill="#D24A43"/>
<path d="M189.089 193.854C192.719 189.957 196.31 186.021 199.558 181.818C199.443 180.481 199.214 179.564 199.214 179.564C199.214 179.564 194.973 166.115 189.051 148.73C183.472 132.377 180.301 135.09 162.228 135.395C162.228 135.395 162.152 136.503 162.076 138.414C173.538 155.569 182.746 174.215 189.089 193.854Z" fill="#BCD7FD"/>
<path d="M224.47 136.197C224.508 135.166 223.668 134.44 223.171 134.822C223.285 134.02 221.757 132.912 221.299 133.714C221.146 133.064 220.229 132.529 219.235 133.829C218.662 134.554 218.166 136.618 217.898 137.802C217.669 138.146 215.338 140.095 214.65 140.706C213.81 140.859 213.848 136.197 213.886 135.28C213.963 133.79 212.702 132.835 212.32 133.714C211.632 135.242 210.83 137.649 210.715 139.331C210.639 140.095 210.256 143.419 208.193 145.941C205.633 148.004 202.691 150.64 199.787 153.353C200.169 161.606 201.316 169.744 203.15 177.768C209.836 168.407 216.179 157.556 219.044 151.443C219.312 151.175 222.789 146.246 222.903 146.132C224.394 144.068 225.654 140.897 225.807 138.108C225.693 137 225.158 135.815 224.47 136.197Z" fill="#FFA79B"/>
<path d="M219.083 140.629C218.892 140.82 218.548 140.553 218.739 140.362C220.343 138.719 221.146 136.579 220.993 134.325C220.955 134.058 221.413 133.981 221.451 134.287C221.566 136.618 220.764 138.91 219.083 140.629Z" fill="#D24A43"/>
<path d="M220.993 141.47C222.254 139.636 222.865 137.573 222.751 135.395C222.751 135.089 223.171 135.128 223.209 135.433C223.286 137.726 222.636 139.866 221.375 141.738C221.222 141.967 220.84 141.7 220.993 141.47Z" fill="#D24A43"/>
<path d="M222.483 142.502C223.553 140.706 224.203 138.796 224.394 136.695C224.432 136.389 224.852 136.465 224.852 136.771C224.661 138.949 224.011 140.936 222.865 142.77C222.674 143.037 222.33 142.77 222.483 142.502Z" fill="#D24A43"/>
<path d="M202.386 150.908C197.418 155.416 192.26 160.498 189.165 163.44C182.861 169.477 183.396 194.618 183.396 194.618C188.86 198.133 195.89 194.16 214.077 166.917C210.218 162.829 205.519 155.569 202.386 150.908Z" fill="#BCD7FD"/>
<path d="M210.562 141.852C210.524 141.585 210.104 141.547 210.104 141.852C210.256 143.495 208.499 144.871 207.505 145.979C206.436 147.163 205.404 148.348 204.334 149.532C204.143 149.762 204.449 150.067 204.64 149.838C205.977 148.31 207.314 146.819 208.652 145.291C209.569 144.336 210.677 143.304 210.562 141.852Z" fill="#D24A43"/>
<path d="M193.521 161.453C193.33 160.995 193.139 160.498 192.948 160.039C192.872 159.887 192.833 159.734 192.757 159.581C191.229 155.76 189.7 151.939 188.172 148.118C188.057 147.851 188.516 147.736 188.592 148.004C190.082 151.748 191.573 155.531 193.101 159.275C193.177 159.428 193.215 159.581 193.292 159.734C193.521 160.269 193.712 160.804 193.941 161.377C194.056 161.606 193.636 161.721 193.521 161.453Z" fill="white"/>
<path d="M196.158 157.059C195.202 157.938 194.247 158.817 193.292 159.695L192.948 160.001C192.872 159.848 192.833 159.695 192.757 159.543C192.872 159.428 192.986 159.352 193.101 159.237C194.018 158.396 194.935 157.556 195.814 156.715C196.081 156.562 196.387 156.868 196.158 157.059Z" fill="white"/>
<path d="M463.54 239.551C463.578 244.289 460.254 246.887 456.204 246.887C452.154 246.887 448.868 243.602 448.868 239.551C448.868 235.501 451.351 232.063 456.089 231.91C460.178 231.795 463.502 235.54 463.54 239.551Z" fill="#D24A43"/>
<path d="M450.893 249.562C449.709 251.816 448.524 254.032 447.378 256.287C447.11 256.783 447.875 257.242 448.142 256.745C449.326 254.491 450.511 252.275 451.657 250.02C451.925 249.485 451.16 249.065 450.893 249.562Z" fill="#D24A43"/>
<path d="M461.171 254.988C460.636 253.345 460.101 251.702 459.604 250.097C459.413 249.562 458.573 249.791 458.726 250.326C459.261 251.969 459.796 253.612 460.292 255.217C460.483 255.79 461.362 255.561 461.171 254.988Z" fill="#D24A43"/>
<path d="M448.333 230.343L444.78 224.077C444.512 223.581 443.71 224.039 444.015 224.536L447.569 230.802C447.874 231.26 448.639 230.84 448.333 230.343Z" fill="#D24A43"/>
<path d="M325.073 236.762H200.475V308.211H325.073V236.762Z" fill="#FFCE76"/>
<path d="M257.176 275.582C257.1 275.582 257.023 275.544 256.947 275.506L211.746 247.384C211.555 247.27 211.479 246.964 211.594 246.773C211.708 246.582 212.014 246.506 212.205 246.62L257.406 274.742C257.597 274.856 257.673 275.162 257.558 275.353C257.444 275.506 257.329 275.582 257.176 275.582Z" fill="white"/>
<path d="M211.938 275.582C211.785 275.582 211.632 275.505 211.555 275.352C211.441 275.161 211.479 274.856 211.708 274.741L256.909 246.62C257.1 246.505 257.406 246.543 257.52 246.773C257.635 246.964 257.597 247.269 257.367 247.384L212.167 275.505C212.129 275.582 212.014 275.582 211.938 275.582Z" fill="white"/>
<path d="M264.092 283.644H210.065V287.656H264.092V283.644Z" fill="white"/>
<path d="M260.959 290.33H210.256C209.683 290.33 209.683 291.209 210.256 291.209H260.959C261.532 291.209 261.532 290.33 260.959 290.33Z" fill="white"/>
<path d="M260.959 293.922H210.256C209.683 293.922 209.683 294.801 210.256 294.801H260.959C261.532 294.801 261.532 293.922 260.959 293.922Z" fill="white"/>
<path d="M318.119 243.449H269.67V295.68H318.119V243.449Z" fill="white"/>
<path d="M309.445 257.319C306.58 262.591 303.714 267.902 300.849 273.175C298.365 270.042 295.92 266.947 293.436 263.814C293.245 263.585 292.863 263.699 292.748 263.89L276.204 288.306C275.898 288.764 276.663 289.223 276.968 288.764C282.356 280.817 287.743 272.831 293.13 264.884C295.614 268.017 298.098 271.15 300.581 274.283C300.772 274.512 301.154 274.436 301.269 274.207C304.249 268.743 307.229 263.241 310.21 257.777C310.477 257.242 309.713 256.784 309.445 257.319Z" fill="#D24A43"/>
<path d="M277.045 289.91C278.163 289.91 279.07 289.003 279.07 287.885C279.07 286.767 278.163 285.86 277.045 285.86C275.926 285.86 275.02 286.767 275.02 287.885C275.02 289.003 275.926 289.91 277.045 289.91Z" fill="#D24A43"/>
<path d="M293.169 266.908C294.287 266.908 295.194 266.002 295.194 264.883C295.194 263.765 294.287 262.858 293.169 262.858C292.05 262.858 291.144 263.765 291.144 264.883C291.144 266.002 292.05 266.908 293.169 266.908Z" fill="#D24A43"/>
<path d="M300.581 276.308C301.699 276.308 302.606 275.401 302.606 274.283C302.606 273.164 301.699 272.258 300.581 272.258C299.463 272.258 298.556 273.164 298.556 274.283C298.556 275.401 299.463 276.308 300.581 276.308Z" fill="#D24A43"/>
<path d="M309.445 259.343C310.564 259.343 311.471 258.436 311.471 257.318C311.471 256.2 310.564 255.293 309.445 255.293C308.327 255.293 307.42 256.2 307.42 257.318C307.42 258.436 308.327 259.343 309.445 259.343Z" fill="#D24A43"/>
<path d="M331.224 245.971C330.995 245.971 330.766 245.779 330.766 245.512V230.802H316.629C316.399 230.802 316.17 230.611 316.17 230.343C316.17 230.114 316.361 229.885 316.629 229.885H331.224C331.454 229.885 331.683 230.076 331.683 230.343V245.512C331.683 245.779 331.454 245.971 331.224 245.971Z" fill="black"/>
<path d="M193.98 245.664C193.75 245.664 193.521 245.473 193.521 245.206V230.61C193.521 230.381 193.712 230.152 193.98 230.152H209.148C209.378 230.152 209.607 230.343 209.607 230.61C209.607 230.84 209.416 231.069 209.148 231.069H194.4V245.206C194.4 245.473 194.209 245.664 193.98 245.664Z" fill="black"/>
<path d="M330.919 315.205H315.75C315.521 315.205 315.291 315.013 315.291 314.746C315.291 314.517 315.482 314.288 315.75 314.288H330.498V300.15C330.498 299.921 330.689 299.692 330.957 299.692C331.186 299.692 331.415 299.883 331.415 300.15V314.746C331.377 314.975 331.186 315.205 330.919 315.205Z" fill="black"/>
<path d="M243.689 166.191C238.531 190.301 233.372 214.372 228.214 238.482C228.52 238.52 228.826 238.52 229.093 238.558C234.251 214.487 239.409 190.415 244.568 166.344C244.72 165.771 243.842 165.656 243.689 166.191Z" fill="#FECA55"/>
<path d="M411.576 17.2168H397.745V31.0482H411.576V17.2168Z" fill="white"/>
<path d="M142.207 105.937C141.978 105.937 141.749 105.746 141.749 105.479V14.3897C141.749 14.1604 141.94 13.9312 142.207 13.9312H416.353C416.582 13.9312 416.811 14.1222 416.811 14.3897V60.6218C416.811 60.8511 416.62 61.0803 416.353 61.0803C416.123 61.0803 415.894 60.8893 415.894 60.6218V14.8099H142.666V105.479C142.666 105.708 142.475 105.937 142.207 105.937Z" fill="black"/>
<path d="M409.169 27.9918L400.84 19.6624C400.42 19.2421 399.808 19.8917 400.19 20.3119L408.52 28.6414C408.94 29.0235 409.59 28.4121 409.169 27.9918Z" fill="black"/>
<path d="M400.84 28.641L409.169 20.3116C409.59 19.8913 408.94 19.28 408.52 19.6621L400.19 27.9915C399.808 28.4118 400.42 29.0231 400.84 28.641Z" fill="black"/>
<path d="M416.353 36.6265H142.207V37.6581H416.353V36.6265Z" fill="black"/>
<path d="M325.073 48.7769H250.069C249.496 48.7769 249.496 49.6556 250.069 49.6556H325.073C325.646 49.6556 325.646 48.7769 325.073 48.7769Z" fill="black"/>
<path d="M325.073 60.8125H250.069C249.496 60.8125 249.496 61.6913 250.069 61.6913H325.073C325.646 61.6913 325.646 60.8125 325.073 60.8125Z" fill="black"/>
<path d="M325.073 76.2104H250.069C249.496 76.2104 249.496 77.0892 250.069 77.0892H325.073C325.646 77.1275 325.646 76.2104 325.073 76.2104Z" fill="black"/>
<path d="M297.792 92.2964H249.917C249.535 92.2964 249.535 93.1752 249.917 93.1752H297.792C298.136 93.1752 298.136 92.2964 297.792 92.2964Z" fill="black"/>
<path d="M512.523 60.9269C511.033 62.1114 509.543 63.2959 508.053 64.5185C507.594 64.8624 508.244 65.512 508.702 65.1681C510.192 63.9836 511.683 62.7992 513.173 61.5765C513.593 61.1944 512.943 60.5831 512.523 60.9269Z" fill="black"/>
<path d="M430.91 61.5381C428.809 58.5578 426.707 55.6158 424.606 52.6355C424.262 52.177 423.498 52.5973 423.841 53.094C425.943 56.0743 428.044 59.0163 430.146 61.9966C430.49 62.4551 431.254 61.9966 430.91 61.5381Z" fill="black"/>
<path d="M433.279 59.2079C432.094 57.4121 430.91 55.6163 429.687 53.8587C429.382 53.4002 428.579 53.8205 428.923 54.3172C430.108 56.113 431.292 57.9088 432.515 59.6664C432.82 60.1631 433.585 59.7046 433.279 59.2079Z" fill="black"/>
<path d="M185.459 46.1785C183.243 49.9993 178.582 50.6489 174.608 49.6554C170.52 48.6238 167.004 46.2167 163.069 44.803C157.873 42.9308 150.46 43.3511 148.703 49.6937C148.55 50.2668 149.429 50.496 149.581 49.9229C150.842 45.3379 155.962 44.0006 160.127 44.8412C164.101 45.6436 167.578 47.9361 171.284 49.4262C176.289 51.4895 183.128 52.0244 186.223 46.5988C186.529 46.1403 185.765 45.6818 185.459 46.1785Z" fill="black"/>
<path d="M149.185 54.7129L149.186 54.7131C149.185 54.7162 149.185 54.7176 149.185 54.7176C149.185 54.7176 149.185 54.7173 149.185 54.7167C149.185 54.717 149.185 54.7174 149.184 54.7178L148.703 54.5843M149.185 54.7129L148.703 54.5843M149.185 54.7129C149.185 54.7114 149.185 54.7097 149.185 54.7077C149.184 54.7066 149.184 54.7055 149.184 54.7043C149.184 54.7037 149.184 54.703 149.184 54.7024C149.181 54.6876 149.175 54.6731 149.168 54.6615C149.162 54.653 149.157 54.6483 149.154 54.6459L149.185 54.7129ZM148.703 54.5843C148.55 55.1574 149.429 55.3867 149.581 54.8135M148.703 54.5843C150.46 48.2417 157.873 47.8214 163.069 49.6936C164.722 50.2873 166.301 51.0563 167.879 51.825C170.058 52.8866 172.237 53.9477 174.608 54.5461L149.581 54.8135M149.581 54.8135C150.842 50.2285 155.962 48.8912 160.127 49.7318C162.728 50.257 165.116 51.4207 167.495 52.5799C168.751 53.1916 170.004 53.8021 171.284 54.3168C176.289 56.3801 183.128 56.915 186.223 51.4894L149.581 54.8135Z" fill="black" stroke="black"/>
<path d="M128.215 109.803C128.215 109.803 128.216 109.803 128.216 109.804L128.215 109.803Z" fill="#EBF4FF" stroke="black"/>
<mask id="path-91-inside-1" fill="white">
<path d="M136.323 7.4348C134.68 5.06588 133.037 2.65875 131.394 0.289828C131.089 -0.168673 130.286 0.25162 130.63 0.748329C132.273 3.11725 133.916 5.52438 135.559 7.8933C135.865 8.3518 136.629 7.8933 136.323 7.4348Z"/>
</mask>
<path d="M136.323 7.4348C134.68 5.06588 133.037 2.65875 131.394 0.289828C131.089 -0.168673 130.286 0.25162 130.63 0.748329C132.273 3.11725 133.916 5.52438 135.559 7.8933C135.865 8.3518 136.629 7.8933 136.323 7.4348Z" fill="#EBF4FF"/>
<path d="M136.323 7.4348L137.155 6.8801L137.15 6.87246L137.145 6.8649L136.323 7.4348ZM131.394 0.289828L130.562 0.844528L130.567 0.852175L130.572 0.859727L131.394 0.289828ZM130.63 0.748329L129.808 1.31754L129.808 1.31823L130.63 0.748329ZM135.559 7.8933L136.391 7.3386L136.386 7.33096L136.381 7.3234L135.559 7.8933ZM137.145 6.8649C136.325 5.68225 135.504 4.48978 134.682 3.29551C133.861 2.10176 133.039 0.906193 132.216 -0.280071L130.572 0.859727C131.393 2.04239 132.213 3.23485 133.035 4.42912C133.856 5.62287 134.679 6.81844 135.501 8.0047L137.145 6.8649ZM132.226 -0.264872C131.703 -1.04936 130.793 -0.999243 130.279 -0.711268C130.007 -0.558304 129.729 -0.288553 129.606 0.106615C129.473 0.535495 129.568 0.970779 129.808 1.31754L131.452 0.17912C131.52 0.277525 131.586 0.474007 131.517 0.69871C131.457 0.889702 131.335 0.989903 131.258 1.03302C131.179 1.07722 131.073 1.10616 130.946 1.08662C130.797 1.06384 130.65 0.97701 130.562 0.844528L132.226 -0.264872ZM129.808 1.31823C130.629 2.50089 131.449 3.69335 132.271 4.88763C133.092 6.08137 133.914 7.27694 134.737 8.4632L136.381 7.3234C135.56 6.14075 134.74 4.94828 133.918 3.75401C133.097 2.56026 132.274 1.36469 131.452 0.178431L129.808 1.31823ZM134.727 8.448C135.265 9.25471 136.187 9.16393 136.685 8.86542C136.945 8.70921 137.202 8.44784 137.324 8.08058C137.458 7.67947 137.398 7.24434 137.155 6.8801L135.491 7.9895C135.401 7.85452 135.36 7.64864 135.427 7.44812C135.482 7.28145 135.586 7.19203 135.656 7.15044C135.727 7.10779 135.837 7.06934 135.98 7.08797C136.148 7.10998 136.303 7.20659 136.391 7.3386L134.727 8.448Z" fill="black" mask="url(#path-91-inside-1)"/>
<mask id="path-93-inside-2" fill="white">
<path d="M140.373 6.48011C139.036 4.37865 137.699 2.3154 136.361 0.213932C136.056 -0.282777 135.291 0.175724 135.597 0.672433C136.934 2.7739 138.272 4.83715 139.609 6.93861C139.915 7.43532 140.679 6.97682 140.373 6.48011Z"/>
</mask>
<path d="M140.373 6.48011C139.036 4.37865 137.699 2.3154 136.361 0.213932C136.056 -0.282777 135.291 0.175724 135.597 0.672433C136.934 2.7739 138.272 4.83715 139.609 6.93861C139.915 7.43532 140.679 6.97682 140.373 6.48011Z" fill="#EBF4FF"/>
<path d="M140.373 6.48011L141.225 5.95602L141.221 5.9496L141.217 5.94324L140.373 6.48011ZM136.361 0.213932L135.51 0.738029L135.514 0.744449L135.518 0.750807L136.361 0.213932ZM135.597 0.672433L134.745 1.19653L134.749 1.20295L134.753 1.20931L135.597 0.672433ZM139.609 6.93861L140.461 6.41452L140.457 6.4081L140.453 6.40174L139.609 6.93861ZM141.217 5.94324C140.547 4.89047 139.877 3.84755 139.209 2.80666C138.54 1.76519 137.872 0.725751 137.205 -0.322944L135.518 0.750807C136.188 1.80358 136.857 2.84649 137.526 3.88739C138.195 4.92885 138.862 5.96829 139.53 7.01699L141.217 5.94324ZM137.213 -0.310166C136.991 -0.670778 136.642 -0.909305 136.241 -0.979038C135.865 -1.04442 135.51 -0.951315 135.235 -0.786842C134.962 -0.622551 134.709 -0.350582 134.592 0.0181898C134.466 0.41276 134.523 0.835519 134.745 1.19653L136.449 0.148336C136.518 0.260993 136.556 0.440173 136.498 0.624597C136.447 0.783223 136.347 0.878477 136.264 0.928143C136.181 0.977991 136.055 1.01856 135.899 0.991386C135.717 0.959861 135.579 0.850287 135.51 0.738029L137.213 -0.310166ZM134.753 1.20931C135.423 2.26208 136.093 3.30499 136.762 4.34589C137.43 5.38735 138.098 6.42679 138.765 7.47549L140.453 6.40174C139.783 5.34897 139.113 4.30605 138.444 3.26516C137.776 2.22369 137.108 1.18425 136.441 0.135558L134.753 1.20931ZM138.757 7.46271C138.979 7.82332 139.328 8.06185 139.729 8.13158C140.105 8.19696 140.461 8.10386 140.735 7.93939C141.009 7.7751 141.261 7.50313 141.379 7.13436C141.504 6.73979 141.447 6.31703 141.225 5.95602L139.522 7.00421C139.452 6.89155 139.414 6.71237 139.473 6.52795C139.523 6.36932 139.623 6.27407 139.706 6.2244C139.789 6.17455 139.915 6.13399 140.072 6.16116C140.253 6.19269 140.392 6.30226 140.461 6.41452L138.757 7.46271Z" fill="black" mask="url(#path-93-inside-2)"/>
<mask id="path-95-inside-3" fill="white">
<path d="M434.807 2.23928C430.375 4.79924 425.905 7.35921 421.473 9.91917C420.976 10.2248 421.434 10.989 421.931 10.6833C426.363 8.12338 430.834 5.56341 435.266 3.00345C435.762 2.69778 435.342 1.93361 434.807 2.23928Z"/>
</mask>
<path d="M434.807 2.23928C430.375 4.79924 425.905 7.35921 421.473 9.91917C420.976 10.2248 421.434 10.989 421.931 10.6833C426.363 8.12338 430.834 5.56341 435.266 3.00345C435.762 2.69778 435.342 1.93361 434.807 2.23928Z" fill="#EBF4FF"/>
<path d="M434.807 2.23928L434.311 1.37103L434.307 1.37334L434.807 2.23928ZM421.473 9.91917L420.972 9.05324L420.96 9.06021L420.948 9.06751L421.473 9.91917ZM421.931 10.6833L421.431 9.8174L421.419 9.82438L421.407 9.83168L421.931 10.6833ZM435.266 3.00345L435.766 3.86938L435.778 3.86241L435.79 3.85511L435.266 3.00345ZM434.307 1.37334C432.092 2.65278 429.867 3.9323 427.641 5.21236C425.416 6.49226 423.189 7.77271 420.972 9.05324L421.973 10.7851C424.188 9.50567 426.413 8.22615 428.638 6.94609C430.864 5.66619 433.09 4.38574 435.307 3.10522L434.307 1.37334ZM420.948 9.06751C420.588 9.28943 420.349 9.6382 420.28 10.0392C420.214 10.4151 420.307 10.7709 420.472 11.045C420.636 11.3188 420.908 11.5715 421.277 11.6888C421.671 11.8144 422.094 11.7572 422.455 11.535L421.407 9.83168C421.52 9.76236 421.699 9.72427 421.883 9.78295C422.042 9.83343 422.137 9.93325 422.187 10.016C422.237 10.0991 422.277 10.2256 422.25 10.3819C422.218 10.5631 422.109 10.7018 421.997 10.7708L420.948 9.06751ZM422.431 11.5493C424.646 10.2698 426.871 8.99032 429.097 7.71026C431.322 6.43036 433.549 5.14991 435.766 3.86938L434.766 2.13751C432.55 3.41695 430.326 4.69647 428.1 5.97653C425.874 7.25643 423.648 8.53688 421.431 9.8174L422.431 11.5493ZM435.79 3.85511C436.576 3.37129 436.622 2.47045 436.29 1.89364C436.126 1.60766 435.849 1.34987 435.473 1.23236C435.077 1.10862 434.664 1.16927 434.311 1.37104L435.303 3.10752C435.218 3.15645 435.058 3.19801 434.876 3.14113C434.714 3.09048 434.611 2.98553 434.556 2.89059C434.502 2.79632 434.468 2.66541 434.498 2.51497C434.533 2.34406 434.637 2.21606 434.742 2.15179L435.79 3.85511Z" fill="black" mask="url(#path-95-inside-3)"/>
<path d="M481.927 38.2139C482.396 38.1071 482.881 37.9797 483.359 37.8259C482.91 37.9886 482.457 38.1137 482.019 38.1982C481.989 38.2035 481.958 38.2087 481.927 38.2139Z" fill="#EBF4FF" stroke="black"/>
<path d="M485.06 40.9263C485.511 40.8235 485.978 40.7017 486.438 40.5556C486.007 40.7102 485.572 40.8296 485.152 40.9106C485.122 40.9159 485.091 40.9211 485.06 40.9263Z" fill="#EBF4FF" stroke="black"/>
<mask id="path-99-inside-4" fill="white">
<path d="M308.987 194.58C307.841 192.02 306.694 189.498 305.548 186.938C305.319 186.403 304.555 186.862 304.784 187.397C305.93 189.957 307.076 192.478 308.223 195.038C308.452 195.573 309.254 195.115 308.987 194.58Z"/>
</mask>
<path d="M308.987 194.58C307.841 192.02 306.694 189.498 305.548 186.938C305.319 186.403 304.555 186.862 304.784 187.397C305.93 189.957 307.076 192.478 308.223 195.038C308.452 195.573 309.254 195.115 308.987 194.58Z" fill="#EBF4FF"/>
<path d="M308.987 194.58L308.074 194.988L308.083 195.008L308.092 195.027L308.987 194.58ZM305.548 186.938L304.629 187.332L304.632 187.339L304.635 187.347L305.548 186.938ZM304.784 187.397L303.865 187.791L303.868 187.798L303.871 187.805L304.784 187.397ZM308.223 195.038L309.142 194.644L309.139 194.637L309.135 194.63L308.223 195.038ZM309.9 194.171C309.326 192.89 308.752 191.618 308.179 190.348C307.606 189.077 307.033 187.808 306.461 186.529L304.635 187.347C305.209 188.628 305.783 189.9 306.356 191.17C306.929 192.441 307.502 193.71 308.074 194.988L309.9 194.171ZM306.467 186.544C306.301 186.156 305.976 185.842 305.531 185.736C305.124 185.639 304.748 185.748 304.48 185.909C303.954 186.224 303.513 186.969 303.865 187.791L305.703 187.003C305.753 187.119 305.755 187.263 305.706 187.389C305.663 187.498 305.59 187.575 305.509 187.624C305.431 187.67 305.275 187.731 305.068 187.682C304.824 187.624 304.681 187.453 304.629 187.332L306.467 186.544ZM303.871 187.805C304.445 189.087 305.019 190.358 305.592 191.629C306.165 192.899 306.738 194.169 307.31 195.447L309.135 194.63C308.562 193.348 307.988 192.077 307.415 190.806C306.842 189.536 306.269 188.266 305.697 186.988L303.871 187.805ZM307.304 195.432C307.476 195.834 307.812 196.14 308.251 196.242C308.652 196.334 309.025 196.232 309.296 196.073C309.832 195.76 310.306 194.981 309.881 194.133L308.092 195.027C308.034 194.91 308.02 194.75 308.076 194.601C308.124 194.474 308.207 194.394 308.286 194.347C308.361 194.303 308.508 194.248 308.702 194.293C308.935 194.347 309.084 194.51 309.142 194.644L307.304 195.432Z" fill="black" mask="url(#path-99-inside-4)"/>
<mask id="path-101-inside-5" fill="white">
<path d="M205.977 206.081C204.487 209.52 203.035 212.92 201.545 216.359C201.316 216.894 202.08 217.353 202.309 216.818C203.799 213.379 205.251 209.978 206.741 206.54C206.97 206.043 206.206 205.584 205.977 206.081Z"/>
</mask>
<path d="M205.977 206.081C204.487 209.52 203.035 212.92 201.545 216.359C201.316 216.894 202.08 217.353 202.309 216.818C203.799 213.379 205.251 209.978 206.741 206.54C206.97 206.043 206.206 205.584 205.977 206.081Z" fill="#EBF4FF"/>
<path d="M205.977 206.081L205.069 205.662L205.064 205.673L205.059 205.684L205.977 206.081ZM201.545 216.359L200.627 215.962L200.626 215.965L201.545 216.359ZM202.309 216.818L201.391 216.42L201.39 216.424L202.309 216.818ZM206.741 206.54L205.833 206.121L205.828 206.131L205.824 206.142L206.741 206.54ZM205.059 205.684C204.314 207.404 203.578 209.115 202.842 210.825C202.107 212.535 201.372 214.244 200.627 215.962L202.462 216.757C203.208 215.036 203.944 213.325 204.68 211.615C205.415 209.905 206.15 208.197 206.895 206.479L205.059 205.684ZM200.626 215.965C200.274 216.787 200.715 217.532 201.241 217.847C201.509 218.008 201.885 218.117 202.292 218.02C202.737 217.914 203.062 217.6 203.228 217.212L201.39 216.424C201.442 216.303 201.585 216.132 201.829 216.074C202.036 216.025 202.192 216.086 202.27 216.132C202.351 216.181 202.424 216.258 202.467 216.367C202.516 216.493 202.514 216.637 202.464 216.753L200.626 215.965ZM203.227 217.215C203.972 215.495 204.708 213.783 205.444 212.074C206.179 210.364 206.914 208.655 207.659 206.937L205.824 206.142C205.078 207.863 204.342 209.574 203.607 211.284C202.871 212.994 202.136 214.702 201.391 216.42L203.227 217.215ZM207.649 206.959C208.041 206.109 207.531 205.371 207.046 205.08C206.789 204.927 206.432 204.816 206.038 204.891C205.602 204.974 205.253 205.263 205.069 205.662L206.885 206.5C206.815 206.651 206.648 206.811 206.413 206.856C206.22 206.892 206.082 206.834 206.017 206.795C205.947 206.754 205.872 206.683 205.825 206.567C205.77 206.432 205.767 206.264 205.833 206.121L207.649 206.959Z" fill="black" mask="url(#path-101-inside-5)"/>
<mask id="path-103-inside-6" fill="white">
<path d="M206.894 210.131C205.824 212.5 204.754 214.869 203.685 217.238C203.455 217.773 204.219 218.193 204.449 217.696C205.519 215.327 206.588 212.958 207.658 210.59C207.926 210.055 207.161 209.596 206.894 210.131Z"/>
</mask>
<path d="M206.894 210.131C205.824 212.5 204.754 214.869 203.685 217.238C203.455 217.773 204.219 218.193 204.449 217.696C205.519 215.327 206.588 212.958 207.658 210.59C207.926 210.055 207.161 209.596 206.894 210.131Z" fill="#EBF4FF"/>
<path d="M206.894 210.131L206 209.684L205.991 209.701L205.983 209.719L206.894 210.131ZM203.685 217.238L202.773 216.826L202.769 216.835L202.765 216.844L203.685 217.238ZM204.449 217.696L205.357 218.115L205.36 218.108L204.449 217.696ZM207.658 210.59L206.764 210.142L206.755 210.16L206.747 210.178L207.658 210.59ZM205.983 209.719C205.448 210.904 204.913 212.088 204.378 213.273C203.843 214.457 203.308 215.642 202.773 216.826L204.596 217.649C205.131 216.465 205.666 215.28 206.201 214.096C206.736 212.912 207.27 211.727 207.805 210.543L205.983 209.719ZM202.765 216.844C202.41 217.673 202.862 218.414 203.396 218.721C203.664 218.875 204.027 218.972 204.415 218.886C204.839 218.793 205.176 218.506 205.357 218.115L203.541 217.277C203.606 217.135 203.762 216.982 203.985 216.933C204.173 216.891 204.316 216.943 204.393 216.987C204.474 217.033 204.555 217.112 204.603 217.232C204.658 217.369 204.652 217.519 204.604 217.632L202.765 216.844ZM205.36 218.108C205.895 216.923 206.43 215.739 206.965 214.554C207.5 213.37 208.035 212.186 208.57 211.001L206.747 210.178C206.212 211.362 205.677 212.547 205.142 213.731C204.607 214.916 204.072 216.1 203.537 217.285L205.36 218.108ZM208.553 211.037C208.961 210.221 208.548 209.436 207.991 209.102C207.713 208.935 207.339 208.836 206.942 208.927C206.516 209.023 206.187 209.31 206 209.684L207.788 210.578C207.735 210.685 207.601 210.828 207.386 210.877C207.198 210.919 207.049 210.869 206.962 210.817C206.874 210.763 206.79 210.675 206.745 210.546C206.693 210.398 206.711 210.247 206.764 210.142L208.553 211.037Z" fill="black" mask="url(#path-103-inside-6)"/>
<mask id="path-105-inside-7" fill="white">
<path d="M314.986 121.984C314.947 121.411 314.069 121.411 314.107 121.984C314.451 128.632 311.967 134.975 307.191 139.636C306.771 140.057 307.42 140.668 307.841 140.286C312.731 135.433 315.33 128.862 314.986 121.984Z"/>
</mask>
<path d="M314.986 121.984C314.947 121.411 314.069 121.411 314.107 121.984C314.451 128.632 311.967 134.975 307.191 139.636C306.771 140.057 307.42 140.668 307.841 140.286C312.731 135.433 315.33 128.862 314.986 121.984Z" fill="#EBF4FF"/>
<path d="M314.986 121.984L315.984 121.934L315.984 121.926L315.983 121.918L314.986 121.984ZM314.107 121.984L315.106 121.932L315.105 121.925L315.105 121.918L314.107 121.984ZM307.191 139.636L306.493 138.921L306.484 138.929L307.191 139.636ZM307.841 140.286L308.513 141.026L308.529 141.011L308.545 140.996L307.841 140.286ZM315.983 121.918C315.922 120.993 315.143 120.554 314.518 120.554C314.202 120.554 313.838 120.656 313.544 120.927C313.228 121.219 313.081 121.629 313.109 122.051L315.105 121.918C315.114 122.052 315.062 122.247 314.901 122.396C314.763 122.524 314.614 122.554 314.518 122.554C314.419 122.554 314.301 122.524 314.192 122.434C314.066 122.331 313.997 122.183 313.988 122.051L315.983 121.918ZM313.108 122.036C313.437 128.396 311.063 134.46 306.493 138.921L307.89 140.352C312.871 135.49 315.464 128.868 315.106 121.932L313.108 122.036ZM306.484 138.929C306.186 139.227 306.027 139.625 306.059 140.044C306.089 140.436 306.277 140.759 306.504 140.98C306.946 141.409 307.818 141.658 308.513 141.026L307.168 139.546C307.273 139.45 307.431 139.394 307.592 139.409C307.731 139.421 307.832 139.481 307.897 139.544C307.962 139.607 308.04 139.723 308.053 139.893C308.068 140.092 307.986 140.256 307.898 140.343L306.484 138.929ZM308.545 140.996C313.633 135.947 316.343 129.101 315.984 121.934L313.987 122.034C314.316 128.623 311.829 134.92 307.136 139.576L308.545 140.996Z" fill="black" mask="url(#path-105-inside-7)"/>
<mask id="path-107-inside-8" fill="white">
<path d="M310.515 123.321C310.515 128.135 308.681 132.567 305.319 135.968C304.899 136.388 305.548 137 305.968 136.617C309.522 133.026 311.471 128.364 311.432 123.321C311.432 122.748 310.515 122.748 310.515 123.321Z"/>
</mask>
<path d="M310.515 123.321C310.515 128.135 308.681 132.567 305.319 135.968C304.899 136.388 305.548 137 305.968 136.617C309.522 133.026 311.471 128.364 311.432 123.321C311.432 122.748 310.515 122.748 310.515 123.321Z" fill="#EBF4FF"/>
<path d="M305.319 135.968L306.026 136.675L306.03 136.671L305.319 135.968ZM305.968 136.617L306.641 137.357L306.661 137.34L306.679 137.321L305.968 136.617ZM311.432 123.321H310.432L310.432 123.329L311.432 123.321ZM309.515 123.321C309.515 127.871 307.786 132.051 304.608 135.265L306.03 136.671C309.577 133.084 311.515 128.399 311.515 123.321H309.515ZM304.612 135.261C304.314 135.559 304.155 135.957 304.187 136.376C304.217 136.768 304.405 137.091 304.632 137.311C305.074 137.74 305.946 137.99 306.641 137.357L305.296 135.878C305.401 135.782 305.559 135.726 305.72 135.74C305.858 135.753 305.96 135.813 306.025 135.876C306.09 135.939 306.168 136.054 306.181 136.225C306.196 136.424 306.114 136.587 306.026 136.675L304.612 135.261ZM306.679 137.321C310.414 133.546 312.473 128.63 312.432 123.313L310.432 123.329C310.468 128.099 308.629 132.506 305.258 135.914L306.679 137.321ZM312.432 123.321C312.432 122.883 312.245 122.493 311.929 122.23C311.637 121.987 311.285 121.891 310.974 121.891C310.663 121.891 310.311 121.987 310.018 122.23C309.703 122.493 309.515 122.883 309.515 123.321H311.515C311.515 123.472 311.442 123.647 311.299 123.767C311.178 123.867 311.055 123.891 310.974 123.891C310.892 123.891 310.77 123.867 310.649 123.767C310.505 123.647 310.432 123.472 310.432 123.321H312.432Z" fill="black" mask="url(#path-107-inside-8)"/>
<path d="M222.139 87.7497H186.109C185.879 87.7497 185.65 87.5586 185.65 87.2912V62.876C185.65 62.6467 185.841 62.4175 186.109 62.4175H222.139C222.368 62.4175 222.598 62.6085 222.598 62.876V87.2912C222.559 87.5204 222.368 87.7497 222.139 87.7497Z" fill="#FECA55"/>
<path d="M234.213 75.2553L227.527 69.0273C227.106 68.6452 226.457 69.2565 226.877 69.6768C227.87 70.632 228.902 71.549 229.895 72.5042C230.354 72.9245 232.876 74.7203 232.914 75.3317C233.029 76.2487 231.195 77.2039 230.545 77.777C229.322 78.8086 228.1 79.8021 226.915 80.8337C226.457 81.2158 227.106 81.8271 227.565 81.4832C229.781 79.6492 231.997 77.777 234.175 75.943C234.404 75.752 234.366 75.4081 234.213 75.2553Z" fill="black"/>
<path d="M174.188 75.2553L180.874 69.0273C181.294 68.6452 181.944 69.2565 181.524 69.6768C180.53 70.632 179.499 71.549 178.505 72.5042C178.047 72.9245 175.525 74.7203 175.487 75.3317C175.372 76.2487 177.206 77.2039 177.856 77.777C179.078 78.8086 180.301 79.8021 181.485 80.8337C181.944 81.2158 181.294 81.8271 180.836 81.4832C178.62 79.6492 176.404 77.777 174.226 75.943C174.035 75.752 174.035 75.4081 174.188 75.2553Z" fill="black"/>
<path d="M219.465 64.9775H188.936V68.2635H219.465V64.9775Z" fill="white"/>
<path d="M216.179 69.8682H189.394C188.821 69.8682 188.821 70.747 189.394 70.747H216.179C216.752 70.7852 216.752 69.8682 216.179 69.8682Z" fill="white"/>
<path d="M219.159 77.6245H209.912V83.7379H219.159V77.6245Z" fill="white"/>
<path d="M200.666 86.9858C202.691 97.2257 204.754 107.427 206.779 117.667C206.894 118.24 207.735 118.011 207.658 117.438C205.633 107.275 203.608 97.1493 201.583 86.9858H200.666Z" fill="#FECA55"/>
<path d="M190.999 59.0171H185.65C185.077 59.0171 185.077 59.8959 185.65 59.8959H190.999C191.572 59.8959 191.572 59.0171 190.999 59.0171Z" fill="#FF5950"/>
<path d="M232.876 346.842H110.953C110.38 346.842 110.38 347.721 110.953 347.721H232.876C233.449 347.721 233.449 346.842 232.876 346.842Z" fill="#697CCC"/>
<path d="M564.678 346.841H325.302C324.156 346.841 324.156 347.72 325.302 347.72H564.678C565.786 347.72 565.786 346.841 564.678 346.841Z" fill="#697CCC"/>
<path d="M350.711 337.213C353.806 339.658 357.244 341.645 360.951 343.135C363.778 344.243 366.682 345.084 369.624 345.81C370.044 343.174 371.038 336.907 371.802 328.998C365.841 328.425 359.919 327.546 353.958 327.279C354.455 333.774 353.997 335.532 350.711 337.213Z" fill="#BCD7FD"/>
<path d="M353.041 335.455C352.468 336.181 351.666 336.754 350.558 337.289C345.094 340.002 336.344 338.282 336.344 347.147H369.433C369.433 347.147 369.93 344.319 370.579 339.696C360.072 340.269 360.568 336.563 353.041 335.455Z" fill="#D24A43"/>
<path d="M354.914 187.436C349.641 217.735 347.501 317.23 348.151 331.061L371.955 333.277C371.955 333.277 375.775 290.102 373.941 281.619C373.941 281.619 386.359 190.989 385.901 180.826L354.914 187.436Z" fill="#4D4CAC"/>
<path d="M415.971 337.328C415.818 337.404 415.703 337.442 415.55 337.519C421.549 340.652 428.427 342.524 435.151 342.791C434.807 339.544 434.081 335.264 432.935 328.845C426.784 328.272 417.002 321.586 410.851 321.356C412.723 323.649 419.524 335.608 415.971 337.328Z" fill="#BCD7FD"/>
<path d="M429.076 338.436C426.898 338.36 424.759 337.901 422.734 337.213C420.709 336.526 418.951 335.456 416.964 335.227C416.964 336.22 416.658 336.984 415.971 337.29C410.354 340.003 401.299 338.283 401.299 347.148H435.419C435.419 344.74 435.113 341.875 434.387 337.443C432.782 338.169 430.987 338.512 429.076 338.436Z" fill="#D24A43"/>
<path d="M432.668 328.807L409.055 332.246C404.241 322.159 394.345 294.266 390.868 280.817C388.04 269.813 371.42 194.81 369.929 184.494H405.731C406.075 186.289 406.342 188.009 406.61 189.614C407.259 193.511 407.718 196.835 408.023 199.739C408.214 201.42 408.482 203.712 408.826 206.463C411.5 227.325 418.263 273.825 418.263 273.825C421.587 278.257 432.668 328.807 432.668 328.807Z" fill="#4D4CAC"/>
<path d="M380.208 233.706C378.87 227.287 377.495 220.868 376.157 214.449C376.119 214.296 376.119 214.182 376.081 214.029C376.196 214.067 376.349 214.105 376.463 214.143C376.501 214.296 376.54 214.411 376.54 214.564C377.877 220.906 379.214 227.249 380.551 233.592C380.628 233.821 380.246 233.935 380.208 233.706Z" fill="black"/>
<path d="M376.54 214.563C376.425 214.525 376.272 214.487 376.119 214.449L369.242 212.462C369.051 212.385 369.089 212.118 369.28 212.118C369.586 212.08 374.094 213.532 376.005 214.067C376.119 214.105 376.272 214.143 376.387 214.181C376.501 214.296 376.54 214.41 376.54 214.563Z" fill="black"/>
<path d="M408.023 199.738L353.385 198.363C353.385 187.244 352.659 166.268 352.545 156.219C352.506 153.124 352.545 151.061 352.659 150.679L358.658 142.578L372.222 141.203L374.667 140.935L383.493 140.057C383.493 140.057 383.876 139.942 384.525 139.751C388.69 138.567 404.508 134.784 406.38 144.412C406.61 145.559 406.801 146.896 406.992 148.463C407.183 150.297 407.374 152.436 407.527 154.729C407.794 158.855 407.947 163.517 408.061 168.293C408.329 183.652 408.023 199.738 408.023 199.738Z" fill="#FFA79B"/>
<path d="M393.542 78.8473C395.147 77.6628 396.714 76.4402 398.28 75.2175C392.014 69.8683 387.161 66.0093 387.161 66.0093L379.329 74.9501C380.437 77.0515 382.615 80.6431 385.213 84.7314C387.773 82.5535 390.868 80.8341 393.542 78.8473Z" fill="#952C28"/>
<path d="M412.455 144.566C410.927 147.699 409.284 151.061 407.488 154.729C407.45 154.844 407.374 154.958 407.336 155.073L404.202 153.086L384.258 140.515L383.493 140.019C383.493 140.019 383.837 139.369 384.487 138.261C384.525 138.185 384.563 138.147 384.602 138.07C386.015 135.625 388.652 131.116 391.555 126.378C395.3 120.227 399.541 113.579 402.139 110.369C402.139 110.369 391.555 94.8182 384.563 83.7378C386.894 81.7509 394.574 74.7588 396.14 73.3833C404.546 80.4901 416.697 91.1502 422.619 98.5244C430.337 108.153 427.242 114.19 412.455 144.566Z" fill="#FFA79B"/>
<path d="M406.495 109.032C405.387 109.261 404.279 109.491 403.133 109.72C402.865 109.758 402.98 110.217 403.247 110.14C404.355 109.911 405.463 109.682 406.61 109.453C406.877 109.414 406.762 108.994 406.495 109.032Z" fill="black"/>
<path d="M364.733 89.2395C366.529 84.6927 367.981 80.6808 368.669 78.3883L359.613 70.8994C359.613 70.8994 356.251 74.8731 351.742 80.4897C355.792 83.8139 360.225 86.6031 364.733 89.2395Z" fill="#952C28"/>
<path d="M374.667 140.935C374.018 140.133 373.177 139.101 372.222 137.993C366.911 131.612 357.894 121.029 353.385 117.017C353.385 117.017 360.607 99.9757 365.268 87.94C360.95 85.2272 356.595 82.5909 352.545 79.5342C345.82 87.9018 336.115 100.511 331.797 108.802C325.952 119.997 330.613 125.422 352.545 156.218C353.805 157.976 355.143 159.848 356.518 161.797L375.24 144.221L376.463 143.075C376.425 143.075 375.775 142.272 374.667 140.935Z" fill="#FFA79B"/>
<path d="M352.927 116.061C352.545 115.526 352.201 115.03 351.819 114.495C351.666 114.266 351.284 114.495 351.437 114.724C351.819 115.259 352.163 115.756 352.545 116.291C352.697 116.52 353.08 116.291 352.927 116.061Z" fill="black"/>
<path d="M362.823 79.9931C363.014 80.528 363.74 80.9101 364.275 80.7191C364.389 80.6809 364.542 80.6427 364.657 80.5662L364.695 80.7955C364.733 81.1012 364.848 81.3686 365.039 81.5597C364.886 82.5531 364.657 83.5465 364.351 84.5017C364.275 84.7692 364.275 85.0366 364.389 85.2659C365.879 83.0116 367.713 80.9483 368.745 78.4266C368.86 78.1591 369.012 77.8917 369.165 77.6242C369.165 77.586 369.165 77.5478 369.165 77.5478C371.343 73.1156 370.464 59.9337 368.669 60.6597C366.758 61.4238 367.178 63.105 367.293 64.7097C366.758 64.8244 365.459 65.8942 365.306 66.0852C365.077 65.5885 364.848 65.13 364.618 64.6715C365.918 62.6465 366.758 60.354 367.14 57.9086C367.369 56.3803 365.077 55.7308 364.809 57.2209C364.695 57.2209 364.58 57.2209 364.504 57.2591C361.562 59.2077 359.69 61.6149 358.964 64.9008C358.238 68.2631 358.085 71.6637 358.161 75.1024C358.047 76.3251 357.894 77.586 357.779 78.8087C357.703 79.4582 358.123 79.8403 358.62 79.9549C358.964 80.2988 359.499 80.4134 359.957 80.2224C360.148 80.1842 360.339 80.1077 360.492 79.9931C360.607 80.1077 360.721 80.2606 360.874 80.3752C361.562 80.9865 362.441 80.7573 362.823 79.9931Z" fill="#952C28"/>
<path d="M363.701 64.2128C363.625 64.9006 363.549 65.5883 363.472 66.3143C363.434 66.5817 363.893 66.5817 363.931 66.3143C364.007 65.6265 364.084 64.9388 364.16 64.2128C364.16 63.9453 363.701 63.9453 363.701 64.2128Z" fill="black"/>
<path d="M362.402 65.5501C362.211 65.0534 362.708 64.6331 362.937 64.1364C363.243 63.525 363.396 62.8755 363.51 62.1877C363.549 61.9203 363.128 61.7674 363.09 62.0731C362.899 63.2576 362.479 64.2892 361.753 65.2062C361.676 65.2826 361.638 65.4355 361.753 65.5119C362.517 66.1996 362.823 67.1166 362.632 68.1483C362.555 68.4157 363.014 68.5303 363.052 68.2629C363.167 67.8044 363.167 67.3459 363.09 66.8874C362.976 66.3525 362.593 66.0468 362.402 65.5501Z" fill="black"/>
<path d="M383.914 60.4684C383.99 67.0402 379.367 70.6318 373.75 70.6318C368.134 70.6318 363.587 66.085 363.587 60.4684C363.587 54.8517 367.064 50.0757 373.636 49.8464C379.252 49.6554 383.837 54.8517 383.914 60.4684Z" fill="#D24A43"/>
<path d="M392.129 42.3577C390.142 44.2299 388.155 46.1021 386.13 47.9744C385.71 48.3564 386.359 49.006 386.779 48.6239C388.766 46.7517 390.753 44.8795 392.778 43.0073C393.16 42.587 392.549 41.9374 392.129 42.3577Z" fill="#D24A43"/>
<path d="M363.549 51.1075L360.416 47.9744C359.995 47.5541 359.384 48.2037 359.766 48.624L362.899 51.757C363.319 52.1391 363.931 51.4896 363.549 51.1075Z" fill="#D24A43"/>
<path d="M394.383 52.3682C392.434 52.6739 390.524 52.9795 388.575 53.2852C388.002 53.3616 388.231 54.2404 388.804 54.164C390.753 53.8583 392.663 53.5526 394.612 53.247C395.185 53.1324 394.956 52.2918 394.383 52.3682Z" fill="#D24A43"/>
<path d="M387.887 68.2253C387.926 68.0724 387.964 67.9196 387.926 67.7286C387.544 66.3149 387.2 64.8629 386.818 63.4492C386.856 59.6666 384.869 55.9222 381.392 52.6362C380.284 51.6046 379.52 52.7127 380.399 54.1264C380.972 55.6929 381.774 57.0684 382.92 58.2911C382.92 58.4439 382.309 63.1818 382.309 65.5125C382.309 65.8181 377.953 67.9578 376.922 69.9447C377.036 72.5428 378.45 74.8735 380.933 76.249C381.85 76.7458 382.538 75.7141 382.08 74.9882C382.156 74.95 382.233 74.8735 382.309 74.7971C382.92 74.95 383.646 74.4915 383.417 73.7273C383.417 73.6891 383.379 73.6509 383.379 73.6127C383.914 73.6127 384.449 73.1542 384.334 72.5428C384.487 72.5428 384.678 72.4664 384.793 72.39L384.831 72.4282C385.251 72.8867 386.206 72.6957 386.321 72.0461C386.474 71.0909 386.512 70.1357 386.512 69.2187C387.123 69.6008 388.155 69.1423 387.887 68.2253Z" fill="#952C28"/>
<path d="M365.077 56.9148C364.771 56.8766 363.243 58.2139 362.861 58.787C362.708 59.0163 362.708 59.2837 362.784 59.4748C362.402 59.9333 361.982 60.3918 361.524 60.8121C360.683 61.5763 361.944 62.8371 362.784 62.073C364.045 60.9267 365.115 59.6276 366.032 58.2139C366.491 57.488 365.765 56.8384 365.077 56.9148Z" fill="#952C28"/>
<path d="M384.563 138.337C382.233 134.402 377.877 126.951 377.686 126.302L369.089 128.976L371.611 136.007L373.062 140.095L374.209 143.266L380.055 142.005C381.316 140.553 382.92 139.407 384.563 138.337Z" fill="#952C28"/>
<path d="M376.196 126.761L369.089 128.977L371.42 135.473C373.788 133.104 375.814 130.047 376.196 126.761Z" fill="black"/>
<path d="M385.633 123.092C386.206 118.66 377.265 112.432 374.209 115.565C371.878 117.896 365.841 123.207 365.574 126.761C365.23 131.422 370.77 133.409 374.744 132.301C378.641 131.231 385.022 127.448 385.633 123.092Z" fill="#952C28"/>
<path d="M383.226 127.372C384.487 126.073 385.442 124.621 385.633 123.093C386.015 120.265 382.5 116.712 379.099 115.337C379.061 115.222 378.985 115.146 378.908 115.031C378.526 114.534 377.839 114.19 377.304 114.305C376.807 113.655 375.89 113.312 375.088 113.77C373.979 114.343 374.018 115.757 373.979 115.833C374.667 117.018 376.043 118.164 376.922 118.966C378.259 120.227 379.978 121.565 381.239 122.252C381.163 122.29 379.138 126.073 383.226 127.372Z" fill="black"/>
<path d="M384.105 130.085C384.601 128.595 383.302 126.532 381.163 126.609C380.093 127.946 378.947 129.207 377.8 130.506C378.221 131.385 379.673 132.531 381.01 132.531C382.576 132.493 383.57 131.69 384.105 130.085Z" fill="#952C28"/>
<path d="M372.489 142.847C371.305 141.089 371.763 139.217 372.184 137.994C373.865 138.147 382.844 138.185 384.601 138.109C384.601 138.147 383.302 142.617 379.749 144.26C377.571 145.292 373.674 144.604 372.489 142.847Z" fill="#952C28"/>
<path d="M381.965 129.703L380.513 129.588C380.246 129.55 380.246 130.008 380.513 130.047L381.965 130.161C382.271 130.161 382.271 129.703 381.965 129.703Z" fill="black"/>
<path d="M371.343 123.474C370.923 123.283 370.464 123.092 370.197 122.71C369.968 122.366 369.968 121.793 370.426 121.64C370.694 121.564 370.579 121.144 370.312 121.22C369.777 121.373 369.509 121.946 369.624 122.481C369.738 123.207 370.503 123.589 371.114 123.857C371.381 123.971 371.611 123.589 371.343 123.474Z" fill="black"/>
<path d="M372.222 127.41C371.878 127.716 371.343 127.792 370.923 127.601C370.655 127.487 370.426 127.869 370.694 127.983C371.343 128.251 371.993 128.174 372.528 127.716C372.757 127.525 372.451 127.219 372.222 127.41Z" fill="black"/>
<path d="M377.647 121.64C377.571 121.488 377.495 121.335 377.418 121.182C377.151 120.685 376.387 121.106 376.654 121.64C376.73 121.793 376.807 121.946 376.883 122.099C377.113 122.596 377.877 122.137 377.647 121.64Z" fill="black"/>
<path d="M373.063 117.438C372.795 117.324 372.528 117.209 372.298 117.095C372.069 117.018 371.802 117.018 371.687 117.247C371.572 117.438 371.611 117.744 371.84 117.859C372.107 117.973 372.375 118.088 372.604 118.203C372.833 118.279 373.101 118.279 373.215 118.05C373.33 117.897 373.292 117.553 373.063 117.438Z" fill="black"/>
<path d="M376.081 122.749C375.775 122.978 375.508 123.207 375.202 123.475C374.973 123.666 375.317 123.971 375.508 123.78C375.813 123.551 376.081 123.322 376.387 123.054C376.616 122.902 376.272 122.558 376.081 122.749Z" fill="black"/>
<path d="M371.878 118.622C371.572 118.851 371.305 119.081 370.999 119.348C370.77 119.539 371.114 119.845 371.305 119.654C371.611 119.424 371.878 119.195 372.184 118.928C372.413 118.737 372.107 118.431 371.878 118.622Z" fill="black"/>
<path d="M534.455 157.785L529.832 181.169L526.431 198.248L483.447 183.996C483.447 183.996 485.281 177.539 487.802 169.783C486.809 167.337 489.522 161.835 490.018 159.849C491.356 154.767 491.318 154.117 491.432 153.774L513.326 147.546L517.261 146.438L521.579 148.348L527.272 152.513L534.455 157.785Z" fill="#D24A43"/>
<path d="M526.469 136.694C525.934 138.643 523.031 140.553 524.826 141.432C522.457 144.336 521.388 149.494 523.909 151.977C525.323 153.353 533.156 153.773 535.028 154.346C536.556 154.805 538.505 154.614 539.193 153.009C540.645 153.964 542.593 153.849 543.969 152.703C545.497 151.404 545.956 149.226 545.497 147.316C544.962 145.138 543.396 143.457 541.562 142.234C540.301 141.394 538.696 140.668 537.244 141.164C538.543 139.445 538.581 137.038 537.091 135.357C535.486 133.561 532.85 133.408 530.978 134.745C531.054 134.21 531.131 133.637 531.207 133.102C531.284 133.026 531.284 132.911 531.207 132.873C531.131 132.758 530.978 132.758 530.94 132.873C528.915 133.255 527.042 134.631 526.469 136.694Z" fill="#952C28"/>
<path d="M515.237 189.804C514.205 189.613 513.135 189.46 512.104 189.269C506.678 188.352 501.214 187.474 495.827 186.48C491.7 185.716 487.612 184.608 483.485 183.958C472.787 216.474 465.298 268.284 464.114 276.767C463.235 282.918 461.668 313.332 461.401 327.66C461.286 333.124 459.682 335.952 457.045 337.251C449.9 340.766 443.749 338.703 443.29 346.726H473.207C473.207 346.726 487.077 303.436 484.784 290.789C484.708 290.827 508.244 213.952 515.237 189.804Z" fill="#FFA79B"/>
<path d="M461.286 329.036C460.942 333.621 459.414 336.104 456.968 337.289C449.823 340.804 443.672 338.741 443.213 346.764H473.13C473.13 346.764 475.232 340.193 477.677 331.405C472.213 330.679 466.75 329.8 461.286 329.036Z" fill="#FECA55"/>
<path d="M478.632 327.852C482.224 314.555 485.968 297.896 484.708 290.828C484.708 290.828 508.244 213.952 515.236 189.766C514.204 189.575 513.135 189.422 512.103 189.231C506.677 188.314 501.214 187.436 495.826 186.442C491.7 185.678 487.611 184.57 483.485 183.92C472.786 216.436 465.298 268.246 464.113 276.729C463.273 282.727 461.744 311.804 461.4 326.552C467.132 326.973 472.901 327.431 478.632 327.852Z" fill="#2252B2"/>
<path d="M458.993 335.723C458.42 336.372 457.732 336.907 456.968 337.289C449.823 340.804 443.672 338.741 443.213 346.765H473.13C473.13 346.765 474.124 343.632 475.537 338.856C467.361 339.314 466.482 336.296 458.993 335.723Z" fill="#2252B2"/>
<path d="M540.836 338.168C528.494 341.033 529.641 343.937 529.067 346.764H560.054C553.712 304.315 542.249 287.694 542.249 287.694C540.224 270.768 527.042 205.966 527.042 205.966L528.112 191.906C522.763 191.027 517.414 190.186 512.065 189.269C506.639 188.352 501.175 187.474 495.788 186.48C495.177 186.365 494.603 186.251 493.992 186.136L490.018 200.808C490.018 200.808 510.957 262.477 517.834 284.255C524.75 306.034 549.509 336.142 540.836 338.168Z" fill="#FFA79B"/>
<path d="M541.638 331.29C543.09 335.111 543.128 337.632 540.836 338.167C528.494 341.033 529.641 343.937 529.067 346.764H560.054C559.176 340.842 558.182 335.378 557.151 330.449C551.992 331.099 546.834 331.29 541.638 331.29Z" fill="#FECA55"/>
<path d="M551.228 338.817C548.133 338.588 545.115 337.862 542.02 337.518C541.714 337.824 541.332 338.053 540.836 338.168C528.494 341.033 529.641 343.937 529.067 346.765H560.054C559.596 343.555 559.061 340.537 558.564 337.633C556.31 338.626 553.865 339.008 551.228 338.817Z" fill="#2252B2"/>
<path d="M556.119 325.826C549.891 298.736 542.249 287.694 542.249 287.694C540.224 270.768 527.042 205.966 527.042 205.966L528.112 191.906C522.763 191.027 517.414 190.186 512.065 189.269C506.639 188.352 501.175 187.474 495.788 186.48C495.177 186.365 494.603 186.251 493.992 186.136L490.018 200.808C490.018 200.808 510.957 262.477 517.834 284.255C522.419 298.736 534.875 316.885 540.148 328.042C545.497 327.202 550.846 326.629 556.119 325.826Z" fill="#2252B2"/>
<path d="M514.892 204.171C518.713 208.717 523.336 212.003 528.685 214.067C527.692 209.061 527.042 205.966 527.042 205.966L528.112 191.906C522.763 191.027 517.414 190.186 512.065 189.269C510.383 189.002 508.702 188.696 507.059 188.429C507.747 194.198 511.453 200.082 514.892 204.171Z" fill="black"/>
<path d="M500.984 233.667C500.105 230.076 499.188 226.446 498.31 222.854C498.271 222.663 498.233 222.51 498.157 222.319C498.31 222.396 498.501 222.434 498.653 222.51C498.692 222.701 498.73 222.854 498.768 223.045C499.647 226.56 500.526 230.037 501.366 233.553C501.481 233.858 501.061 233.973 500.984 233.667Z" fill="black"/>
<path d="M498.806 223.046C498.653 222.969 498.462 222.893 498.31 222.854C497.125 222.396 495.941 221.937 494.718 221.479C494.45 221.364 494.565 220.944 494.833 221.059C495.941 221.479 497.049 221.899 498.157 222.358C498.31 222.434 498.501 222.472 498.653 222.549C498.73 222.702 498.768 222.893 498.806 223.046Z" fill="black"/>
<path d="M517.261 146.4L513.058 148.883L488.872 163.25L479.97 168.561C476.684 162.562 472.825 156.907 469.271 151.023C470.838 150.259 472.519 149.418 474.315 148.463C493.381 138.414 496.781 137.994 513.822 144.948C514.93 145.406 516.077 145.903 517.261 146.4Z" fill="#D24A43"/>
<path d="M463.12 222.511C462.126 224.804 461.095 227.096 460.101 229.389C459.413 230.955 461.821 231.949 462.508 230.42C463.502 228.128 464.686 225.606 465.68 223.314C466.406 221.709 463.807 220.945 463.12 222.511Z" fill="#697CCC"/>
<path d="M479.053 215.901C478.823 216.359 478.479 216.933 478.059 217.506C477.868 217.735 477.677 218.002 477.486 218.232C473.894 222.702 465.947 229.159 462.279 227.631C457.962 225.835 458 215.519 459.07 210.093C459.108 209.826 459.184 209.597 459.222 209.367C459.222 209.329 459.261 209.253 459.261 209.214C459.337 208.947 459.375 208.68 459.452 208.488C459.566 208.068 459.681 207.724 459.834 207.419L486.771 146.476L488.223 143.19L500.64 115.107C500.755 114.84 500.87 114.61 501.022 114.419C501.175 114.152 501.405 113.923 501.596 113.693C503.506 111.783 507.174 111.324 510.995 112.356C511.148 112.394 511.339 112.433 511.492 112.509C511.53 112.509 511.568 112.547 511.606 112.547C511.721 112.585 511.835 112.624 511.95 112.662C512.141 112.738 512.294 112.776 512.485 112.853C512.676 112.929 512.829 112.967 513.02 113.044C513.135 113.082 513.287 113.158 513.402 113.197C513.555 113.273 513.708 113.35 513.86 113.426C514.013 113.502 514.166 113.579 514.319 113.655C514.472 113.732 514.625 113.808 514.739 113.884C518.178 115.909 520.279 119.195 520.165 121.946C520.165 122.252 520.127 122.558 520.05 122.863C520.012 123.131 519.897 123.36 519.821 123.628L507.403 151.711L507.059 152.513L505.951 154.997L479.053 215.901Z" fill="#697CCC"/>
<path d="M509.008 151.367L507.174 155.494L485.548 145.903L486.656 143.42L487.65 141.204L499.38 114.649C499.494 114.381 499.647 114.114 499.838 113.846C499.838 113.846 499.838 113.808 499.876 113.808C500.067 113.579 500.297 113.35 500.526 113.159C500.526 113.159 500.526 113.12 500.564 113.12C502.78 111.363 507.098 111.21 511.033 112.28C511.186 112.318 511.377 112.356 511.53 112.433C511.568 112.433 511.606 112.471 511.644 112.471C511.759 112.509 511.874 112.547 511.988 112.586C512.179 112.662 512.332 112.7 512.523 112.777C512.714 112.853 512.867 112.891 513.058 112.968C513.173 113.006 513.326 113.082 513.44 113.12C513.593 113.197 513.746 113.273 513.899 113.35C514.052 113.426 514.204 113.503 514.357 113.579C514.51 113.655 514.663 113.732 514.778 113.808C518.254 115.795 521.005 119.234 521.311 122.061C521.311 122.176 521.349 122.252 521.349 122.367C521.349 122.596 521.349 122.825 521.349 123.016C521.349 123.131 521.311 123.208 521.311 123.322C521.273 123.59 521.197 123.857 521.082 124.086L509.39 150.488L509.008 151.367Z" fill="#697CCC"/>
<path d="M503.812 116.521C501.634 115.757 499.456 115.031 497.278 114.266C496.743 114.075 496.017 114.419 495.788 114.916C491.929 122.94 488.032 131.002 484.173 139.026C483.408 140.592 485.777 141.891 486.503 140.325C490.21 132.607 493.916 124.927 497.622 117.209C499.456 117.858 501.29 118.469 503.124 119.119C504.805 119.654 505.416 117.056 503.812 116.521Z" fill="#697CCC"/>
<path d="M487.008 142.638L486.652 143.441L508.313 153.031L508.669 152.227L487.008 142.638Z" fill="white"/>
<path d="M521.273 123.36L499.838 113.885C499.838 113.885 499.838 113.846 499.876 113.846C500.067 113.617 500.297 113.388 500.526 113.197L521.349 122.405C521.349 122.634 521.349 122.864 521.349 123.055C521.311 123.169 521.273 123.284 521.273 123.36Z" fill="white"/>
<path d="M478.021 217.544C477.83 217.773 477.639 218.04 477.448 218.27L459.07 210.131C459.108 209.864 459.184 209.635 459.222 209.405C459.222 209.367 459.261 209.291 459.261 209.252L478.021 217.544Z" fill="white"/>
<path d="M483.217 208.03C481.383 207.724 480.39 205.202 479.702 203.597C480.199 202.68 480.925 201.84 481.651 204.323C482.071 205.699 484.784 206.501 483.79 203.712C483.332 202.413 482.912 199.777 481.269 197.408C480.734 196.682 479.588 195.383 478.327 194.504C477.448 189.116 475.576 177.921 474.544 171.77L477.104 168.369L478.365 165.542C475.499 159.314 473.665 156.448 470.876 150.22C453.529 158.932 449.556 158.244 456.357 176.775C459.375 185.028 465.259 196.147 467.437 200.35C468.927 206.005 472.099 211.239 474.468 213.302C476.034 214.678 477.41 214.219 477.295 213.417C477.41 213.417 477.563 213.379 477.677 213.379C478.938 213.99 480.314 213.379 480.199 212.653C480.314 212.576 480.466 212.538 480.581 212.462C481.116 212.576 481.88 212.576 482.491 212.041C483.294 211.392 482.988 210.933 482.721 210.666C482.759 210.628 482.797 210.59 482.835 210.513C484.249 210.551 484.784 208.297 483.217 208.03Z" fill="#FFA79B"/>
<path d="M482.262 210.169C479.931 209.405 478.212 207.495 477.677 205.126C477.601 204.858 477.18 204.973 477.257 205.24C477.83 207.762 479.702 209.787 482.147 210.59C482.415 210.704 482.53 210.246 482.262 210.169Z" fill="#D24A43"/>
<path d="M480.122 211.927C478.097 211.049 476.607 209.367 475.92 207.266C475.843 206.999 475.385 207.113 475.499 207.381C476.187 209.597 477.754 211.392 479.893 212.309C480.161 212.424 480.39 212.042 480.122 211.927Z" fill="#D24A43"/>
<path d="M477.486 212.997C475.92 211.889 474.735 210.399 474.009 208.603C473.894 208.335 473.474 208.45 473.589 208.718C474.353 210.628 475.576 212.195 477.257 213.379C477.486 213.57 477.715 213.188 477.486 212.997Z" fill="#D24A43"/>
<path d="M474.277 170.586C473.894 169.631 473.512 168.637 473.168 167.682C473.054 167.415 472.634 167.529 472.748 167.797C473.13 168.752 473.512 169.745 473.856 170.7C473.971 170.968 474.391 170.853 474.277 170.586Z" fill="black"/>
<path d="M533.079 179.105C528.915 178.379 524.597 177.309 520.318 177.157L518.102 183.614C508.511 181.168 495.673 179.564 489.866 178.914C489.292 177.233 488.375 175.705 487.038 174.52C485.281 172.915 482.568 172.189 481.46 169.973C480.963 168.98 479.282 169.438 479.396 170.546C479.511 172.304 480.505 173.336 481.842 174.406C482.186 174.673 482.797 175.017 483.026 175.437C484.249 177.5 482.3 177.844 481.116 177.577C479.396 177.233 477.562 174.1 476.798 173.412C475.996 172.304 474.124 173.412 474.926 174.597C475.117 174.902 475.346 175.246 475.614 175.59C474.811 175.628 474.086 176.392 474.659 177.195C474.811 177.386 474.964 177.577 475.117 177.806C474.353 177.844 473.627 178.952 474.315 179.755C474.468 179.946 474.62 180.137 474.773 180.328C474.238 180.557 473.818 181.207 474.2 181.894C476.722 186.556 481.039 189.918 485.968 191.408C489.483 193.51 498.271 198.209 515.771 204.667C533.92 211.353 533.194 203.024 539.842 183.193C540.148 182.2 535.601 179.525 533.079 179.105Z" fill="#FFA79B"/>
<path d="M543.052 172.648C541.982 176.278 541.103 179.564 539.88 183.117C536.556 182.43 533.194 181.742 529.832 181.131C526.087 180.443 522.343 179.793 518.56 179.297L520.853 155.913L521.579 148.31C524.444 149.418 527.081 150.373 529.45 151.29C541.829 155.951 547.14 158.74 543.052 172.648Z" fill="#D24A43"/>
<path d="M523.183 169.783C522.075 172.572 520.967 175.361 519.859 178.112C519.745 178.38 520.165 178.532 520.279 178.265C521.388 175.476 522.496 172.687 523.604 169.936C523.68 169.706 523.26 169.515 523.183 169.783Z" fill="white"/>
<path d="M523.947 184.646C522.343 184.226 520.738 183.805 519.133 183.423C518.866 183.347 518.751 183.767 519.019 183.844C520.623 184.264 522.228 184.684 523.833 185.066C524.1 185.143 524.215 184.684 523.947 184.646Z" fill="black"/>
<path d="M479.702 179.793C478.327 178.838 477.18 177.616 476.302 176.202C476.149 175.973 475.767 176.164 475.92 176.431C476.837 177.921 478.021 179.182 479.473 180.214C479.74 180.328 479.97 179.946 479.702 179.793Z" fill="#D24A43"/>
<path d="M478.174 181.207C477.257 180.443 476.493 179.564 475.843 178.532C475.728 178.341 475.385 178.532 475.499 178.723C476.149 179.755 476.951 180.672 477.868 181.474C478.097 181.627 478.365 181.36 478.174 181.207Z" fill="#D24A43"/>
<path d="M475.537 176.24C475.499 175.973 475.041 176.087 475.117 176.355C475.576 179.068 476.034 181.78 476.493 184.493C476.531 184.761 476.989 184.646 476.913 184.379C476.454 181.666 475.996 178.953 475.537 176.24Z" fill="#D24A43"/>
<path d="M519.515 139.904C519.515 140.133 516.382 144.642 514.09 147.928C514.013 149.036 513.975 150.182 513.899 151.29L524.559 151.634L527.654 143.304L519.515 139.904Z" fill="#FFA79B"/>
<path d="M516.038 145.138C517.834 142.54 519.515 140.095 519.515 139.904L523.795 141.852C522.152 144.03 518.98 144.986 516.038 145.138Z" fill="black"/>
<path d="M534.722 132.568C534.608 129.473 529.832 126.416 526.164 126.073C524.559 125.92 524.138 124.659 523.412 125.767C521.578 128.518 515.656 136.847 516 140.019C516.535 144.642 522.152 145.521 525.781 143.687C529.411 141.853 534.913 136.962 534.722 132.568Z" fill="#FFA79B"/>
<path d="M524.635 123.398C526.316 123.474 528.189 125.423 528.8 126.684C531.78 127.792 534.608 130.161 534.722 132.53C534.837 135.472 532.43 138.643 529.717 140.974C528.915 139.942 529.106 138.834 528.762 137.382C526.164 134.364 527.654 131.651 528.265 130.161C527.081 130.237 523.107 127.181 522.954 125.805C522.878 123.78 524.1 123.398 524.635 123.398Z" fill="#952C28"/>
<path d="M532.506 140.973C532.888 139.254 531.131 137.114 528.723 137.42C527.654 139.025 526.584 140.553 525.438 142.12C526.049 143.037 527.806 144.183 529.335 144.03C531.092 143.801 532.124 142.807 532.506 140.973Z" fill="#FFA79B"/>
<path d="M530.519 140.401C529.793 140.516 529.106 140.63 528.38 140.745C528.112 140.783 528.227 141.203 528.494 141.165C529.22 141.05 529.908 140.936 530.634 140.821C530.94 140.783 530.787 140.363 530.519 140.401Z" fill="#D24A43"/>
<path d="M522.381 139.789C521.999 140.133 521.426 140.171 521.005 139.827C520.776 139.636 520.47 139.942 520.7 140.133C521.273 140.63 522.152 140.63 522.687 140.095C522.878 139.904 522.572 139.56 522.381 139.789Z" fill="#D24A43"/>
<path d="M521.158 134.593C520.814 134.516 520.432 134.401 520.165 134.172C519.897 133.905 519.783 133.37 520.241 133.255C520.509 133.179 520.394 132.759 520.127 132.835C519.592 132.95 519.324 133.523 519.515 134.019C519.744 134.631 520.432 134.86 521.005 135.013C521.311 135.089 521.426 134.669 521.158 134.593Z" fill="#D24A43"/>
<path d="M521.77 129.205C521.655 129.167 521.54 129.129 521.426 129.091C520.891 128.9 520.623 129.74 521.196 129.931C521.311 129.969 521.426 130.008 521.54 130.046C522.075 130.237 522.304 129.396 521.77 129.205Z" fill="#952C28"/>
<path d="M526.125 131.727C526.011 131.651 525.858 131.536 525.743 131.459C525.552 131.307 525.246 131.421 525.132 131.612C525.017 131.842 525.094 132.071 525.285 132.224C525.399 132.3 525.552 132.415 525.667 132.491C525.858 132.644 526.163 132.529 526.278 132.338C526.431 132.109 526.316 131.88 526.125 131.727Z" fill="#952C28"/>
<path d="M525.017 132.912C524.788 133.218 524.559 133.523 524.329 133.791C524.138 134.02 524.559 134.249 524.712 134.02C524.941 133.714 525.17 133.409 525.399 133.141C525.59 132.912 525.208 132.683 525.017 132.912Z" fill="black"/>
<path d="M520.891 130.352C520.661 130.658 520.432 130.964 520.203 131.231C520.012 131.46 520.432 131.69 520.585 131.46C520.814 131.155 521.044 130.849 521.273 130.582C521.464 130.352 521.082 130.123 520.891 130.352Z" fill="black"/>
<path d="M529.449 151.29L527.233 152.475L520.814 155.913L510.574 161.415L513.058 148.883L513.325 147.508L513.822 144.986C514.892 145.444 516.038 145.903 517.223 146.4L521.54 148.31C524.444 149.418 527.081 150.373 529.449 151.29Z" fill="#FFA79B"/>
<defs>
<filter id="filter0_d" x="0.919113" y="32.3975" width="665.081" height="403.357" filterUnits="userSpaceOnUse" color-interpolation-filters="sRGB">
<feFlood flood-opacity="0" result="BackgroundImageFix"/>
<feColorMatrix in="SourceAlpha" type="matrix" values="0 0 0 0 0 0 0 0 0 0 0 0 0 0 0 0 0 0 127 0"/>
<feOffset dy="4"/>
<feGaussianBlur stdDeviation="50"/>
<feColorMatrix type="matrix" values="0 0 0 0 0.827292 0 0 0 0 0.827292 0 0 0 0 0.870833 0 0 0 1 0"/>
<feBlend mode="normal" in2="BackgroundImageFix" result="effect1_dropShadow"/>
<feBlend mode="normal" in="SourceGraphic" in2="effect1_dropShadow" result="shape"/>
</filter>
</defs>
</svg>
