<svg width="1179" height="1089" viewBox="0 0 1179 1089" fill="none" xmlns="http://www.w3.org/2000/svg">
<path d="M1179 0H0V1089H1179V0Z" fill="white"/>
<path d="M705.2 148H332.8V348.8H705.2V148Z" fill="#2252B2"/>
<path d="M497.9 180.9H369V247.2H497.9V180.9Z" fill="#D24A43"/>
<path d="M369 203.7V247.2H408.6C402 228.4 387 212.4 369 203.7Z" fill="white"/>
<path d="M497.9 192V180.9H481C485.5 185.8 491.6 189.4 497.9 192Z" fill="white"/>
<path d="M411.5 207.1C395.8 206.3 384.3 218.7 380.2 232.9C379.8 234.4 382.1 235.1 382.6 233.6C386 221.9 394.4 211.5 407 209.9C420.4 208.1 433.3 218.7 430.5 232.9C430.2 234.4 432.6 235.1 432.9 233.6C435.5 219.8 425.1 207.7 411.5 207.1Z" fill="white"/>
<path d="M462.099 215.7C456.799 215.7 452.399 211.4 452.399 206C452.399 200.6 456.699 196.3 462.099 196.3C467.599 196.3 471.199 199.9 471.799 205.9C471.999 208.3 471.199 210.6 469.499 212.4C467.599 214.5 464.899 215.7 462.099 215.7ZM462.099 198.8C458.099 198.8 454.899 202 454.899 206C454.899 210 458.099 213.2 462.099 213.2C464.199 213.2 466.299 212.3 467.699 210.8C468.899 209.5 469.499 207.8 469.399 206.1C468.899 201.4 466.399 198.8 462.099 198.8Z" fill="white"/>
<path d="M417.7 205.9C412.4 205.9 408 201.6 408 196.2C408 190.9 412.3 186.5 417.7 186.5C423.2 186.5 426.8 190.1 427.4 196.1C427.6 198.5 426.8 200.8 425.1 202.6C423.2 204.7 420.5 205.9 417.7 205.9ZM417.7 189C413.7 189 410.5 192.2 410.5 196.2C410.5 200.2 413.7 203.4 417.7 203.4C419.8 203.4 421.9 202.5 423.3 201C424.5 199.7 425.1 198 425 196.3C424.5 191.6 421.9 189 417.7 189Z" fill="white"/>
<path d="M482.599 235.8C479.499 226.4 471.699 219.1 461.599 218C456.499 217.5 451.299 218.5 446.799 221C443.199 223 442.899 223.9 438.699 222L428.399 217.3C428.399 217.3 428.399 217.3 428.399 217.4C428.499 217.5 428.499 217.7 428.599 217.8C428.999 218.6 429.299 219.5 429.399 220.4C433.699 222.4 438.099 224.4 442.399 226.3C442.899 226.5 443.399 226.5 443.899 226.1C456.499 215.4 475.199 220.7 480.299 236.4C480.799 238 483.099 237.3 482.599 235.8Z" fill="white"/>
<path d="M359.2 197.4C358.5 197.4 358 196.9 358 196.2V171.6C358 170.9 358.5 170.4 359.2 170.4H385C385.7 170.4 386.2 170.9 386.2 171.6C386.2 172.3 385.7 172.8 385 172.8H360.4V196.1C360.4 196.9 359.9 197.4 359.2 197.4Z" fill="white"/>
<path d="M384.4 257.8H359.8C359.1 257.8 358.6 257.3 358.6 256.6V230.8C358.6 230.1 359.1 229.6 359.8 229.6C360.5 229.6 361 230.1 361 230.8V255.4H384.3C385 255.4 385.5 255.9 385.5 256.6C385.6 257.2 385.1 257.8 384.4 257.8Z" fill="white"/>
<path d="M508.2 257.8H482.4C481.7 257.8 481.2 257.3 481.2 256.6C481.2 255.9 481.7 255.4 482.4 255.4H507V232C507 231.3 507.5 230.8 508.2 230.8C508.9 230.8 509.4 231.3 509.4 232V256.6C509.4 257.2 508.8 257.8 508.2 257.8Z" fill="white"/>
<path d="M507.5 198.6C506.8 198.6 506.3 198.1 506.3 197.4V172.8H483C482.3 172.8 481.8 172.3 481.8 171.6C481.8 170.9 482.3 170.4 483 170.4H507.6C508.3 170.4 508.8 170.9 508.8 171.6V197.4C508.8 198.1 508.2 198.6 507.5 198.6Z" fill="white"/>
<path d="M650.4 184.9H533.4C531.8 184.9 531.8 187.4 533.4 187.4H650.4C651.9 187.4 651.9 184.9 650.4 184.9Z" fill="#FECA55"/>
<path d="M650.4 202.7H533.4C531.8 202.7 531.8 205.2 533.4 205.2H650.4C651.9 205.1 651.9 202.7 650.4 202.7Z" fill="#FECA55"/>
<path d="M650.4 220.4H533.4C531.8 220.4 531.8 222.9 533.4 222.9H650.4C651.9 222.9 651.9 220.4 650.4 220.4Z" fill="#FECA55"/>
<path d="M650.4 238.1H533.4C531.8 238.1 531.8 240.6 533.4 240.6H650.4C651.9 240.6 651.9 238.1 650.4 238.1Z" fill="#FECA55"/>
<path d="M648.699 253.3H611.899V290.1H648.699V253.3Z" fill="#FECA55"/>
<path d="M486.7 220.6C485.9 220 484.9 220.1 484.1 220.5C483.9 220.5 483.8 220.6 483.6 220.7C483.4 220.9 483.2 221.1 483 221.3C482.5 221.8 482.1 222.5 482 223.2C481.7 225.4 484.2 227.6 486.3 226.3C486.9 226.1 487.4 225.7 487.7 225.1C488.6 223.6 488 221.5 486.7 220.6Z" fill="white"/>
<path d="M348.7 128.5C349 131.8 346 134.6 342.6 134.6C339.2 134.6 336.5 131.9 336.5 128.5C336.5 125.2 339.2 122.4 342.6 122.4C346 122.4 348.3 124.4 348.7 128.5Z" fill="#FECA55"/>
<path d="M369.599 128.5C369.899 131.8 366.899 134.6 363.499 134.6C360.099 134.6 357.399 131.9 357.399 128.5C357.399 125.2 360.099 122.4 363.499 122.4C366.899 122.4 369.199 124.4 369.599 128.5Z" fill="#FECA55"/>
<path d="M319.3 987.6C310.1 932.8 300.3 861.1 291.1 806.3C290.3 801.6 283.2 803.6 284 808.3C293.2 863.1 303 934.8 312.2 989.6C313 994.2 320.1 992.2 319.3 987.6Z" fill="#D24A43"/>
<path d="M401.501 987.6C392.301 932.8 383.101 878 374.001 823.2C373.201 818.5 366.101 820.5 366.901 825.2C376.101 880 385.301 934.8 394.401 989.6C395.201 994.2 402.301 992.2 401.501 987.6Z" fill="#D24A43"/>
<path d="M183 804.8C177 860.5 171.6 933 165.6 988.7C165.1 993.4 172.5 993.4 173 988.7C179 933 184.4 860.5 190.4 804.8C190.9 800.1 183.5 800.1 183 804.8Z" fill="#D24A43"/>
<path d="M269.1 671.2L259 619.3C256.2 605.1 245.9 595.1 233.9 595.1H158.3C141.7 595.1 129.4 614.1 133.2 633.9L143.3 685.7C146.1 699.9 156.4 709.9 168.4 709.9H244C260.6 709.9 272.9 691 269.1 671.2Z" fill="#D24A43"/>
<path d="M157.2 623.9C155.2 622.6 152.6 623 151.2 625C151 625.2 150.9 625.5 150.7 625.7C149.4 627.5 149.8 630.4 151.8 631.7C153.8 633 156.4 632.6 157.8 630.6L158.3 629.9C159.5 628 159.2 625.1 157.2 623.9Z" fill="white"/>
<path d="M161.5 648.4C159.5 647.1 156.9 647.5 155.5 649.5C155.3 649.7 155.2 650 155 650.2C153.7 652 154.1 654.9 156.1 656.2C158.1 657.5 160.7 657.1 162.1 655.1L162.6 654.4C163.9 652.5 163.5 649.6 161.5 648.4Z" fill="white"/>
<path d="M173.8 623.9C171.8 622.6 169.2 623 167.8 625C167.6 625.2 167.5 625.5 167.3 625.7C166 627.5 166.4 630.4 168.4 631.7C170.4 633 173 632.6 174.4 630.6L174.9 629.9C176.1 628 175.7 625.1 173.8 623.9Z" fill="white"/>
<path d="M165.901 672.9C163.901 671.6 161.301 672 159.901 674C159.701 674.2 159.601 674.5 159.401 674.7C158.101 676.5 158.501 679.4 160.501 680.7C162.501 682 165.101 681.6 166.501 679.6L167.001 678.9C168.201 677 167.801 674.1 165.901 672.9Z" fill="white"/>
<path d="M171.401 702.1C168.701 701.7 166.101 701.2 163.601 700.3C170.101 735.3 176.501 770.3 183.001 805.3C185.401 804.9 187.901 804.6 190.301 804.4C184.001 770.3 177.701 736.2 171.401 702.1Z" fill="#D24A43"/>
<path d="M336.101 794.3H173.001C166.901 794.3 166.901 814.6 173.001 814.6H336.101C342.201 814.6 342.201 794.3 336.101 794.3Z" fill="#D24A43"/>
<path d="M833.1 458.3H722.4V543.6H833.1V458.3Z" fill="black"/>
<path d="M804.8 476.1H747.1C745.5 476.1 745.5 478.6 747.1 478.6H804.8C806.4 478.5 806.4 476.1 804.8 476.1Z" fill="white"/>
<path d="M804.8 490.8H747.1C745.5 490.8 745.5 493.3 747.1 493.3H804.8C806.4 493.3 806.4 490.8 804.8 490.8Z" fill="white"/>
<path d="M804.8 505.5H747.1C745.5 505.5 745.5 508 747.1 508H804.8C806.4 508 806.4 505.5 804.8 505.5Z" fill="white"/>
<path d="M789.2 520.3H746.8C745.6 520.3 745.6 522.8 746.8 522.8H789.2C790.3 522.7 790.3 520.3 789.2 520.3Z" fill="white"/>
<path d="M741.9 484.1C741.6 484.1 741.3 484 741 483.7L734.9 477.3C734.4 476.8 734.5 476.1 734.9 475.6L741 469.5C741.5 469 742.3 469 742.7 469.5C743.2 470 743.2 470.8 742.7 471.2L737.4 476.5L742.7 482.1C743.2 482.6 743.1 483.4 742.7 483.8C742.5 483.9 742.2 484.1 741.9 484.1Z" fill="white"/>
<path d="M794.701 529.8C794.401 529.8 794.101 529.7 793.801 529.4C793.301 528.9 793.301 528.1 793.801 527.7L799.101 522.4L793.801 516.8C793.301 516.3 793.401 515.5 793.801 515.1C794.301 514.6 795.101 514.7 795.501 515.1L801.601 521.5C802.101 522 802.001 522.7 801.601 523.2L795.501 529.3C795.301 529.7 795.001 529.8 794.701 529.8Z" fill="white"/>
<path d="M714.8 452.5C709.9 447 704.9 441.5 700 436C698.9 434.8 697.2 436.6 698.3 437.7L713.1 454.2C714.1 455.4 715.9 453.7 714.8 452.5Z" fill="#BCD7FD"/>
<path d="M849.401 442.1C845.501 445.8 841.601 449.5 837.701 453.1C836.601 454.2 838.301 455.9 839.401 454.8C843.301 451.1 847.201 447.4 851.101 443.8C852.301 442.7 850.501 441 849.401 442.1Z" fill="#BCD7FD"/>
<path d="M719.2 545.1C715.9 549.2 712.6 553.2 709.3 557.3C708.3 558.5 710 560.3 711 559C714.3 554.9 717.601 550.9 720.901 546.8C721.901 545.7 720.2 543.9 719.2 545.1Z" fill="#BCD7FD"/>
<path d="M742.999 988.9C732.299 920.9 721.599 852.9 710.899 784.9C708.699 786.1 706.399 787 703.899 787.8C714.499 854.9 724.999 922.1 735.599 989.2C736.399 993.9 743.799 993.6 742.999 988.9Z" fill="#D24A43"/>
<path d="M721.6 790.2H558.5C552.4 790.2 552.4 810.5 558.5 810.5H721.6C727.6 810.5 727.7 790.2 721.6 790.2Z" fill="#D24A43"/>
<path d="M606.2 496.7C561.2 491.8 549.3 484.8 539.9 525.8C530.5 566.8 522.7 645.3 522.7 645.3L591.9 683.4H723.7C723.7 683.4 727.8 493.5 679.5 493.9C643.6 494.2 606.2 496.7 606.2 496.7Z" fill="#D24A43"/>
<path d="M658.4 634.1C613.9 641.8 587.3 654.7 577.5 658.8L577.9 682.9L698.2 683.3C691.6 663.6 675.9 644 658.4 634.1Z" fill="#FFA79B"/>
<path d="M661.6 552C661.6 551.2 660.4 551.2 660.4 552C659.8 578.1 659.2 604.2 658.6 630.3C658.6 630.9 659.4 631.1 659.7 630.6C660.1 629.9 661.6 552 661.6 552Z" fill="white"/>
<path d="M585.4 635.1C584.8 633.7 540.2 565.4 506.8 531.6C506.7 531.5 506.7 531.3 506.6 531.2C502 525.5 496.5 520.6 490.3 516.7C489 515.9 487.6 515.1 486.1 514.2C483 511.9 479.9 509.4 477 506.8C474.7 504.8 469.8 497.9 465.9 499C465.2 499.2 464.7 499.6 464.3 500.1C464.2 500.2 464.2 500.2 464.2 500.3C463.4 501.6 463.5 503.3 464 504.7C464.8 507.3 466.6 509.4 468.8 511.1C472.3 515.6 470.5 518.7 467.2 517.4C464.2 515.6 461 514.1 457.6 513.2C456.4 512.7 455.2 512.2 453.9 511.8C450.5 504.9 445.2 495.6 442.5 497.5C440 499.7 438.1 504.2 439.3 508.9C437.2 510.4 438 516.3 439 519C441.9 527 443.4 530.3 449.1 536.8C455.1 543.6 470.2 546.1 477.6 550.6C485.6 557 529.7 647.2 527.3 646.7C527.1 646.7 587 638.6 585.4 635.1Z" fill="#FFA79B"/>
<path d="M482.2 531.2C477.4 527.6 474 522.7 472.4 516.9C472.2 516.1 471 516.5 471.2 517.2C472.9 523.3 476.5 528.4 481.5 532.2C482.2 532.8 482.8 531.7 482.2 531.2Z" fill="#952C28"/>
<path d="M457.001 526.6C455.401 525.2 453.901 524.7 451.801 524.2C450.301 523.8 450.701 524.4 450.301 522.8C450.101 522 450.101 521 449.901 520.2C449.001 515.7 446.901 511.6 444.001 508C443.501 507.4 442.601 508.3 443.101 508.9C446.801 513.5 448.801 518.9 449.101 524.8C449.101 525.1 449.401 525.4 449.701 525.4C452.101 525.2 454.201 525.9 456.001 527.5C456.701 527.9 457.601 527.1 457.001 526.6Z" fill="#952C28"/>
<path d="M458.701 519.3C456.901 517.7 454.901 517.1 452.601 517.4C451.401 511.2 448.101 505.7 443.101 501.7C442.501 501.2 441.601 502.1 442.201 502.6C447.201 506.6 450.401 512 451.501 518.3C451.601 518.6 452.001 518.8 452.301 518.7C454.401 518.2 456.201 518.7 457.901 520.2C458.501 520.7 459.301 519.8 458.701 519.3Z" fill="#952C28"/>
<path d="M453.901 532.2C452.501 529.5 449.201 529.2 447.901 526.3C446.001 522.3 444.701 517.9 443.201 513.8C442.901 513.1 441.701 513.4 442.001 514.1C443.601 518.3 445.001 522.7 446.801 526.8C447.301 527.9 447.801 528.7 448.701 529.5C450.101 530.7 452.001 531 452.901 532.8C453.201 533.6 454.301 533 453.901 532.2Z" fill="#952C28"/>
<path d="M564.301 539C563.601 554.1 563.001 569.3 562.301 584.4C562.301 585.2 563.501 585.2 563.501 584.4C564.201 569.3 564.801 554.1 565.501 539C565.501 538.2 564.301 538.2 564.301 539Z" fill="white"/>
<path d="M679.1 990.6C679.9 964.4 680.3 931.8 680.3 908C660.1 911.3 640.2 909.8 619.7 910.5C629.9 957.1 630.3 961.2 618.1 964.5C604.3 968.2 605 984.4 605.8 990.6H679.1Z" fill="#FFA79B"/>
<path d="M591.601 990.6C593.301 965.7 594.301 931.7 593.501 907.6C585.601 907.8 537.501 906.6 534.601 906.8C542.901 940.6 546.901 962.3 529.301 966.1C515.401 969.1 516.901 984.5 518.101 990.6H591.601Z" fill="#FFA79B"/>
<path d="M679.101 990.6C679.601 973.7 679.901 954.1 680.101 935.9C657.301 938 638.901 938 625.001 935.9C629.401 958.9 627.501 962 618.001 964.5C604.201 968.2 604.901 984.4 605.701 990.6H679.101Z" fill="#0083F9"/>
<path d="M591.601 990.6C592.701 974.4 593.501 954.5 593.701 935.9C576.101 938.2 558.401 937.8 540.701 935.9C543.101 952.9 541.101 963.6 529.201 966.1C515.301 969.1 516.801 984.5 518.001 990.6H591.601Z" fill="#0083F9"/>
<path d="M679.1 990.6C679.4 981.3 679.6 971.2 679.8 961C673.3 964.6 666.5 966.3 658.6 963.2C653.2 961.1 647.2 955.8 641.3 955.3C636.1 954.8 630.8 956.4 626.3 959.2C624.9 962.1 622.2 963.3 618.1 964.5C604.3 968.2 605 984.4 605.8 990.6H679.1Z" fill="black"/>
<path d="M591.6 990.6C592.1 982.8 592.6 974.1 592.9 965.2C586.9 967.1 580.4 966.6 573.3 963.6C563.6 959.4 549.3 949.2 539.8 959.2C539.4 959.7 538.9 960 538.4 960.3C536.4 963.3 533.4 965.2 529.1 966.2C515.2 969.2 516.7 984.6 517.9 990.7H591.6V990.6Z" fill="black"/>
<path d="M519.601 682.2C502.301 693.5 493.201 718.1 505.101 789C516.201 855.4 524.501 893.1 530.101 916.7C534.701 916.7 582.401 917.5 596.401 917.5C597.201 854.5 590.301 801.3 590.301 801.3C647.301 799.2 638.901 736.5 627.901 682.3H519.601V682.2Z" fill="#2252B2"/>
<path d="M586.101 777.1C588.301 789.6 590.201 801.2 590.201 801.2C620.501 800.1 632.301 781.8 635.101 756.8C619.001 764.3 603.001 772.1 586.101 777.1Z" fill="black"/>
<path d="M597.3 682.2C589.7 696.8 588.6 725.5 596.2 780.3C604.9 842.9 609.6 890.1 612.3 916.3C632.6 916.2 662 917.1 682.3 915.9C686.3 851.4 681.9 803.8 681.9 803.8C701.6 803.1 713.1 794.8 719.2 782.1C730.7 758.1 723 718 715.5 682.3H597.3V682.2Z" fill="#2252B2"/>
<path d="M643.7 682.2C661.8 701.9 692.3 707.6 719.6 702.7C718.3 695.8 716.9 688.9 715.4 682.2H643.7Z" fill="black"/>
<path d="M600.801 682.2H598.601C589.701 688.9 589.101 703 589.101 713.6C589.001 730.8 590.401 748 593.001 765C593.101 765.8 594.301 765.5 594.201 764.7C591.801 749.4 590.501 733.9 590.301 718.4C590.201 706.7 589.401 688.9 600.801 682.2Z" fill="black"/>
<path d="M699.7 784.8C693.8 783.7 687.5 781.8 681.9 778.8C681.9 789.5 681.9 803.7 681.9 803.7C699.3 803 710.3 796.5 716.8 786.2C711 786.3 705.1 785.8 699.7 784.8Z" fill="black"/>
<path d="M585.4 773.5C584.6 771.6 583.8 769.7 582.9 767.8C582.6 767.1 581.5 767.7 581.8 768.4C582.6 770.3 583.4 772.2 584.3 774.1C584.7 774.8 585.7 774.2 585.4 773.5Z" fill="white"/>
<path d="M680.4 768C680.3 767.2 679.1 767.2 679.2 768C679.5 770.2 679.7 772.4 680 774.5C680.1 775.3 681.3 775.3 681.2 774.5C681 772.4 680.7 770.2 680.4 768Z" fill="white"/>
<path d="M586.901 908.2H532.901C532.101 908.2 532.101 909.4 532.901 909.4H586.901C587.701 909.4 587.701 908.2 586.901 908.2Z" fill="white"/>
<path d="M671.601 908.2H617.601C616.801 908.2 616.801 909.4 617.601 909.4H671.601C672.401 909.4 672.401 908.2 671.601 908.2Z" fill="white"/>
<path d="M609.001 526C615.301 530.4 621.301 530.4 626.301 527.9C628.401 514.8 631.101 498.6 631.601 498L603.501 486.8L595.601 497.8C596.601 507.3 601.201 520.6 609.001 526Z" fill="#FFA79B"/>
<path d="M627.7 519.2C629.5 508.6 631.2 498.5 631.6 498L616.4 492.6C615.2 502 620.7 511.8 627.7 519.2Z" fill="black"/>
<path d="M585.3 455.1C588.4 445 606.8 438.8 619.3 440.8C624.8 441.7 627.2 437.8 628.7 442.1C632.4 452.8 645.1 485.5 641.1 495.8C635.4 510.7 615.9 508.8 605.5 499.7C595 490.5 580.9 469.5 585.3 455.1Z" fill="#FFA79B"/>
<path d="M626.5 433.3C620.8 432.1 613 437 609.8 440.7C598.3 439 586.3 444.9 583.9 452.7C569.5 457.8 581.7 488 594.7 487.4C598.3 484.7 598.6 480.8 601 476.3C612.2 468.4 609.6 458.2 608.9 452.7C612.7 454 628.5 447.2 630.2 442.7C632.1 436 628.3 433.7 626.5 433.3Z" fill="#952C28"/>
<path d="M621.2 468.2L620.1 463.6C619.9 462.8 618.6 463.1 618.8 464C619.2 465.5 619.5 467.1 619.9 468.6C620.2 469.4 621.4 469 621.2 468.2Z" fill="black"/>
<path d="M633.4 464.4L632.3 459.8C632.1 459 630.8 459.3 631 460.2C631.4 461.7 631.7 463.3 632.1 464.8C632.3 465.6 633.6 465.3 633.4 464.4Z" fill="black"/>
<path d="M634.9 472.2C634.5 471.4 633.4 472.1 633.8 472.9C634.3 473.9 633.6 475 632.7 475.6C631.8 476.2 630.7 476.4 629.7 476.6C628.9 476.8 629.2 478 630.1 477.9C631.6 477.6 633.3 477.2 634.4 476C635.2 474.9 635.5 473.5 634.9 472.2Z" fill="#952C28"/>
<path d="M628.6 491.7C627.5 491.9 626.5 491.5 625.7 490.7C625.1 490.1 624.2 491 624.8 491.6C625.9 492.8 627.4 493.2 629 493C629.8 492.8 629.5 491.5 628.6 491.7Z" fill="#952C28"/>
<path d="M617.9 457C617.2 457.5 616.4 457.9 615.7 458.4C614.3 459.3 615.6 461.6 617 460.7C617.7 460.2 618.5 459.8 619.2 459.3C620.7 458.4 619.4 456.1 617.9 457Z" fill="#952C28"/>
<path d="M632.3 454.9C632 454.3 631.1 454 630.5 454.4C629.8 454.9 629.2 455.4 628.5 455.9C627.9 456.3 627.6 457 628 457.7C628.3 458.3 629.2 458.6 629.8 458.2C630.5 457.7 631.1 457.2 631.8 456.7C632.4 456.2 632.7 455.5 632.3 454.9Z" fill="#952C28"/>
<path d="M625.301 462.3C624.901 461.6 623.6 462.1 624.1 462.8C626.4 466.6 625.501 471.6 621.201 473.5C616.801 475.5 612.001 472.7 611.001 468.1C610.801 467.3 609.501 467.5 609.701 468.3C610.801 473.4 615.801 476.8 620.901 475C626.401 473.3 628.201 467 625.301 462.3Z" fill="white"/>
<path d="M642.6 455.4C642.2 454.7 640.9 455.2 641.4 455.9C643.7 459.7 642.8 464.7 638.5 466.6C634.1 468.6 629.3 465.8 628.3 461.2C628.1 460.4 626.8 460.6 627 461.4C628.1 466.5 633.1 469.9 638.2 468.1C643.6 466.3 645.4 460.1 642.6 455.4Z" fill="white"/>
<path d="M628.1 463.2L626.1 464.2C625.3 464.6 626 465.7 626.8 465.3L628.8 464.3C629.5 463.9 628.9 462.8 628.1 463.2Z" fill="white"/>
<path d="M611.201 471.1C605.701 472.4 599.101 474.8 593.601 476C592.801 476.2 593.101 477.5 594.001 477.3C599.601 476 606.401 473.6 612.001 472.3C611.701 471.9 611.401 471.5 611.201 471.1Z" fill="white"/>
<path d="M585.4 484.9C585.6 478.9 593.2 473.2 601 476.3C603.1 482.5 605.5 488.6 607.9 494.7C605.1 497.3 598.3 499.6 593.4 497.7C587.7 495.5 585.2 491.3 585.4 484.9Z" fill="#FFA79B"/>
<path d="M594.901 484.1C594.101 483.7 593.501 484.9 594.201 485.2C596.301 486.2 598.301 487.3 600.401 488.3C600.901 488.6 601.501 488.1 601.401 487.6C601.301 487.4 596.601 485 594.901 484.1Z" fill="#952C28"/>
<path d="M672 54L789.1 171L672 288.1V54Z" fill="#FFA79B"/>
<path d="M321.5 384.5L270.8 333.7L321.5 283V384.5Z" fill="#FFA79B"/>
<path d="M896.9 499.2C898.2 499.7 925.7 540.1 925.7 540.1L954.5 507.2L916.9 479.2L896.9 499.2Z" fill="#952C28"/>
<path d="M905.701 511.2C901.101 504.6 897.301 499.4 896.801 499.2L904.201 491.7C907.301 497.8 908.401 505.5 905.701 511.2Z" fill="black"/>
<path d="M910.6 434.3C902.6 426.4 882.3 430 871.6 438.2C866.9 441.8 862.6 439.4 863.4 444.2C865.3 456.1 871.6 494.4 879 500.7C892 511.6 909.1 500.1 914.3 486.3C919.4 472.4 922 445.6 910.6 434.3Z" fill="#952C28"/>
<path d="M859.9 442.8C861.9 452.3 879.4 447.4 888.3 442.9C890.7 453.1 897.9 478.4 918 479.8C926.1 461.7 925.3 434.5 913.6 435.4C902.9 420.5 882.2 430.1 871.5 438.4C866.6 433.6 860.5 434.7 859.9 442.8Z" fill="black"/>
<path d="M911.4 458.4C908.1 452.9 898.2 451.5 892.5 458.2C893.6 465.1 894.5 471.9 895.4 478.9C899.3 479.9 906.8 478.6 910.5 474.4C914.6 469.6 914.9 464.3 911.4 458.4Z" fill="#952C28"/>
<path d="M864.5 472.3C864.2 469.6 866.5 467.5 869.1 467.6C869.9 467.6 870.6 468.6 870.5 469.3C870.5 469.4 870.4 469.4 870.4 469.5C870.7 469.5 870.9 469.6 871.2 469.6C873.1 470.2 872 473.1 870.1 472.5C870.1 472.5 870 472.6 870.2 472.6C871.7 472.8 872.1 475 870.7 475.6C868 476.7 864.8 475.1 864.5 472.3Z" fill="#952C28"/>
<path d="M871.8 460.1C871.5 461.6 871.1 463 870.8 464.5C870.6 465.3 871.9 465.7 872.1 464.9C872.4 463.4 872.8 462 873.1 460.5C873.2 459.6 871.9 459.2 871.8 460.1Z" fill="black"/>
<path d="M904.001 461.6C903.101 462.7 902.201 463.8 901.301 465L900.601 465.9C900.101 466.6 901.001 467.5 901.601 466.9C902.701 465.5 903.901 464.1 905.001 462.6C905.501 461.9 904.501 460.9 904.001 461.6Z" fill="black"/>
<path d="M888.2 487.9C888.1 487 886.8 487.4 886.9 488.3C887.3 490.9 886.1 493.5 883.9 494.9C883.2 495.4 883.9 496.5 884.6 496.1C887.3 494.3 888.6 491.2 888.2 487.9Z" fill="black"/>
<path d="M874.8 452.9C873.7 452.7 872.6 452.5 871.4 452.2C870.7 452.1 869.9 452.4 869.7 453.1C869.5 453.8 869.9 454.6 870.6 454.8C871.7 455 872.8 455.2 874 455.5C874.7 455.6 875.5 455.3 875.7 454.6C875.9 453.9 875.5 453 874.8 452.9Z" fill="black"/>
<path d="M915.899 554.9C889.199 590.9 882.199 609.8 882.199 609.8C882.199 609.8 852.999 550.2 841.199 538C841.199 538 806.699 525.6 802.399 531.9C798.099 538.2 799.899 550.6 802.499 558C805.099 565.4 815.199 569.5 824.899 568.5C824.899 568.5 847.199 671.7 866.899 676C886.499 680.3 906.199 677.9 908.599 677.6C921.799 676 973.199 578.6 973.299 575.3C973.299 572 915.899 554.9 915.899 554.9Z" fill="#841E1E"/>
<path d="M885.2 615.9C884.5 614.2 883.8 612.4 883.1 610.7C882.8 610 881.6 610.3 881.9 611C882.6 612.7 883.3 614.5 884 616.2C884.3 616.9 885.5 616.6 885.2 615.9Z" fill="white"/>
<path d="M838.583 528.391L809.438 523.842L803.64 560.991L832.786 565.54L838.583 528.391Z" fill="#2252B2"/>
<path d="M818.3 532C817.2 539.4 816.1 546.7 815.1 554.1C814.9 555.6 817.2 556.3 817.5 554.8C818.6 547.4 819.7 540.1 820.7 532.7C820.9 531.1 818.5 530.4 818.3 532Z" fill="white"/>
<path d="M828.1 503.4C822.7 506 820 512.3 821.8 518C822.3 519.5 824.6 518.9 824.2 517.3C822.7 512.6 825 507.6 829.4 505.5C830.8 504.8 829.5 502.7 828.1 503.4Z" fill="#BCD7FD"/>
<path d="M831.5 507.6C828 509.9 826.2 513.8 826.8 517.9C827 519.5 829.4 518.8 829.2 517.2C828.8 514.2 830.2 511.3 832.8 509.7C834 508.9 832.8 506.8 831.5 507.6Z" fill="#BCD7FD"/>
<path d="M807.3 531.3C806.1 530.9 805.5 532.3 806 533.1C805.2 533.1 804.5 533.3 803.8 533.9C801.8 535.5 802.1 538.8 804.2 540.2C804.4 540.4 804.7 540.4 804.9 540.4C805 541.5 805.2 542.6 805.6 543.4C805.6 543.5 805.5 543.7 805.5 543.8C804.8 543.9 804.1 544.3 803.4 545C802.9 545.5 802.5 546.4 802.3 547.4C800.3 550.1 798 553.6 799.7 557.1C800.7 559.1 802.9 560.4 805.2 559.8C808.5 558.9 809.5 555.2 808.5 552.2C808.6 552 808.6 551.8 808.7 551.6C808.8 551.3 808.9 551.1 809 550.8C809.2 550.3 809.3 549.7 809.4 549C810.6 547.7 811.2 546.1 811.2 544.4C812.2 543.3 813 541.9 813.3 540.7C814.2 536.5 811.3 532.7 807.3 531.3ZM805.5 535.8C805.5 536 805.5 536.1 805.5 536.3C805.5 536.6 805.6 536.8 805.7 537C805.5 537.2 805.4 537.5 805.3 537.8C804.7 537.2 804.9 536.2 805.5 535.8Z" fill="#841E1E"/>
<path d="M809.8 541.8C806.6 541 804.3 538.4 803.7 535.2C803.6 534.6 802.6 534.8 802.7 535.5C803.3 539 806 541.9 809.5 542.8C810.2 542.9 810.4 541.9 809.8 541.8Z" fill="black"/>
<path d="M806.8 548.2C804.7 547.7 803.1 546.2 802.5 544.2C802.3 543.6 801.4 543.8 801.5 544.5C802.2 546.9 804.1 548.7 806.5 549.2C807.2 549.3 807.4 548.3 806.8 548.2Z" fill="black"/>
<path d="M806.4 555.6C804.4 555.2 802.8 553.6 802.5 551.5C802.4 550.9 801.4 551.1 801.5 551.8C801.9 554.2 803.8 556.1 806.1 556.6C806.8 556.7 807.1 555.7 806.4 555.6Z" fill="black"/>
<path d="M852.6 555.8C852.3 549.9 849.5 542.2 844.5 538C830.6 529.1 828.8 528.1 827.1 529.6C823.7 532.6 826.6 536.3 829.7 538.5C830.3 539.5 832.6 541.9 833.1 542.3C833.3 543.1 839.1 555.8 840.8 557.9C841.4 558.7 842.5 558.4 842.9 557.8C843.9 558 845 557.8 845.8 557.2C847.5 557 848.8 556 849.7 554.7C849.9 555.3 850 555.8 850.2 556.4C850.6 557.5 852.7 557.1 852.6 555.8Z" fill="#841E1E"/>
<path d="M840.5 555.5C839.4 553.4 838.2 551.3 837.1 549.2C836.8 548.6 835.9 549.1 836.2 549.7L839.6 556C840 556.6 840.8 556.1 840.5 555.5Z" fill="black"/>
<path d="M891.2 990.6C886.6 970.1 854.5 827.9 828.7 777.9L800.1 773L855.1 990.6H891.2Z" fill="#841E1E"/>
<path d="M891.2 990.6C890.2 985.9 887.7 974.9 884.2 960.1C873.1 964.8 860.9 966.9 848.9 966.1L855.1 990.7H891.2V990.6Z" fill="#2252B2"/>
<path d="M872.3 912C859.8 863.5 843.3 806.1 828.7 777.8L800.1 772.9L836 915.1C848.2 914.3 860.3 913.3 872.3 912Z" fill="black"/>
<path d="M1035.1 680.8C996.3 680.1 957.4 678.1 918.6 679.4C919.2 687 919.5 691.5 919.5 691.5C919.5 691.5 899.9 694 821.3 700.1C742.7 706.2 720.6 725.9 757.5 840C794.4 954.1 813.2 960.3 790.2 966C760.7 973.4 757.7 985.3 757.9 990.5H861.2C851.3 857.1 827.4 789.6 827.4 789.6C827.4 789.6 827.4 789.6 897.4 790.8C1061.1 793.8 1043.4 742.1 1035.1 680.8Z" fill="#952C28"/>
<path d="M1035.1 680.8C996.3 680.1 957.4 678.1 918.6 679.4C919.2 687 919.5 691.5 919.5 691.5C919.5 691.5 899.9 694 821.3 700.1C742.7 706.2 720.6 725.9 757.5 840C772.2 885.6 784 913.9 791.5 931.9C812.5 928.6 833.6 926.3 854.7 924C843.5 834.7 827.5 789.6 827.5 789.6C827.5 789.6 827.5 789.6 897.5 790.8C1061.1 793.8 1045.6 780.3 1035.1 680.8Z" fill="black"/>
<path d="M861.3 990.6C860.6 981.8 859.9 973.3 859.2 965.1C853.1 966.8 846.9 967.7 840.3 967.4C826.8 966.9 813.3 961.8 799.7 960.8C798.5 963.4 795.5 964.8 790.2 966.1C760.7 973.5 757.7 985.4 757.9 990.6H861.3Z" fill="#2252B2"/>
<path d="M824.2 786.8C833 816.2 839.5 846.4 843.4 876.9C843.5 877.7 844.7 877.7 844.6 876.9C840.7 846.4 834.3 816.3 825.5 786.8C825 786.7 824.6 786.8 824.2 786.8Z" fill="white"/>
<path d="M942.5 693.3L924.5 693.9C923.7 693.9 923.7 695.2 924.5 695.1L942.5 694.5C943.3 694.5 943.3 693.3 942.5 693.3Z" fill="white"/>
<path d="M864 969.3C863.9 968.5 862.7 968.5 862.8 969.3C863.6 975.8 864.5 982.4 865.3 988.9C865.4 989.7 866.6 989.7 866.5 988.9C865.7 982.4 864.8 975.9 864 969.3Z" fill="white"/>
<path d="M1035.1 680.5H918.6C918.5 679 918.301 677.4 918.201 675.6C917.601 669.1 916.901 661 916.201 651.9C916.101 650.3 915.901 648.7 915.801 647C915.601 644.9 915.501 642.7 915.301 640.4C915.201 638.8 915.101 637.2 914.901 635.5C914.301 627.9 913.801 619.9 913.301 611.8C913.201 610.2 913.101 608.5 913.001 606.9C912.901 604.7 912.7 602.5 912.6 600.4C912.5 598.8 912.401 597.1 912.301 595.5C911.901 588.3 911.601 581.2 911.301 574.2C911.201 572.6 911.2 570.9 911.1 569.3C911 567.1 911.001 564.9 910.901 562.8C910.901 561.1 910.801 559.5 910.801 557.9C910.601 548.3 910.601 539.3 910.901 531.7C911.001 530 911 528.4 911.1 526.8C911.2 525.8 911.201 524.9 911.301 523.9C911.401 522.6 911.601 521.4 911.801 520.2C912.101 518.5 912.501 516.8 913.001 515.3C918.101 499.7 932.901 492.1 941.201 496.5C946.501 499.4 955.501 505.9 955.501 505.9C959.501 508.8 963.201 512 966.801 515.3C968.501 516.9 970.201 518.5 971.801 520.2C973.901 522.3 975.901 524.5 977.801 526.8C979.201 528.4 980.601 530 981.901 531.7C988.401 539.8 994.101 548.6 999.201 557.9C1000.1 559.5 1001 561.2 1001.8 562.8C1002.9 565 1004 567.1 1005 569.3C1005.8 570.9 1006.5 572.6 1007.3 574.2C1010.4 581.1 1013.2 588.3 1015.7 595.5C1016.3 597.1 1016.8 598.8 1017.4 600.4C1018.1 602.6 1018.8 604.7 1019.5 606.9C1020 608.5 1020.5 610.2 1021 611.8C1023.3 619.7 1025.3 627.6 1027.1 635.5C1027.5 637.1 1027.8 638.8 1028.2 640.4C1028.7 642.6 1029.1 644.8 1029.5 647C1029.8 648.6 1030.1 650.3 1030.4 651.9C1031.9 659.9 1033.1 667.9 1034.2 675.6C1034.4 677 1034.6 678.3 1034.8 679.7C1035 679.9 1035.1 680.2 1035.1 680.5Z" fill="#FECA55"/>
<path d="M940 596.9C938.2 581.4 936.5 565.9 934.7 550.4C934.6 549.6 933.4 549.6 933.5 550.4C935.3 565.9 937 581.4 938.8 596.9C939.2 596.9 939.6 596.9 940 596.9Z" fill="white"/>
<path d="M1035.1 680.5H918.6C918.5 679 918.3 677.4 918.2 675.6H1034.5C1034.7 677 1034.9 678.3 1035.1 679.7C1035 679.9 1035.1 680.2 1035.1 680.5Z" fill="white"/>
<path d="M1028.3 640.4H915.201C915.101 638.8 915.001 637.2 914.801 635.5H1027.2C1027.6 637.1 1028 638.7 1028.3 640.4Z" fill="white"/>
<path d="M1030.6 651.8H916.1C916 650.2 915.8 648.6 915.7 646.9H1029.6C1030 648.6 1030.3 650.2 1030.6 651.8Z" fill="white"/>
<path d="M971.9 520.1H911.9C912.2 518.4 912.6 516.7 913.1 515.2H966.9C968.6 516.8 970.3 518.4 971.9 520.1Z" fill="white"/>
<path d="M982.1 531.5H911C911.1 529.8 911.1 528.2 911.2 526.6H978C979.4 528.2 980.7 529.9 982.1 531.5Z" fill="white"/>
<path d="M1002 562.6H911C911 560.9 910.9 559.3 910.9 557.7H999.4C1000.3 559.3 1001.1 561 1002 562.6Z" fill="white"/>
<path d="M1007.5 574.1H911.301C911.201 572.5 911.201 570.8 911.101 569.2H1005.2C1006 570.8 1006.8 572.4 1007.5 574.1Z" fill="white"/>
<path d="M1017.6 600.3H912.601C912.501 598.7 912.401 597 912.301 595.4H1015.9C1016.5 597 1017.1 598.6 1017.6 600.3Z" fill="white"/>
<path d="M1002.5 609.9C1001.9 608.4 956.1 606.7 941.3 609.7L942.3 620.3C892.1 621.1 859.5 629.8 840.9 637.1C828.7 640 808.8 643.9 803.3 650.1C796.8 657.5 791.7 662 796.7 666.7C796.1 667.8 798.3 672.3 800.7 671.1C800.2 671.9 801.7 674.3 805.6 674.5C808.5 677 814.5 673.7 818 668.4C821.1 667.5 824.8 666.8 827.7 663C827.7 663 842.3 670.1 860.7 659.6C860.7 659.6 899.3 680.6 974.9 673.7C1022.1 669.4 1017.2 647.3 1002.5 609.9Z" fill="#952C28"/>
<path d="M948.6 620.6C947.2 620.4 945.7 620.2 944.3 620C943.5 619.9 943.2 621.1 944 621.2C945.4 621.4 946.9 621.6 948.3 621.8C949.1 621.9 949.4 620.7 948.6 620.6Z" fill="white"/>
<path d="M815.9 660C812 663.7 808.7 668 806.1 672.7C805.7 673.4 806.8 674 807.2 673.3C809.8 668.7 813 664.5 816.8 660.9C817.4 660.3 816.5 659.4 815.9 660Z" fill="black"/>
<path d="M810.8 655.2C806.5 659.5 803.3 664.5 801.2 670.2C800.9 670.9 802.1 671.3 802.4 670.5C804.4 665 807.5 660.1 811.7 656C812.3 655.5 811.4 654.6 810.8 655.2Z" fill="black"/>
<path d="M808.3 651C801.3 652.3 798.8 659.2 796.9 665.2C796.7 666 797.9 666.3 798.1 665.5C799.8 659.9 802.1 653.4 808.6 652.2C809.4 652.1 809 650.9 808.3 651Z" fill="black"/>
<path d="M1021.2 611.7H913.3C913.2 610.1 913.1 608.4 913 606.8H1019.8C1020.2 608.5 1020.7 610.1 1021.2 611.7Z" fill="white"/>
<path d="M998.2 793.8H846C844 793.8 842.3 792.2 842.3 790.1C842.3 788.1 843.9 786.4 846 786.4H998.2C1015.8 786.4 1031 774.5 1035.3 757.4L1090.4 535.5C1090.9 533.5 1092.9 532.3 1094.9 532.8C1096.9 533.3 1098.1 535.3 1097.6 537.3L1042.5 759.2C1037.3 779.6 1019.1 793.8 998.2 793.8Z" fill="#D24A43"/>
<path d="M864.6 791.1C854.4 856.8 844.1 922.4 833.9 988.1C833.2 992.7 840.3 994.7 841 990.1C851.3 923.8 861.7 857.5 872 791.3C869.5 791.3 867.1 791.2 864.6 791.1Z" fill="#D24A43"/>
<path d="M1049.3 988.9C1038.6 920.9 1027.9 852.9 1017.2 784.9C1015 786.1 1012.7 787 1010.2 787.8C1020.8 854.9 1031.3 922.1 1041.9 989.2C1042.7 993.9 1050.1 993.6 1049.3 988.9Z" fill="#D24A43"/>
<path d="M796.2 674.5C782.6 642.2 775.2 625.6 761.6 593.3C761 591.9 758.6 592.5 759.2 594C772.8 626.3 780.2 642.9 793.8 675.2C794.5 676.6 796.9 676 796.2 674.5Z" fill="black"/>
<path d="M884.3 674.5H796.5C794.9 674.5 794.9 677 796.5 677H884.3C885.9 676.9 885.9 674.5 884.3 674.5Z" fill="black"/>
<path d="M790.1 571.8L777 589.8C776.1 591.1 778.2 592.3 779.1 591C783.5 585 787.8 579 792.2 573C793.1 571.8 791 570.6 790.1 571.8Z" fill="#FECA55"/>
<path d="M797.8 588.5L781.4 597.5C780 598.3 781.3 600.4 782.6 599.6L799 590.6C800.5 589.9 799.2 587.8 797.8 588.5Z" fill="#FECA55"/>
<path d="M532.6 555.3H512.1V605.2H532.6V555.3Z" fill="#697CCC"/>
<path d="M507.199 567.5H486.699V617.4H507.199V567.5Z" fill="#697CCC"/>
<path d="M557.899 581.4H537.399V631.3H557.899V581.4Z" fill="#BCD7FD"/>
<path d="M610.8 568.6C606.7 574.3 602.6 580.1 598.5 585.8C597.6 587.1 599.7 588.3 600.6 587C604.7 581.3 608.8 575.5 612.9 569.8C613.9 568.5 611.7 567.3 610.8 568.6Z" fill="#FECA55"/>
<path d="M623.5 589.4C617.5 592.9 611.5 596.5 605.5 600C604.1 600.8 605.4 602.9 606.7 602.1C612.7 598.6 618.7 595 624.7 591.5C626.1 590.7 624.9 588.6 623.5 589.4Z" fill="#FECA55"/>
<path d="M586.2 572.1C585.4 574.8 584.6 577.6 583.7 580.3C583.2 581.8 585.6 582.5 586.1 581C586.9 578.3 587.7 575.5 588.6 572.8C589 571.3 586.6 570.6 586.2 572.1Z" fill="#FECA55"/>
<path d="M611.5 682.9H488.1L466.6 592.7H590L611.5 682.9Z" fill="black"/>
<path d="M635.5 674.5H547.7C546.1 674.5 546.1 677 547.7 677H635.5C637.1 676.9 637.1 674.5 635.5 674.5Z" fill="black"/>
<path d="M519.9 640.4C517.4 636.1 514.8 631.8 512.3 627.4C511.5 626 509.4 627.3 510.2 628.6C512.7 632.9 515.3 637.2 517.8 641.6C518.6 643 520.7 641.8 519.9 640.4Z" fill="white"/>
<path d="M526.899 640.6C524.399 636.5 521.999 632.4 519.499 628.3C518.699 626.9 516.599 628.2 517.399 629.5C519.899 633.6 522.299 637.7 524.799 641.8C525.599 643.2 527.799 642 526.899 640.6Z" fill="white"/>
<path d="M394.999 674.7L334.999 671.2L210.899 664L217.399 557.6L252.999 541.8L283.699 528.1C287.399 528 290.999 527.8 294.199 527.7C336.199 525.9 343.199 523.9 362.199 574.8C382.799 629.7 394.999 674.7 394.999 674.7Z" fill="#BCD7FD"/>
<path d="M329.6 624.4L327.1 643.3C327 644.1 328.2 644.1 328.3 643.3L330.8 624.4C330.9 623.6 329.7 623.6 329.6 624.4Z" fill="white"/>
<path d="M334.7 599.5C332.6 588.1 329.3 577 325 566.2C324.7 565.5 323.5 565.8 323.8 566.5C327.4 575.5 330.3 584.7 332.3 594.2C333.4 599.1 334.3 604.1 334.9 609.1C335.5 614.3 335.5 620.3 330.6 623.5C329.9 623.9 330.6 625 331.2 624.6C339.5 619.2 336.2 607.3 334.7 599.5Z" fill="white"/>
<path d="M343.4 614.1C336.5 620.4 332.8 629.4 333.3 638.7C333.3 639.5 334.6 639.5 334.5 638.7C334 629.7 337.5 621 344.2 614.9C344.8 614.4 344 613.6 343.4 614.1Z" fill="white"/>
<path d="M391.8 646C397.2 641.1 401.9 634 396.7 627.2C394.6 624.4 391.5 622.4 388 620.9C381.9 617.1 375.1 614.6 367.7 616.3C360.8 617.8 351.7 626.4 350.3 633.1C348.5 637.7 354.5 639.8 356.3 644.6C368.3 644.8 380.1 644.2 391.8 646ZM363.1 631.8C364.3 630.7 365.5 629.5 366.8 628.4H366.9C367 629.1 367.1 629.8 367.1 630.5C366.8 633 366.2 635.4 365.4 637.7C365.1 638.1 364.8 638.6 364.6 639C364 636.7 363 634.4 362.2 632.3C362.5 632.3 362.8 632.1 363.1 631.8Z" fill="#FFA79B"/>
<path d="M377 629.9C375.2 634 373.5 638.1 371.7 642.2C371.4 642.9 372.4 643.5 372.8 642.8C374.6 638.7 376.3 634.6 378.1 630.5C378.4 629.8 377.4 629.2 377 629.9Z" fill="#D24A43"/>
<path d="M385.1 633.1C383.3 636.5 381.6 639.9 379.8 643.3C379.4 644 380.5 644.6 380.9 643.9C382.7 640.5 384.4 637.1 386.2 633.7C386.5 633 385.4 632.4 385.1 633.1Z" fill="#D24A43"/>
<path d="M393.8 634.4C392.1 637.8 390.3 641.3 388.6 644.7C388.2 645.4 389.3 646 389.7 645.3C391.4 641.9 393.2 638.4 394.9 635C395.3 634.3 394.2 633.7 393.8 634.4Z" fill="#D24A43"/>
<path d="M373.1 597.4C372.9 598.6 372.8 599.8 372.6 601C372.5 601.4 372.5 601.8 372.4 602.2C370.9 613.6 369.4 625 367.9 636.4C366.6 638.4 365.4 640.4 364.4 642.4C363.8 639.8 363 637.2 362 634.7C363.4 623.9 364.8 613 366.3 602.2C366.4 601.8 366.4 601.4 366.5 601C366.6 599.8 366.8 598.6 367 597.4C367.2 596 368.1 595.1 369.2 594.7C370 594.4 370.9 594.4 371.7 594.7C372.6 595.1 373.3 596 373.1 597.4Z" fill="#2252B2"/>
<path d="M369.8 590.6C369.3 593.9 368.9 597.2 368.4 600.5C368.2 602.1 370.6 602.6 370.8 601C371.3 597.7 371.7 594.4 372.2 591.1C372.4 589.5 370 589 369.8 590.6Z" fill="#2252B2"/>
<path d="M372.6 601C372.5 601.4 372.5 601.8 372.4 602.2H366.3C366.4 601.8 366.4 601.4 366.5 601H372.6Z" fill="black"/>
<path d="M346.7 678H168.3C169.9 662.4 166.7 615 179.8 569.2C190.2 532.7 201.7 528.9 244.2 528.5C255.1 528.4 268.1 528.5 283.7 528.3L265.6 561.4L229.6 627.3C263.5 632.8 312.7 658.8 334.9 671.3C342.3 675.4 346.7 678 346.7 678Z" fill="#BCD7FD"/>
<path d="M346.7 678C346.7 678 299.1 649.3 257.1 634.6C245 646.8 236.6 662.2 229.1 678H346.7Z" fill="#FFA79B"/>
<path d="M253.899 632.4C246.899 629.3 239.599 626.8 232.099 625.1C231.699 625 231.299 624.9 230.899 624.8C225.499 623.6 220.099 622.7 214.499 622.2C213.699 622.1 213.699 620.9 214.499 621C219.999 621.5 225.499 622.3 230.799 623.5C231.199 623.6 231.599 623.7 231.999 623.8C239.699 625.6 247.199 628.1 254.399 631.3C255.299 631.6 254.599 632.7 253.899 632.4Z" fill="white"/>
<path d="M232.2 625C231.8 624.9 231.4 624.8 231 624.7C231 624.3 231 623.9 231 623.4C230.5 609.1 230 594.8 229.5 580.5C229.5 579.7 230.7 579.7 230.7 580.5C231.2 594.9 231.7 609.3 232.2 623.6C232.1 624.2 232.2 624.6 232.2 625Z" fill="white"/>
<path d="M294.299 527.8L281.299 585.3L265.699 561.3L252.999 541.9L244.199 528.4C255.099 528.3 268.099 528.4 283.699 528.2C287.499 528.1 290.999 528 294.299 527.8Z" fill="#FFA79B"/>
<path d="M294 510.7C293.1 511.5 283.1 552.9 283.1 552.9L249.5 535L271.5 500.6L294 510.7Z" fill="#FFA79B"/>
<path d="M290.399 523.1C292.099 516.3 293.599 510.9 293.899 510.6L285.499 506.8C284.999 512.7 286.499 519.3 290.399 523.1Z" fill="black"/>
<path d="M240.2 482C239 472.3 252.3 460.2 263.7 457.2C268.7 455.9 269.3 451.7 272.2 454.8C279.3 462.4 302.4 487.2 302.8 495.6C303.4 510.4 286.3 516 274.1 512.2C261.6 508.4 241.8 495.9 240.2 482Z" fill="#FFA79B"/>
<path d="M285.2 519C287.1 505.7 272.4 486.4 272.6 484C273.9 476.6 268.7 470.5 263.5 467C267.2 466.7 273.8 459.1 273.5 454.7C272.6 448.4 268.6 447.8 266.9 448.1C262.9 448.9 259.1 453.2 257 457.2C255.7 456.9 254.3 457 252.8 457.7C245.8 461.2 238.9 467.5 236.9 475.4C236.6 476.7 236.4 478 236.4 479.3C233.2 483 231.8 487.8 233.8 493.1C233.8 493.1 233.8 493.1 233.8 493.2C232.2 494.1 230.7 495.2 229.5 496.7C226.7 500.1 225.8 504.8 227.2 509C228 511.3 229.3 513.2 230.9 514.6C229.5 521.3 231.4 528.4 238.1 531.9C240.8 533.3 243.9 533.6 246.7 533C248.8 538.6 255.4 542 261.4 540C263.4 539.3 265 538.3 266.2 536.9C272.8 540 282.6 537.3 285.8 530.3C287.6 526.7 287.3 522.3 285.2 519Z" fill="#D24A43"/>
<path d="M262.699 497.2C260.699 492 264.999 484.4 272.699 484.1C276.799 488.5 281.099 492.8 285.399 497.1C283.999 500.3 279.099 504.8 274.199 505.1C268.599 505.4 264.899 502.8 262.699 497.2Z" fill="#FFA79B"/>
<path d="M290.7 471.6C289 470 286.3 470.4 285 472.2C284.6 472.8 284.9 473.7 285.5 474.1C285.6 474.1 285.6 474.1 285.7 474.2C285.6 474.4 285.5 474.6 285.4 474.8C284.8 476.4 287.4 477.2 288 475.6C288 475.6 288.1 475.5 288 475.7C287.4 476.8 288.6 478.3 289.8 477.6C291.9 476.4 292.5 473.3 290.7 471.6Z" fill="#FFA79B"/>
<path d="M276.2 466.5L274.7 469.3C273.9 470.7 276.1 471.9 276.8 470.5C277.3 469.6 277.8 468.7 278.3 467.7C279 466.4 276.9 465.1 276.2 466.5Z" fill="#952C28"/>
<path d="M275.9 493.6C274 494 272 494.4 270.1 494.8C269.3 495 269.7 496.1 270.4 496C272.3 495.6 274.3 495.2 276.2 494.8C277 494.6 276.7 493.4 275.9 493.6Z" fill="#D24A43"/>
<path d="M293.3 491.9C292.2 492.7 291 492.8 289.8 492.3C289.1 492 288.8 493.2 289.5 493.5C291 494.1 292.7 493.9 294 493C294.5 492.5 293.9 491.4 293.3 491.9Z" fill="#D24A43"/>
<path d="M283.2 472.6C282.2 471.8 281.1 471 280.1 470.2C279.5 469.7 278.6 470.6 279.2 471.1C280.2 471.9 281.3 472.7 282.3 473.5C282.9 474 283.8 473.1 283.2 472.6Z" fill="black"/>
<path d="M399.8 990.6C399.3 986 396.4 970.6 381.1 965.7C364.4 960.4 350.3 970.2 387.9 874.9C378.4 873.6 368.9 871.9 359.4 870.1C348.6 868 337.9 866 327 864.4C324.2 864 321.3 863.6 318.5 863.1C312.5 890.2 307.8 931.1 309.8 990.6H399.8Z" fill="#FFA79B"/>
<path d="M531.9 990.6C524.3 961 509 971.5 485.9 957.9C474.9 951.4 471.8 909 468 861.6C445.3 866.8 422.1 870.3 399.6 876.4C414.3 926.8 431.3 978.8 435.1 990.6H531.9Z" fill="#FFA79B"/>
<path d="M354.099 715.7C312.399 712.4 312.399 712.4 312.399 712.4L318.299 680.1H179.999C171.999 787.3 163.399 806.5 300.099 799.1L333.699 796.6C333.699 796.6 315.699 840 307.099 873.1C328.899 875.1 387.499 888.5 388.099 889.1C391.999 879 443.199 722.7 354.099 715.7Z" fill="#0083F9"/>
<path d="M223.1 709.5C235.6 701.7 247.4 691.8 256.7 680.1H180C178.7 697 177.5 711.7 176.8 724.5C193 724.7 209.3 718.1 223.1 709.5Z" fill="black"/>
<path d="M399.8 990.6C399.3 986 396.4 970.6 381.1 965.7C377.5 964.5 374 964.1 371.1 963.2C363.3 965 355.6 967.4 347.5 968.8C339.5 970.2 331.7 970.2 323.6 969.5C318.8 969.1 314.1 968.6 309.3 968.6C309.3 975.7 309.5 983 309.8 990.7H399.8V990.6Z" fill="#952C28"/>
<path d="M475.199 869.5C468.699 826.9 460.799 786.1 453.099 754.9C439.199 698.4 403.999 705.8 297.199 695.2C297.199 695.2 335.299 756.6 376.199 776.2C375.799 791.4 381.899 839.6 395.399 885.5C395.399 885.5 452.999 874.1 475.199 869.5Z" fill="#0083F9"/>
<path d="M531.899 990.6C524.499 961.8 509.899 970.9 487.899 959C479.399 962.9 471.399 967.9 462.299 970.2C451.099 973.1 439.799 970.6 428.499 970.3C431.599 979.9 433.899 987 435.099 990.6H531.899Z" fill="#952C28"/>
<path d="M430.1 732.4C426.8 724.7 420.6 718.2 412.2 716.2C411.4 716 411.1 717.2 411.9 717.4C420.1 719.4 426.2 725.9 429.3 733.7C432.9 742.7 432.1 752.8 430.3 762.2C426.8 781 421 799.5 414.1 817.3C410.1 827.7 405.6 837.9 400.7 847.9C400.4 848.6 401.4 849.2 401.8 848.5C411 829.9 418.6 810.6 424.5 790.7C427.5 780.5 430.3 770.2 432 759.7C433.4 750.6 433.7 741 430.1 732.4Z" fill="white"/>
<path d="M310.699 697.3C301.199 697.1 291.599 697 282.099 696.8C281.299 696.8 281.299 698 282.099 698C291.599 698.2 301.199 698.3 310.699 698.5C311.499 698.5 311.499 697.3 310.699 697.3Z" fill="white"/>
<path d="M338.1 788.9C337 790.3 335.9 791.6 334.8 793C334.3 793.6 335.2 794.5 335.7 793.9C336.8 792.5 337.9 791.2 339 789.8C339.5 789.1 338.6 788.3 338.1 788.9Z" fill="white"/>
<path d="M321.4 629.7C316.1 623.7 310.8 617.7 305.5 611.7C304.5 610.5 302.7 612.3 303.8 613.4C309.1 619.4 314.4 625.4 319.7 631.4C320.7 632.6 322.4 630.9 321.4 629.7Z" fill="#D24A43"/>
<path d="M346.2 600.3C346.2 598.7 343.7 598.7 343.7 600.3C344 611.1 344.3 621.8 344.7 632.6C344.7 634.2 347.2 634.2 347.2 632.6C346.9 621.8 346.6 611 346.2 600.3Z" fill="#D24A43"/>
<path d="M311.8 634.3L298.201 623.7C297.001 622.7 295.201 624.5 296.501 625.4L310.101 636C311.301 637 313.1 635.3 311.8 634.3Z" fill="#D24A43"/>
<path d="M272.7 678H406L425.3 648C427 645.3 425.1 641.8 421.9 641.8H301.5C298 641.8 294.7 643.6 292.8 646.5L272.7 678Z" fill="black"/>
<path d="M325.101 676.8C319.001 670.7 312.801 664.5 306.701 658.4C305.601 657.3 303.801 659 305.001 660.1C311.101 666.2 317.301 672.4 323.401 678.5C324.401 679.6 326.201 677.9 325.101 676.8Z" fill="#2252B2"/>
<path d="M432.7 676.8C426.6 670.7 420.4 664.5 414.3 658.4C413.2 657.3 411.4 659 412.6 660.1C418.7 666.2 424.9 672.4 431 678.5C432.1 679.6 433.8 677.9 432.7 676.8Z" fill="#2252B2"/>
<path d="M296.5 646.9C294.1 650.9 291.7 654.9 289.3 658.9C288.9 659.6 290 660.2 290.4 659.5L297.6 647.5C298 646.8 296.9 646.2 296.5 646.9Z" fill="white"/>
<path d="M423.199 254.3L387.899 505.1C384.499 528.9 381.199 552.8 377.799 576.6C377.599 578.1 379.899 578.8 380.199 577.3C391.999 493.7 403.699 410.1 415.499 326.5C418.899 302.7 422.199 278.8 425.599 255C425.799 253.4 423.499 252.7 423.199 254.3Z" fill="#BCD7FD"/>
<path d="M383.6 578.1C383.8 580.8 381.4 583 378.7 583C376 583 373.8 580.8 373.8 578.1C373.8 575.4 376 573.2 378.7 573.2C381.5 573.3 383.4 574.9 383.6 578.1Z" fill="#BCD7FD"/>
<path d="M731.901 437.4C732.101 440.1 729.701 442.3 727.001 442.3C724.301 442.3 722.101 440.1 722.101 437.4C722.101 434.7 724.301 432.5 727.001 432.5C729.701 432.5 731.601 434.2 731.901 437.4Z" fill="#BCD7FD"/>
<path d="M728.1 436.9C702 395 675.9 353 649.7 311.1C648.9 309.8 646.7 311 647.6 312.3C673.7 354.2 699.8 396.2 726 438.1C726.8 439.5 728.9 438.3 728.1 436.9Z" fill="#BCD7FD"/>
<path d="M527.5 525.2C527.7 527.9 525.3 530.1 522.6 530.1C519.9 530.1 517.7 527.9 517.7 525.2C517.7 522.5 519.9 520.3 522.6 520.3C525.3 520.3 527.2 522 527.5 525.2Z" fill="#BCD7FD"/>
<path d="M524.099 524.3C513.799 475.2 503.499 426.1 493.199 377C492.899 375.5 490.499 376.1 490.799 377.7C501.099 426.8 511.399 475.9 521.699 525C521.999 526.5 524.399 525.8 524.099 524.3Z" fill="#BCD7FD"/>
<path d="M485.7 640.6H455.6V678H485.7V640.6Z" fill="#FECA55"/>
<path d="M460.7 669.2C454.9 674.1 447.7 668.9 446.6 662.5C445.5 656.4 450.6 646.7 457.7 651.9C459 652.8 460.2 650.7 458.9 649.8C450.2 643.5 442.7 654.8 444.1 662.9C445.6 671.4 455.1 677.1 462.4 671C463.6 669.9 461.9 668.2 460.7 669.2Z" fill="#FECA55"/>
<path d="M467.2 625.8C468.4 624.7 466.6 623 465.5 624.1C461.5 627.8 461.4 634.3 465.2 638.2C466.3 639.3 468 637.6 466.9 636.5C464 633.5 464.1 628.6 467.2 625.8Z" fill="#BCD7FD"/>
<path d="M472.799 626.3C473.999 625.2 472.199 623.5 471.099 624.6C467.099 628.3 466.999 634.8 470.799 638.7C471.899 639.8 473.599 638.1 472.499 637C469.599 633.9 469.799 629.1 472.799 626.3Z" fill="#BCD7FD"/>
<path d="M784.7 347.9C755.5 347.9 731.8 324.2 731.8 295C731.8 265.8 755.5 242.1 784.7 242.1C815.4 242.1 834.7 261.3 837.6 294.9C838.7 307.7 834.3 320.2 825.2 330.2C815 341.3 799.8 347.9 784.7 347.9ZM784.7 244.6C756.9 244.6 734.2 267.2 734.2 295.1C734.2 322.9 756.8 345.6 784.7 345.6C799.2 345.6 813.6 339.3 823.4 328.7C832.1 319.3 836.2 307.4 835.2 295.3C832.3 263 813.9 244.6 784.7 244.6Z" fill="#697CCC"/>
<path d="M785.2 263.5C785.2 261.9 782.7 261.9 782.7 263.5L783.4 292.6C783.4 294.2 785.9 294.2 785.9 292.6L785.2 263.5Z" fill="#697CCC"/>
<path d="M807.1 296.7H787.5C785.9 296.7 785.9 299.2 787.5 299.2H807.1C808.7 299.1 808.7 296.7 807.1 296.7Z" fill="#697CCC"/>
<path d="M634 129.7C621.8 129.4 608.3 121.8 597.7 118.4C585.4 114.5 569.7 114.9 562.1 127C561.3 128.3 563.4 129.6 564.2 128.2C575.8 109.6 600.2 122.2 615.2 127.9C627.8 132.7 643.9 134.8 653.7 123.5C654.7 122.3 653 120.6 652 121.8C646.9 127.9 640.6 129.9 634 129.7Z" fill="#DEE7FF"/>
<path d="M634 115.8C621.8 115.5 608.3 107.9 597.7 104.5C585.4 100.6 569.7 101 562.1 113.1C561.3 114.4 563.4 115.7 564.2 114.3C575.8 95.7 600.2 108.3 615.2 114C627.8 118.8 643.9 120.9 653.7 109.6C654.7 108.4 653 106.7 652 107.9C646.9 114 640.6 116 634 115.8Z" fill="#DEE7FF"/>
<path d="M766 119.4C756.2 129.8 746.4 140.3 736.6 150.7C735.5 151.9 737.3 153.6 738.3 152.4C748.1 142 757.9 131.5 767.7 121.1C768.8 120 767 118.2 766 119.4Z" fill="#DEE7FF"/>
<path d="M769.5 134C762.1 142 754.8 150 747.4 157.9C746.3 159.1 748.1 160.8 749.1 159.6C756.5 151.6 763.8 143.6 771.2 135.7C772.3 134.6 770.6 132.9 769.5 134Z" fill="#DEE7FF"/>
<path d="M296.2 347.2C292.1 352.5 288 357.8 283.9 363.2C282.9 364.5 285.1 365.7 286 364.4C290.1 359.1 294.2 353.8 298.3 348.4C299.2 347.2 297.1 345.9 296.2 347.2Z" fill="#DEE7FF"/>
<path d="M163.1 496.6C155.4 488.3 147.7 480.1 140.1 471.8C139 470.6 137.3 472.4 138.4 473.5C146.1 481.8 153.8 490 161.4 498.3C162.5 499.5 164.2 497.8 163.1 496.6Z" fill="#DEE7FF"/>
<path d="M154.7 512.9C147.7 503.5 140.8 494.1 133.8 484.7C132.9 483.4 130.7 484.7 131.7 485.9L152.6 514.1C153.5 515.4 155.6 514.2 154.7 512.9Z" fill="#DEE7FF"/>
<path d="M428.5 596.3C425.6 602.8 422.7 609.4 419.8 615.9C419.2 617.3 421.3 618.6 421.9 617.1C424.8 610.6 427.7 604 430.6 597.5C431.2 596.1 429.1 594.8 428.5 596.3Z" fill="#DEE7FF"/>
<path d="M105 878.9C104.7 877.4 102.3 878 102.6 879.6C106.2 896.3 76.3996 888.1 68.0996 892.9C62.3996 896.2 60.0996 904.2 65.2996 908.9C66.4996 910 68.1996 908.2 66.9996 907.2C62.8996 903.4 65.0996 897.6 69.2996 895C72.3996 893.1 76.1996 893 79.6996 893C84.7996 893 89.8996 894 94.8996 892.8C101.5 891.2 106.5 885.7 105 878.9Z" fill="#DEE7FF"/>
<path d="M111.2 888.7C110.9 887.2 108.5 887.8 108.8 889.4C112.4 906.1 82.5998 897.9 74.2998 902.7C68.5998 906 66.2998 914 71.4998 918.7C72.6998 919.8 74.3998 918 73.1998 917C69.0998 913.2 71.2998 907.4 75.4998 904.8C78.5998 902.9 82.3998 902.8 85.8998 902.8C90.9998 902.8 96.0998 903.8 101.1 902.6C107.7 901 112.6 895.5 111.2 888.7Z" fill="#DEE7FF"/>
<path d="M257.3 937.6C251.7 931.8 246 926 240.4 920.2C239.3 919.1 237.6 920.8 238.7 921.9C244.3 927.7 250 933.5 255.6 939.3C256.7 940.5 258.4 938.8 257.3 937.6Z" fill="#DEE7FF"/>
<path d="M264.9 932.5C261.6 929.6 258.4 926.8 255.1 923.9C253.9 922.9 252.2 924.6 253.4 925.6C256.7 928.5 259.9 931.3 263.2 934.2C264.4 935.3 266.1 933.5 264.9 932.5Z" fill="#DEE7FF"/>
<path d="M491.3 781.7L482.7 796.4C481.9 797.8 484 799 484.8 797.6C487.7 792.7 490.5 787.8 493.4 782.9C494.2 781.6 492.1 780.3 491.3 781.7Z" fill="#DEE7FF"/>
<path d="M755.1 917.9C753.1 922.4 751 926.9 749 931.4C748.4 932.8 750.5 934.1 751.1 932.6C753.1 928.1 755.2 923.6 757.2 919.1C757.9 917.7 755.8 916.5 755.1 917.9Z" fill="#DEE7FF"/>
<path d="M963.4 919.1C956 924.4 948.6 929.7 941.2 935C939.9 935.9 941.2 938 942.4 937.1C949.8 931.8 957.2 926.5 964.6 921.2C965.9 920.3 964.7 918.2 963.4 919.1Z" fill="#DEE7FF"/>
<path d="M970.499 932.3C963.099 936 955.799 939.7 948.399 943.3C946.999 944 948.199 946.1 949.599 945.4C956.999 941.7 964.299 938 971.699 934.4C973.199 933.7 971.999 931.6 970.499 932.3Z" fill="#DEE7FF"/>
<path d="M1052.5 535.1L1041.7 554.9C1040.9 556.3 1043.1 557.5 1043.8 556.1C1047.4 549.5 1051 542.9 1054.6 536.3C1055.4 534.9 1053.3 533.7 1052.5 535.1Z" fill="#DEE7FF"/>
<path d="M67.9994 258.1C67.7994 256.5 65.3994 256.5 65.4994 258.1C66.6994 268.9 48.9994 259.8 44.3994 260C40.9994 260.2 38.0994 261.6 36.6994 264.8C36.0994 266.2 38.1994 267.5 38.7994 266C42.6994 257.1 54.4994 267.1 60.8994 266.1C65.0994 265.5 68.4994 262.5 67.9994 258.1Z" fill="#DEE7FF"/>
<path d="M67.3998 269.8C67.1998 268.2 64.7998 268.2 64.8998 269.8C66.0998 280.6 48.3998 271.5 43.7998 271.7C40.3998 271.9 37.4998 273.3 36.0998 276.5C35.4998 277.9 37.5998 279.2 38.1998 277.7C42.0998 268.8 53.8998 278.8 60.2998 277.8C64.3998 277.2 67.8998 274.1 67.3998 269.8Z" fill="#DEE7FF"/>
<path d="M966.9 307.5C959.9 310.8 953 314 946 317.3C944.6 318 945.8 320.1 947.2 319.4C954.2 316.1 961.1 312.9 968.1 309.6C969.5 308.9 968.3 306.8 966.9 307.5Z" fill="#DEE7FF"/>
<path d="M898.699 275.4C898.599 275.4 898.499 275.4 898.499 275.4L860.399 268C859.999 267.9 859.599 267.6 859.499 267.2C859.399 266.8 859.499 266.3 859.799 266C860.299 265.4 872.199 252.4 875.999 249.8C876.499 249.5 877.199 249.5 877.599 250L899.699 273.3C900.099 273.7 900.099 274.3 899.899 274.7C899.599 275.1 899.199 275.4 898.699 275.4ZM863.099 266L895.199 272.2L876.499 252.4C873.199 255.1 866.099 262.7 863.099 266Z" fill="#DEE7FF"/>
<path d="M1073.1 890.4C1072.9 890.4 1072.7 890.4 1072.6 890.3L990.3 851C989.9 850.8 989.7 850.5 989.6 850C989.5 849.6 989.7 849.2 990 848.9C992.5 846.8 1051.5 797.3 1055.2 794.8C1055.5 794.6 1056 794.5 1056.4 794.7C1056.8 794.9 1057.1 795.2 1057.1 795.6L1074.3 888.9C1074.4 889.4 1074.2 889.8 1073.8 890.1C1073.6 890.3 1073.3 890.4 1073.1 890.4ZM993.1 849.6L1071.5 887L1055.1 798C1047.1 804.4 1012.7 833.1 993.1 849.6Z" fill="#DEE7FF"/>
<path d="M74.5997 598.6C74.3997 598.6 74.1997 598.5 73.9997 598.4C73.6997 598.2 73.3997 597.8 73.3997 597.4C73.1997 595 68.8997 538.9 69.6997 529.1C69.6997 528.7 69.9997 528.3 70.2997 528.1C70.6997 527.9 71.0997 527.9 71.3997 528.1L144 564.3C144.4 564.5 144.7 564.9 144.7 565.4C144.7 565.9 144.4 566.3 144 566.5L75.0997 598.4C74.8997 598.6 74.7997 598.6 74.5997 598.6ZM71.9997 531.3C71.6997 543.4 74.8997 586.3 75.5997 595.6L140.6 565.5L71.9997 531.3Z" fill="#DEE7FF"/>
<path d="M175.4 189.2C175.1 189.2 174.9 189.1 174.6 188.9C174.2 188.6 174.1 188.2 174.2 187.7C174.2 187.4 179.1 162.3 179.4 158.7C179.4 158.2 179.7 157.8 180.1 157.7C180.5 157.5 181 157.6 181.4 157.9L202.3 175.1C202.6 175.4 202.8 175.8 202.7 176.2C202.6 176.6 202.4 177 202 177.2L175.9 189.2C175.7 189.1 175.6 189.2 175.4 189.2ZM181.5 161.1C180.6 166.9 178.1 180.3 177 185.8L199.1 175.6L181.5 161.1Z" fill="#DEE7FF"/>
<path d="M160 348.6C156.7 338.8 153.4 329 150.2 319.1C149.7 317.6 147.3 318.2 147.8 319.8C151.1 329.6 154.4 339.4 157.6 349.3C158.1 350.8 160.5 350.1 160 348.6Z" fill="#DEE7FF"/>
<path d="M1087.1 410.3C1086.8 408.8 1084.4 409.4 1084.7 411C1086.3 418.8 1078.6 422.7 1072.1 422.7C1067.5 422.7 1063.1 421.3 1058.7 420.2C1053.2 418.9 1047.7 418.4 1042.2 420.3C1032.7 423.7 1026.2 432.4 1025.3 442.3C1025.2 443.9 1027.6 443.9 1027.8 442.3C1028.5 434.2 1033.5 427 1040.9 423.5C1049.9 419.2 1058.4 423.3 1067.5 424.6C1076.9 426.1 1089.6 422 1087.1 410.3Z" fill="#DEE7FF"/>
<path d="M1091.6 430C1091.3 428.5 1088.9 429.1 1089.2 430.7C1090.8 438.5 1083.1 442.4 1076.6 442.4C1072 442.4 1067.6 441 1063.2 439.9C1057.7 438.6 1052.2 438.1 1046.7 440C1037.2 443.4 1030.7 452.1 1029.8 462C1029.7 463.6 1032.1 463.6 1032.3 462C1033 453.9 1038 446.7 1045.4 443.2C1054.4 438.9 1062.9 443 1072 444.3C1081.3 445.8 1094 441.7 1091.6 430Z" fill="#DEE7FF"/>
<path d="M1070.7 140.5C1065.9 145.9 1061.1 151.3 1056.3 156.7C1055.3 157.9 1057 159.6 1058 158.4C1062.8 153 1067.6 147.6 1072.4 142.2C1073.5 141 1071.8 139.3 1070.7 140.5Z" fill="#DEE7FF"/>
<path d="M1073.4 154.2L1066 161.6C1064.9 162.7 1066.6 164.5 1067.7 163.3L1075.1 155.9C1076.3 154.8 1074.5 153.1 1073.4 154.2Z" fill="#DEE7FF"/>
<path d="M605.7 268H434.7V401.4H605.7V268Z" fill="#BCD7FD"/>
<path d="M502.2 356.5H456.8V374.8H502.2V356.5Z" fill="white"/>
<path d="M559.9 376H512V355.3H559.9V376ZM514.5 373.5H557.5V357.7H514.5V373.5Z" fill="#003865"/>
<path d="M549.5 366.2L552.6 387.1L569.1 376L549.5 366.2Z" fill="white"/>
<path d="M566.1 387.4C563.5 383.9 560.9 380.4 558.2 376.9C557.3 375.7 555.1 376.9 556.1 378.1C558.7 381.6 561.3 385.1 564 388.6C564.9 389.9 567 388.7 566.1 387.4Z" fill="white"/>
<path d="M574.6 298.7H456.8V307.3H574.6V298.7Z" fill="#D24A43"/>
<path d="M561.1 318.3H458C456.4 318.3 456.4 320.8 458 320.8H561.1C562.7 320.8 562.7 318.3 561.1 318.3Z" fill="#003865"/>
<path d="M561.1 331.2H458C456.4 331.2 456.4 333.7 458 333.7H561.1C562.7 333.7 562.7 331.2 561.1 331.2Z" fill="#003865"/>
<path d="M595.7 286.2C592.4 282.9 589.1 279.7 585.9 276.4C584.8 275.3 583 277 584.2 278.1C587.5 281.4 590.8 284.6 594 287.9C595.1 289.1 596.8 287.3 595.7 286.2Z" fill="black"/>
<path d="M585.9 288C589.2 284.7 592.4 281.4 595.7 278.2C596.8 277.1 595.1 275.3 594 276.5C590.7 279.8 587.5 283.1 584.2 286.3C583.1 287.4 584.8 289.1 585.9 288Z" fill="black"/>
<path d="M452.8 397.5C453.4 404.9 446.8 410.9 439.4 410.9C432 410.9 426 404.9 426 397.5C426 390.1 432 384.1 439.4 384.1C446.8 384.1 452 388.6 452.8 397.5Z" fill="#697CCC"/>
<path d="M574.6 282.3C574.9 285.6 571.9 288.4 568.5 288.4C565.1 288.4 562.4 285.7 562.4 282.3C562.4 279 565.1 276.2 568.5 276.2C571.9 276.2 574.2 278.3 574.6 282.3Z" fill="#D24A43"/>
<path d="M438.2 392V403C438.2 404.6 440.7 404.6 440.7 403V392C440.6 390.4 438.2 390.4 438.2 392Z" fill="#DEE7FF"/>
<path d="M699.5 990.2H153.6C152 990.2 152 992.7 153.6 992.7H699.5C701 992.7 701 990.2 699.5 990.2Z" fill="#697CCC"/>
<path d="M1098 990.2H716.6C715 990.2 715 992.7 716.6 992.7H1098C1099.6 992.7 1099.6 990.2 1098 990.2Z" fill="#697CCC"/>
<path d="M925.3 676.8H168.1C167.7 676.8 167 681.7 167.2 684.1C167.3 684.1 167.4 684.1 167.5 684.1H925.3C930.1 684.2 930.1 676.8 925.3 676.8Z" fill="#D24A43"/>
</svg>
