<svg width="313" height="264" viewBox="0 0 313 264" fill="none" xmlns="http://www.w3.org/2000/svg">
<path d="M311.968 194.971L296.958 200.739L294.229 193.637C294.074 193.203 293.392 193.451 293.547 193.885C294.353 196.118 296.617 201.824 296.617 201.824L312.247 195.653C312.65 195.467 312.402 194.784 311.968 194.971Z" fill="black"/>
<path d="M292.687 232.844C292.222 232.72 292.036 233.402 292.501 233.557C298.858 235.48 302.673 241.713 301.463 248.287C301.37 248.753 302.084 248.939 302.177 248.474C303.448 241.527 299.448 234.89 292.687 232.844Z" fill="black"/>
<path d="M292.346 225.928C291.881 225.866 291.695 226.549 292.16 226.642C303.2 228.44 310.612 238.953 308.534 249.993C308.441 250.459 309.154 250.645 309.247 250.18C311.387 238.798 303.82 227.82 292.346 225.928Z" fill="black"/>
<path d="M291.136 239.728C290.671 239.604 290.485 240.318 290.95 240.442C294.083 241.217 296.098 244.256 295.726 247.45C295.664 247.915 296.408 247.915 296.439 247.45C296.874 243.915 294.548 240.597 291.136 239.728Z" fill="black"/>
<path d="M288.561 248.786C289.829 249.465 291.414 248.976 292.102 247.693C292.79 246.41 292.319 244.818 291.051 244.139C289.783 243.459 288.198 243.948 287.51 245.232C286.822 246.515 287.293 248.106 288.561 248.786Z" fill="black"/>
<path d="M118.218 263.204H50.6909C50.3641 263.204 50.3641 263.917 50.6909 263.917H118.218C118.545 263.948 118.545 263.204 118.218 263.204Z" fill="#697CCC"/>
<path d="M272.55 263.204H132.551C131.876 263.204 131.876 263.917 132.551 263.917H272.55C273.225 263.948 273.225 263.204 272.55 263.204Z" fill="#697CCC"/>
<path d="M75.776 93.6632C75.5279 93.8802 72.5818 105.107 72.5818 105.107L63.4954 100.021L69.6977 90.748L75.776 93.6632Z" fill="#952C28"/>
<path d="M74.7528 97.0741C75.28 95.2134 75.6832 93.7558 75.7762 93.6938L73.5124 92.6084C73.3573 94.19 73.6984 96.0197 74.7528 97.0741Z" fill="black"/>
<path d="M52.1761 129.079C52.1761 129.079 56.0525 123.497 69.4186 168.898C82.7847 214.299 86.6612 211.384 73.5432 234.457C60.4252 257.53 66.9997 256.32 71.3724 257.282C75.745 258.243 75.2488 263.825 75.2488 263.825H50.9666C52.4242 240.287 61.8828 213.09 61.8828 213.09C61.8828 213.09 51.6799 193.676 43.1826 174.976C34.6854 156.276 42.2213 135.405 42.2213 135.405L52.1761 129.079Z" fill="#952C28"/>
<path d="M53.1684 246.583C57.9132 246.49 62.6891 246.552 67.4339 246.645C68.6433 243.605 70.5971 239.636 73.5432 234.457C86.6612 211.384 82.7847 214.299 69.4186 168.898C56.0835 123.497 52.1761 129.079 52.1761 129.079L42.2213 135.405C42.2213 135.405 34.6854 156.276 43.1826 174.976C51.6799 193.676 61.8828 213.09 61.8828 213.09C61.8828 213.09 56.4557 228.72 53.1684 246.583Z" fill="#4D4CAC"/>
<path d="M71.3723 257.281C69.4806 256.847 67.1857 256.847 66.2554 255.11C64.6738 255.824 63.0612 256.506 61.3555 256.847C58.2233 257.467 54.874 256.878 51.6798 256.506C51.3697 258.987 51.1526 261.437 50.9976 263.856H75.2798C75.2488 263.825 75.745 258.243 71.3723 257.281Z" fill="#697CCC"/>
<path d="M68.7052 129.078C68.7052 129.078 72.5817 123.496 85.9478 168.897C99.3139 214.299 103.19 211.384 90.0724 234.456C76.9544 257.529 83.5289 256.32 87.9015 257.281C92.2742 258.242 91.778 263.825 91.778 263.825H67.4958C68.9533 240.287 78.4119 213.089 78.4119 213.089C78.4119 213.089 68.209 193.676 59.7118 174.976C51.2146 156.276 53.6335 158.943 58.7504 135.405L68.7052 129.078Z" fill="#952C28"/>
<path d="M78.4119 213.089C78.4119 213.089 72.9539 228.812 69.6666 246.706C74.3804 246.83 79.0632 246.985 83.777 247.109C84.9554 244.008 86.9712 239.915 90.0724 234.456C103.19 211.384 99.3139 214.299 85.9478 168.897C72.5817 123.496 68.7052 129.078 68.7052 129.078L58.7504 135.405C53.6645 158.943 51.2146 156.276 59.7118 174.976C68.2091 193.645 78.4119 213.089 78.4119 213.089Z" fill="#4D4CAC"/>
<path d="M87.8704 257.281C85.8546 256.847 83.4047 256.847 82.5984 254.769C81.2028 255.389 79.7763 255.978 78.3187 256.444C74.9695 257.498 71.5271 257.436 68.0848 257.126C67.8057 259.39 67.6197 261.623 67.4646 263.856H91.7469C91.7779 263.824 92.243 258.242 87.8704 257.281Z" fill="#697CCC"/>
<path d="M67.7437 257.498C67.7437 259.142 67.7437 260.786 67.7437 262.429C67.7437 262.677 68.1158 262.677 68.1158 262.429C68.1158 260.786 68.1158 259.142 68.1158 257.498C68.1158 257.281 67.7437 257.281 67.7437 257.498Z" fill="white"/>
<path d="M77.9777 217.431C77.9157 217.555 77.8537 217.679 77.7917 217.803C77.6986 217.679 77.6366 217.555 77.5436 217.462C75.4968 214.454 73.512 211.415 71.5893 208.313C62.6889 193.986 55.2151 178.821 49.1988 163.067C49.1367 162.912 49.0747 162.757 49.0127 162.602L49.4779 162.788C49.5399 162.943 49.6019 163.098 49.6639 163.253C51.2145 167.285 52.8271 171.285 54.5638 175.224C60.9833 189.83 68.7362 203.848 77.6986 217.059C77.8227 217.214 77.8847 217.338 77.9777 217.431Z" fill="black"/>
<path d="M77.9777 217.431C77.9157 217.555 77.8537 217.679 77.7916 217.803C75.2177 223.23 73.45 228.998 72.5506 234.953C72.5196 235.17 72.1785 235.077 72.2095 234.86C73.1089 228.812 74.9075 222.951 77.5745 217.462C77.6366 217.338 77.6986 217.214 77.7606 217.09C77.8226 217.214 77.8847 217.338 77.9777 217.431Z" fill="black"/>
<path d="M49.6949 163.284C49.5398 163.222 49.3848 163.16 49.2297 163.098C47.307 162.292 45.4152 161.486 43.5235 160.679C43.3064 160.586 43.4925 160.276 43.7096 160.369C45.5083 161.114 47.276 161.889 49.0746 162.633L49.5398 162.819C49.5708 162.974 49.6328 163.129 49.6949 163.284Z" fill="black"/>
<path d="M72.3337 98.9663L85.9169 102.378C85.9169 102.378 88.0877 122.783 84.2113 125.916L83.7151 147.779L39.2751 137.824L50.4394 92.4229L72.3337 98.9663Z" fill="#FFCE76"/>
<path d="M82.6294 42.8345C73.9771 47.8894 55.9593 59.2397 53.6644 64.2636C50.9974 70.0939 48.7955 100.92 49.2917 102.873L69.2013 101.168L71.6202 73.009L89.8552 53.3165C87.4673 49.7811 84.9863 46.3388 82.6294 42.8345Z" fill="#FECA55"/>
<path d="M94.1345 42.0591C94.1345 39.3921 94.1345 36.7251 94.1345 34.0891C94.1345 33.3758 93.5763 33.903 92.863 34.0891C88.8315 35.2365 85.7613 37.4384 84.955 41.4699C84.0556 41.9661 82.9392 42.6174 81.6367 43.3926C83.9316 47.1141 86.3505 50.7735 88.8625 54.3398L92.4288 50.4944C95.53 46.928 94.5376 43.1135 94.1345 42.0591Z" fill="#952C28"/>
<path d="M71.031 72.8851C70.5969 73.0711 70.1317 73.2572 69.6975 73.4433C69.4804 73.5363 69.5735 73.8774 69.7906 73.7844C70.2247 73.5983 70.6899 73.4123 71.1241 73.2262C71.3412 73.1332 71.2481 72.792 71.031 72.8851Z" fill="white"/>
<path d="M91.4056 35.8258C89.855 36.5081 88.4595 37.4384 87.25 38.6169C87.095 38.7719 87.3431 39.051 87.4981 38.865C88.6766 37.7175 90.0411 36.7872 91.5607 36.1359C91.8088 36.0429 91.6227 35.7328 91.4056 35.8258Z" fill="black"/>
<path d="M96.8938 8.69031C96.8938 9.74471 96.0255 10.613 94.9711 10.613C93.9167 10.613 93.0483 9.74471 93.0483 8.69031C93.0483 7.63591 93.9167 6.76758 94.9711 6.76758C96.0255 6.76758 96.8938 7.32579 96.8938 8.69031Z" fill="#D24A43"/>
<path d="M103.5 8.69031C103.5 9.74471 102.632 10.613 101.578 10.613C100.523 10.613 99.655 9.74471 99.655 8.69031C99.655 7.63591 100.523 6.76758 101.578 6.76758C102.663 6.76758 103.5 7.32579 103.5 8.69031Z" fill="#FECA55"/>
<path d="M110.292 8.69031C110.292 9.74471 109.424 10.613 108.369 10.613C107.315 10.613 106.447 9.74471 106.447 8.69031C106.447 7.63591 107.315 6.76758 108.369 6.76758C109.455 6.76758 110.292 7.32579 110.292 8.69031Z" fill="#BCD7FD"/>
<path d="M193.683 12.04H92.9873V50.4637H193.683V12.04Z" fill="#2252B2"/>
<path d="M188.038 15.6055H154.112V32.4759H188.038V15.6055Z" fill="#FFA79B"/>
<path d="M188.163 39.5474H163.632V46.7731H188.163V39.5474Z" fill="white"/>
<path d="M160.996 39.5474H148.685V46.7731H160.996V39.5474Z" fill="white"/>
<path d="M139.846 17.7456H99.2827C98.8175 17.7456 98.8175 18.4589 99.2827 18.4589H139.815C140.311 18.4899 140.311 17.7456 139.846 17.7456Z" fill="#BCD7FD"/>
<path d="M139.846 22.8628H99.2827C98.8175 22.8628 98.8175 23.5761 99.2827 23.5761H139.815C140.311 23.5761 140.311 22.8628 139.846 22.8628Z" fill="#BCD7FD"/>
<path d="M130.698 28.9097H99.2208C98.8486 28.9097 98.8486 29.6229 99.2208 29.6229H130.698C131.039 29.6539 131.039 28.9097 130.698 28.9097Z" fill="#BCD7FD"/>
<path d="M214.382 31.0734L213.855 31.6006L213.327 31.0734L206.288 24.0337C205.947 23.6926 206.474 23.1964 206.815 23.5065L214.382 31.0734Z" fill="black"/>
<path d="M214.382 31.0731L213.854 31.6003L206.815 38.609C206.474 38.9501 205.977 38.4229 206.288 38.0818L213.823 30.5459L214.382 31.0731Z" fill="black"/>
<path d="M185.651 29.3134C176.285 25.4679 166.888 21.6225 157.523 17.808C157.089 17.622 156.903 18.3352 157.337 18.5213C166.702 22.3668 176.099 26.2122 185.464 30.0267C185.868 30.1817 186.054 29.4685 185.651 29.3134Z" fill="white"/>
<path d="M157.647 30.0885C166.982 26.1811 176.347 22.2426 185.682 18.3351C186.116 18.149 185.744 17.5288 185.341 17.6838C176.006 21.5913 166.64 25.5298 157.306 29.4373C156.841 29.6234 157.213 30.2746 157.647 30.0885Z" fill="white"/>
<path d="M114.231 57.5962C109.176 67.3649 98.4765 88.7941 98.4765 88.7941C98.4765 88.7941 78.2568 99.5862 73.2949 104.331L80.2416 131.963C80.2416 131.963 107.036 109.944 111.563 105.168C117.921 98.5008 123.007 72.1097 125.767 61.7208C121.952 60.2942 118.138 58.8057 114.231 57.5962Z" fill="#FFCE76"/>
<path d="M98.5386 89.3828C98.3215 90.2512 98.1354 91.1195 97.9183 91.9878C97.8563 92.2049 98.2285 92.2979 98.2595 92.0809C98.4766 91.2125 98.6626 90.3442 98.8797 89.4759C98.9417 89.2588 98.6006 89.1658 98.5386 89.3828Z" fill="white"/>
<path d="M137.055 50.2772C133.148 49.4709 126.356 51.1455 126.015 51.0215C125.674 50.0291 125.798 49.6259 126.542 49.2848C127.907 48.6025 129.023 47.5481 129.767 46.1836C130.171 45.4393 129.457 44.1989 128.527 44.571C126.666 45.3463 124.806 46.1216 122.976 46.8969C122.883 46.9279 122.79 46.9899 122.728 47.052C121.549 47.5171 121.022 47.7032 120.185 48.4165C118.727 49.688 117.611 51.2075 116.774 52.9442C116.463 53.4094 115.347 55.4872 113.796 58.4643C115.967 59.7048 118.448 60.387 120.774 61.1933C122.356 61.7516 123.937 62.2788 125.55 62.7439C126.294 59.7978 126.914 57.8441 127.318 57.5339C129.116 56.2315 130.884 55.5802 132.9 54.7119C135.226 53.7195 136.249 53.0682 137.613 52.1689C138.234 51.7658 137.8 50.4322 137.055 50.2772Z" fill="#952C28"/>
<path d="M137.148 51.1461C135.07 52.2936 132.775 52.7897 130.387 52.6347C130.139 52.6037 130.139 52.9758 130.387 53.0068C132.806 53.1619 135.194 52.6347 137.334 51.4562C137.551 51.3632 137.365 51.0531 137.148 51.1461Z" fill="black"/>
<path d="M93.3283 35.2678C91.6846 36.2291 89.1106 37.8418 87.9942 39.4544C86.8158 41.16 86.5987 43.2378 86.6297 45.2846C86.6607 46.432 88.0873 46.6491 88.6145 45.9358C88.8626 46.0289 89.1106 46.0289 89.3587 45.8738C89.7619 45.8428 90.103 45.5947 90.1651 45.1916C91.0334 44.3232 91.6226 43.2688 91.7156 41.9663C91.8397 40.6638 91.6536 39.9816 92.708 38.9892C93.3903 38.369 93.8244 37.9968 94.0415 37.0975C94.2896 36.1671 94.1966 34.7716 93.3283 35.2678Z" fill="#952C28"/>
<path d="M92.2429 39.4231C92.398 39.2681 92.1499 38.989 91.9948 39.175L90.3822 40.7566C90.3202 40.8187 90.3202 40.9117 90.3512 40.9737C91.1575 42.3382 91.2505 43.9198 90.5993 45.3774C90.5062 45.5945 90.8164 45.7805 90.9094 45.5635C91.3436 44.6021 91.4986 43.5787 91.3436 42.5553C91.2815 42.2452 91.1885 41.9041 91.0955 41.594C91.0644 41.5009 90.8474 41.1288 90.8474 41.0357C90.8164 40.4775 91.9018 39.7332 92.2429 39.4231Z" fill="black"/>
<path d="M62.968 83.9867C62.968 81.3197 66.9375 78.4666 70.1317 78.0015C71.5273 77.8154 71.8374 76.6679 72.5197 77.5983C74.2253 79.8932 79.6834 87.336 79.5283 89.6309C79.2182 93.6624 74.4114 94.6548 71.2172 93.2283C67.9609 91.8327 62.999 87.8012 62.968 83.9867Z" fill="#952C28"/>
<path d="M71.3413 75.6757C69.8838 75.7997 68.3332 77.5674 67.868 78.7148C65.325 79.8003 62.9991 81.9711 62.9991 84.0179C62.9991 86.5608 60.4562 90.8405 63.6814 94.3758C65.6662 96.5776 70.8761 95.9264 72.6128 93.1043C74.6596 89.724 71.6204 86.2817 71.7445 85.5995C72.3337 83.6457 71.0932 81.816 69.7907 80.6996C70.8141 80.7306 72.8299 78.9009 72.8919 77.6914C72.8609 75.9238 71.7755 75.6137 71.3413 75.6757Z" fill="black"/>
<path d="M68.6123 88.8245C68.2402 87.3669 69.6357 85.4132 71.7445 85.5683C72.7059 86.9018 73.7292 88.2043 74.7836 89.5068C74.2875 90.3441 72.8299 91.3985 71.4964 91.3365C69.9458 91.2434 69.0155 90.4061 68.6123 88.8245Z" fill="#952C28"/>
<path d="M77.0165 82.7771C76.6134 82.2809 75.8691 82.3119 75.4349 82.7771C75.3109 82.9322 75.3419 83.1803 75.497 83.3043C75.528 83.3043 75.528 83.3043 75.559 83.3353C75.528 83.3974 75.497 83.4284 75.466 83.4904C75.2489 83.9246 75.9311 84.2037 76.1482 83.7695C76.1482 83.7695 76.1792 83.7695 76.1482 83.8005C75.9311 84.0796 76.2412 84.5138 76.5824 84.3897C77.1716 84.1106 77.4507 83.3043 77.0165 82.7771Z" fill="#952C28"/>
<path d="M71.9616 98.004C71.4344 95.8331 69.5737 94.2205 67.4959 93.8484C67.4959 93.1971 67.1547 92.6079 66.3174 92.4528C63.8985 92.0187 61.8827 93.3522 61.2935 95.3059C57.5411 94.2515 53.4165 94.8408 50.5944 97.8179C47.4002 101.198 47.2141 106.16 50.1603 109.757C53.1994 113.448 59.2467 115.216 63.8365 113.975C67.0927 113.107 69.4496 109.23 67.899 106.47C70.7211 104.578 72.8299 101.57 71.9616 98.004Z" fill="black"/>
<path d="M72.2716 88.1732C71.8064 88.2352 71.3412 88.2663 70.8761 88.3283C70.659 88.3593 70.628 88.7314 70.8761 88.7004C71.3412 88.6384 71.8064 88.6074 72.2716 88.5454C72.4887 88.5143 72.5197 88.1422 72.2716 88.1732Z" fill="black"/>
<path d="M75.249 82.746L74.5357 81.8467C74.3807 81.6606 74.1326 81.9087 74.2876 82.0948C74.5357 82.4049 74.7838 82.715 75.0009 82.9941C75.1559 83.1802 75.404 82.9321 75.249 82.746Z" fill="black"/>
<path d="M77.8847 87.336C77.5746 87.4911 77.2024 87.367 77.0474 87.0879C76.9233 86.9018 76.6132 87.0569 76.7372 87.274C77.0163 87.7391 77.6056 87.8942 78.0707 87.6771C78.2878 87.5531 78.1018 87.243 77.8847 87.336Z" fill="black"/>
<path d="M73.5431 80.6999L73.264 81.2581C73.0469 81.6612 73.6982 82.0334 73.8842 81.6302L74.1633 81.072C74.3804 80.6379 73.7602 80.2657 73.5431 80.6999Z" fill="black"/>
<path d="M267.164 143.313L270.296 157.919C270.389 158.385 271.102 158.23 271.009 157.764L267.877 143.158C267.784 142.693 267.071 142.848 267.164 143.313Z" fill="black"/>
<path d="M270.73 159.842L271.009 161.176C271.009 161.207 271.723 161.052 271.723 161.021L271.443 159.687C271.443 159.656 270.73 159.811 270.73 159.842Z" fill="black"/>
<path d="M268.005 69.0707C265.307 69.0707 263.105 66.8689 263.105 64.1709C263.105 61.4728 265.307 59.271 268.005 59.271C271.075 59.271 272.905 61.1007 272.905 64.1709C272.905 66.8689 270.703 69.0707 268.005 69.0707ZM268.005 59.9843C265.71 59.9843 263.818 61.845 263.818 64.1709C263.818 66.4657 265.679 68.3575 268.005 68.3575C270.3 68.3575 272.191 66.4967 272.191 64.1709C272.16 60.5115 269.555 59.9843 268.005 59.9843Z" fill="black"/>
<path d="M125.843 226.796C125.626 226.393 125.006 226.734 125.223 227.169C126.836 230.208 122.463 231.107 120.509 231.2C119.052 231.262 117.532 231.293 116.23 231.975C114.431 232.906 113.532 235.294 115.082 236.844C115.423 237.185 115.92 236.658 115.61 236.317C114.276 234.953 115.454 233.154 116.819 232.503C117.718 232.068 118.711 232.006 119.672 231.944C121.099 231.882 122.587 231.913 123.921 231.324C125.657 230.58 126.774 228.595 125.843 226.796Z" fill="black"/>
<path d="M127.642 230.084C127.425 229.681 126.805 230.022 127.022 230.456C128.635 233.495 124.262 234.395 122.308 234.488C120.851 234.55 119.331 234.581 118.029 235.263C116.23 236.193 115.331 238.581 116.881 240.132C117.222 240.473 117.719 239.946 117.408 239.605C116.075 238.24 117.253 236.442 118.618 235.79C119.517 235.356 120.51 235.294 121.471 235.232C122.897 235.17 124.386 235.201 125.72 234.612C127.487 233.837 128.604 231.883 127.642 230.084Z" fill="black"/>
<path d="M158.166 194.819C155.468 190.571 152.801 186.353 150.103 182.104C149.854 181.701 149.234 182.073 149.482 182.476C152.18 186.725 154.847 190.943 157.545 195.191C157.793 195.594 158.414 195.222 158.166 194.819Z" fill="black"/>
<path d="M161.142 191.873C159.313 188.958 157.514 186.043 155.684 183.128C155.436 182.725 154.816 183.097 155.064 183.5C156.894 186.415 158.692 189.33 160.522 192.245C160.77 192.648 161.39 192.276 161.142 191.873Z" fill="black"/>
<path d="M223.934 235.852C223.22 237.434 222.476 239.015 221.763 240.597C221.577 241.031 222.197 241.403 222.383 240.969C223.096 239.388 223.841 237.806 224.554 236.224C224.771 235.79 224.151 235.418 223.934 235.852Z" fill="black"/>
<path d="M266.361 83.6154C264.873 86.9957 263.415 90.407 261.927 93.7873C261.74 94.2215 262.361 94.5936 262.547 94.1594C264.035 90.7791 265.493 87.3678 266.981 83.9875C267.168 83.5534 266.547 83.1812 266.361 83.6154Z" fill="black"/>
<path d="M4.31403 184.752C2.88749 187.915 1.46096 191.11 0.0344211 194.273C-0.15165 194.707 0.468586 195.079 0.654657 194.645C2.0812 191.482 3.50772 188.287 4.93426 185.124C5.15135 184.69 4.5001 184.318 4.31403 184.752Z" fill="black"/>
<path d="M19.1655 73.9393C18.6383 78.7152 8.12533 76.7304 9.76896 82.8087C9.89301 83.2739 10.6063 83.0568 10.4822 82.6226C9.45884 78.8702 14.7308 78.5291 16.9947 77.5367C18.5453 76.8544 19.6927 75.707 19.8788 73.9704C19.9718 73.4742 19.2276 73.4742 19.1655 73.9393Z" fill="black"/>
<path d="M20.6231 77.5682C20.0959 82.3441 9.58285 80.3593 11.2265 86.4376C11.3505 86.9028 12.0638 86.6857 11.9398 86.2516C10.9164 82.4991 16.1884 82.158 18.4522 81.1656C20.0028 80.4834 21.1503 79.3359 21.3363 77.5993C21.4294 77.1031 20.6851 77.1031 20.6231 77.5682Z" fill="black"/>
<path d="M21.3672 6.3959C20.4058 4.3181 19.4135 2.27132 18.4521 0.193532C18.266 -0.240633 17.6148 0.131508 17.8319 0.565673C18.7932 2.64346 19.7856 4.69024 20.747 6.76804C20.933 7.2022 21.5843 6.83006 21.3672 6.3959Z" fill="black"/>
<path d="M123.129 123.93C121.299 124.767 119.47 125.605 117.64 126.442C117.206 126.628 117.578 127.279 118.012 127.062C119.842 126.225 121.672 125.387 123.501 124.55C123.935 124.364 123.563 123.744 123.129 123.93Z" fill="black"/>
<path d="M276.821 219.301C275.24 219.673 273.658 220.045 272.076 220.417C271.611 220.51 271.828 221.223 272.263 221.13C273.844 220.758 275.426 220.386 277.007 220.014C277.473 219.89 277.286 219.208 276.821 219.301Z" fill="black"/>
<path d="M169.26 128.675C170.252 125.047 172.733 121.481 174.532 119.744C176.362 118.007 176.889 132.304 176.889 132.304L169.26 128.675Z" fill="#FFA79B"/>
<path d="M189.852 241.682C188.239 241.527 186.627 241.279 185.014 241.062C184.58 241 184.084 240.938 183.618 240.907C183.525 243.698 184.084 242.054 184.084 244.194C184.084 247.357 183.091 250.551 182.595 251.141C181.417 252.598 179.153 252.381 177.106 252.629C170.655 253.436 168.733 253.001 168.361 258.273L193.015 263.918C193.015 263.918 196.364 253.436 199.124 242.209C196.023 242.054 192.922 241.992 189.852 241.682Z" fill="#FFA79B"/>
<path d="M199.621 247.078C202.412 236.503 203.993 223.292 203.497 217.462C203.497 217.462 221.67 155.593 227.345 135.901C226.477 135.746 225.639 135.622 224.771 135.467C220.336 134.722 215.902 134.009 211.498 133.172C208.118 132.552 202.008 131.528 198.628 131.001C189.914 157.547 186.596 199.878 185.603 206.825C184.952 211.322 182.502 231.541 182.13 244.163C186.875 245.311 194.752 246.365 199.621 247.078Z" fill="#5E81F4"/>
<path d="M190.627 255.824C189.107 255.389 187.65 254.738 186.347 253.87C185.045 253.002 183.929 251.885 182.595 251.11C181.417 252.567 179.153 252.35 177.106 252.598C170.655 253.405 168.733 252.971 168.361 258.243L193.015 263.887C193.015 263.887 193.976 260.879 195.279 256.382C193.728 256.475 192.147 256.258 190.627 255.824Z" fill="#2252B2"/>
<path d="M259.256 241.124C254.79 243.295 250.076 244.938 245.425 246.675C247.161 250.831 247.688 253.87 245.952 255.141C241.951 258.056 237.051 256.227 236.834 263.887H248.309L261.954 256.041C261.085 250.304 260.186 245.373 259.256 241.124Z" fill="#FFA79B"/>
<path d="M259.504 242.302C254.48 223.788 250.107 214.05 250.107 214.05C248.464 200.25 239.191 148.492 239.191 148.492L237.889 137.606C233.516 136.893 229.175 136.18 224.802 135.467C220.367 134.722 215.932 134.009 211.529 133.172C211.033 133.079 210.567 132.986 210.071 132.893L202.783 146.445C202.783 146.445 222.662 195.691 228.275 213.461C232.121 225.618 239.656 239.759 243.099 248.288C247.751 246.83 254.945 244.132 259.504 242.302Z" fill="#5E81F4"/>
<path d="M261.085 250.613C258.977 252.195 256.558 252.846 253.953 253.094C251.813 253.28 249.146 252.877 246.944 253.466C246.82 254.18 246.479 254.769 245.952 255.172C241.951 258.087 237.051 256.257 236.834 263.917H248.309L261.954 256.071C261.675 254.149 261.365 252.35 261.085 250.613Z" fill="#2252B2"/>
<path d="M214.382 175.999C213.328 171.471 212.273 166.943 211.188 162.385C211.157 162.292 211.157 162.23 211.126 162.137C211.126 162.074 211.126 162.012 211.157 161.981C211.281 162.012 211.374 162.074 211.498 162.105C211.529 162.261 211.56 162.385 211.591 162.54C212.614 167.005 213.669 171.44 214.723 175.906C214.785 176.123 214.444 176.216 214.382 175.999Z" fill="black"/>
<path d="M211.622 162.54C211.498 162.478 211.343 162.447 211.219 162.385C210.009 161.951 208.831 161.486 207.621 161.051C207.404 160.958 207.497 160.617 207.714 160.71L211.188 162.013C211.312 162.044 211.405 162.106 211.529 162.137C211.56 162.261 211.591 162.385 211.622 162.54Z" fill="black"/>
<path d="M242.634 103.804C242.169 112.704 238.944 146.786 238.944 146.786L214.909 144.367L203.125 133.513L197.698 114.472L194.938 104.734C195.837 89.5073 199.155 86.7782 212.863 88.0807C213.328 88.1117 213.824 88.1738 214.32 88.2358C215.064 88.3288 215.871 88.4218 216.677 88.5149C218.755 88.763 221.019 89.1041 223.531 89.4452C223.531 89.4452 224.182 89.8794 225.267 90.5617C229.888 93.5388 242.2 101.447 242.634 101.726C242.727 101.788 242.696 102.532 242.634 103.804Z" fill="#FF808B"/>
<path d="M238.292 105.509C233.485 116.86 231.469 123.124 226.57 134.412C240.494 136.428 241.858 115.836 238.292 105.509Z" fill="#A4323C"/>
<path d="M222.228 99.8032H174.532V147.344H222.228V99.8032Z" fill="#BCD7FD"/>
<path d="M222.228 106.905H174.532V107.619H222.228V106.905Z" fill="white"/>
<path d="M178.843 105.013C179.75 105.013 180.486 104.277 180.486 103.37C180.486 102.462 179.75 101.726 178.843 101.726C177.935 101.726 177.199 102.462 177.199 103.37C177.199 104.277 177.935 105.013 178.843 105.013Z" fill="#FECA55"/>
<path d="M183.712 105.013C184.619 105.013 185.355 104.277 185.355 103.37C185.355 102.462 184.619 101.726 183.712 101.726C182.804 101.726 182.068 102.462 182.068 103.37C182.068 104.277 182.804 105.013 183.712 105.013Z" fill="white"/>
<path d="M204.954 131.312H181.634C181.168 131.312 181.168 132.025 181.634 132.025H204.954C205.42 132.056 205.42 131.312 204.954 131.312Z" fill="black"/>
<path d="M204.954 135.312H181.634C181.168 135.312 181.168 136.025 181.634 136.025H204.954C205.42 136.056 205.42 135.312 204.954 135.312Z" fill="black"/>
<path d="M213.886 110.75H181.292V127.497H213.886V110.75Z" fill="#697CCC"/>
<path d="M211.994 140.739H203.497V144.274H211.994V140.739Z" fill="white"/>
<path d="M210.381 112.394C209.544 112.953 208.676 113.48 207.838 114.038C207.435 114.286 207.807 114.937 208.211 114.658C209.048 114.1 209.916 113.573 210.754 113.015C211.157 112.767 210.785 112.146 210.381 112.394Z" fill="white"/>
<path d="M179.556 132.955C180.455 133.203 181.634 132.087 180.765 131.25C179.773 130.319 175.803 126.195 174.563 125.637C168.981 123.187 168.299 131.994 168.516 133.855C168.857 137.018 170.221 139.964 172.299 142.321C172.361 142.507 173.881 143.841 174.625 144.368C175.183 144.74 176.082 144.337 176.207 143.654C176.858 143.872 178.47 142.941 178.129 141.98C178.377 141.825 179.06 141.608 179.215 141.112C179.432 140.491 179.246 139.871 178.967 139.251C179.153 139.158 179.308 139.065 179.463 138.879C180.393 137.855 178.905 136.677 177.788 135.126C176.951 133.948 176.672 132.366 175.896 131.622C176.144 131.529 176.362 131.436 176.579 131.281C177.416 132.056 178.408 132.645 179.556 132.955Z" fill="#FFA79B"/>
<path d="M178.533 138.816C176.734 137.39 175.307 135.622 174.284 133.575C174.191 133.358 173.85 133.544 173.974 133.761C175.028 135.839 176.486 137.607 178.285 139.064C178.471 139.219 178.719 138.971 178.533 138.816Z" fill="#D24A43"/>
<path d="M177.788 141.173C175.896 140.057 174.408 138.475 173.415 136.522C173.322 136.304 172.981 136.491 173.105 136.708C174.098 138.723 175.648 140.367 177.602 141.483C177.788 141.608 177.974 141.297 177.788 141.173Z" fill="#D24A43"/>
<path d="M175.741 142.817C174.377 141.917 173.26 140.77 172.423 139.343C172.299 139.126 171.989 139.312 172.113 139.529C172.981 140.987 174.129 142.227 175.555 143.127C175.741 143.251 175.927 142.941 175.741 142.817Z" fill="#D24A43"/>
<path d="M179.649 112.022C178.718 110.968 177.664 108.983 176.454 108.735C173.508 108.146 170.965 108.425 170.593 108.766C170.128 109.231 170.469 109.975 170.996 110.44C171.741 111.092 173.446 110.533 173.818 111.712C173.818 111.743 173.818 111.743 173.849 111.774C172.95 111.588 172.206 111.526 171.648 111.65C169.663 112.084 170.19 116.116 170.779 119.744C171.865 126.194 184.269 127.311 184.269 127.311C184.269 127.311 179.742 112.053 179.649 112.022Z" fill="#FFA79B"/>
<path d="M242.634 103.804C242.262 106.533 241.207 109.821 239.377 113.821C230.725 132.521 229.175 140.088 222.507 140.677C218.662 141.018 213.11 139.034 203.497 135.498C193.914 131.963 186.533 129.265 181.013 127.218C180.3 122.194 180.052 117.108 179.618 112.022C183.525 112.519 190.72 113.48 197.698 114.472C204.985 115.527 211.994 116.612 214.599 117.294L229.361 98.0051L224.74 91.2135L223.53 89.4458C224.306 89.5388 225.081 89.6629 225.825 89.7559C235.718 91.1825 244.091 93.2913 242.634 103.804Z" fill="#FF808B"/>
<path d="M217.297 119.899L215.468 118.07C215.313 117.915 215.033 118.163 215.219 118.318C215.84 118.938 216.429 119.527 217.049 120.147C217.204 120.333 217.452 120.054 217.297 119.899Z" fill="black"/>
<path d="M223.903 104.177C223.437 104.859 223.003 105.572 222.538 106.254C222.414 106.441 222.724 106.627 222.848 106.441C223.313 105.758 223.747 105.045 224.213 104.363C224.368 104.177 224.058 103.991 223.903 104.177Z" fill="black"/>
<path d="M171.679 114.938C171.431 114.535 171.214 114.101 170.966 113.697C170.842 113.48 170.531 113.666 170.655 113.883C170.904 114.287 171.121 114.721 171.369 115.124C171.462 115.341 171.772 115.155 171.679 114.938Z" fill="#D24A43"/>
<path d="M171.71 118.256C171.523 117.977 171.337 117.697 171.182 117.418C171.058 117.232 170.748 117.418 170.872 117.604C171.058 117.884 171.244 118.163 171.399 118.442C171.523 118.659 171.834 118.473 171.71 118.256Z" fill="#D24A43"/>
<path d="M171.989 120.551L171.493 119.899C171.337 119.713 171.027 119.899 171.182 120.085L171.679 120.737C171.834 120.923 172.144 120.737 171.989 120.551Z" fill="#D24A43"/>
<path d="M175.183 112.053C174.842 111.929 174.501 111.805 174.191 111.712C173.974 111.65 173.881 111.991 174.098 112.053C174.439 112.177 174.78 112.301 175.09 112.394C175.307 112.456 175.4 112.115 175.183 112.053Z" fill="#D24A43"/>
<path d="M225.329 90.0658L221.825 76.7617L213.297 79.1806C213.452 79.3667 214.134 86.7165 214.568 91.3063C215.809 91.2132 223.562 90.1898 225.329 90.0658Z" fill="#FFA79B"/>
<path d="M219.096 78.2497C219.127 77.9086 219.127 77.5985 219.127 77.2573L213.297 79.1801C213.39 79.2731 213.638 81.661 213.917 84.5141C216.274 82.9015 218.228 80.7617 219.096 78.2497Z" fill="black"/>
<path d="M228.399 72.3887C228.741 69.7217 225.112 66.3724 221.98 65.5351C220.615 65.163 220.46 64.0155 219.654 64.8529C217.669 66.9307 211.312 73.2571 211.157 76.0481C210.94 80.1107 215.654 81.6923 219.034 80.6689C222.414 79.6145 227.903 76.2032 228.399 72.3887Z" fill="#FFA79B"/>
<path d="M221.05 63.0233C222.507 63.3334 223.81 65.2872 224.151 66.4966C226.539 67.8922 228.647 70.3421 228.368 72.4199C228.027 74.9629 225.484 77.3508 222.817 78.9324C222.259 77.94 223.934 76.0793 223.841 74.7768C222.073 71.7686 222.383 70.5592 223.127 69.3807C222.104 69.2877 219.127 66.0625 219.22 64.853C219.468 63.0543 220.615 62.9303 221.05 63.0233Z" fill="#2252B2"/>
<path d="M226.57 78.3745C227.128 76.9479 225.95 74.8391 223.841 74.7461C222.693 75.9556 221.515 77.134 220.336 78.3125C220.709 79.2118 222.073 80.4523 223.407 80.5453C224.926 80.6073 225.981 79.9251 226.57 78.3745Z" fill="#FFA79B"/>
<path d="M225.019 77.1959C224.523 77.1028 224.058 77.0408 223.562 76.9478C223.345 76.9168 223.22 77.2579 223.469 77.2889C223.965 77.382 224.43 77.444 224.926 77.537C225.174 77.568 225.267 77.2269 225.019 77.1959Z" fill="#D24A43"/>
<path d="M216.708 68.4812C216.46 68.7603 216.181 69.0084 215.933 69.2875C215.778 69.4426 216.026 69.7217 216.181 69.5356C216.429 69.2565 216.708 69.0084 216.956 68.7293C217.142 68.5742 216.863 68.2951 216.708 68.4812Z" fill="black"/>
<path d="M219.685 71.2102C219.437 71.4893 219.158 71.7374 218.91 72.0165C218.755 72.1716 219.003 72.4507 219.158 72.2646C219.406 71.9855 219.685 71.7374 219.933 71.4583C220.088 71.3032 219.84 71.0241 219.685 71.2102Z" fill="black"/>
<path d="M216.305 72.2649C216.057 72.1719 215.716 72.0789 215.56 71.8308C215.467 71.6447 215.498 71.3966 215.716 71.3656C215.933 71.3346 215.84 70.9934 215.623 71.0245C215.25 71.0865 215.095 71.4896 215.157 71.8308C215.25 72.2959 215.778 72.482 216.181 72.6061C216.429 72.6991 216.522 72.358 216.305 72.2649Z" fill="#D24A43"/>
<path d="M217.731 77.1335C217.483 77.5057 216.956 77.6607 216.522 77.4747C216.305 77.3816 216.119 77.6918 216.336 77.7848C216.956 78.0639 217.669 77.8468 218.041 77.2886C218.165 77.1335 217.855 76.9475 217.731 77.1335Z" fill="#D24A43"/>
<path d="M225.825 89.7552C225.639 90.0343 225.484 90.2824 225.267 90.5615C225.081 90.7786 224.926 90.9957 224.74 91.2128C223.437 92.7013 221.763 93.8488 219.84 94.438C217.731 95.0582 215.312 94.8722 213.762 93.1665C212.459 91.74 212.18 89.7862 212.862 88.0806C213.328 88.1116 216.987 88.2046 216.987 88.2046C219.065 88.4527 221.049 89.0729 223.53 89.4451C224.306 89.5381 225.05 89.6312 225.825 89.7552Z" fill="#FFA79B"/>
<path d="M221.205 70.4041L220.926 69.8459C220.709 69.4117 220.088 69.7838 220.305 70.218L220.585 70.7762C220.771 71.1794 221.422 70.8383 221.205 70.4041Z" fill="#2252B2"/>
<path d="M217.855 67.551C217.638 67.3959 217.421 67.2409 217.204 67.0858C217.049 66.9618 216.801 67.0548 216.708 67.2098C216.615 67.3959 216.677 67.582 216.832 67.706C217.049 67.8611 217.266 68.0162 217.483 68.1712C217.638 68.2953 217.886 68.2022 217.979 68.0472C218.103 67.8921 218.041 67.675 217.855 67.551Z" fill="#2252B2"/>
</svg>
