<svg width="183" height="235" viewBox="0 0 183 235" fill="none" xmlns="http://www.w3.org/2000/svg">
<path d="M38.5232 100.357C42.4254 100.357 45.6016 96.9563 45.6016 92.7788V79.5339H31.4146V92.7788C31.4448 96.9563 34.621 100.357 38.5232 100.357Z" fill="#D24A43"/>
<path d="M33.4408 81.6389C33.955 81.7684 33.7433 82.6428 33.2291 82.5132C29.2664 81.5417 25.3037 84.5534 25.3945 89.0547C25.4852 93.556 29.5386 96.3734 33.471 95.24C33.9853 95.078 34.197 95.9524 33.6828 96.1143C29.2361 97.3773 24.608 94.1713 24.5475 89.0547C24.487 83.9705 28.9336 80.5702 33.4408 81.6389Z" fill="#D24A43"/>
<path d="M39.1289 74.0611C40.1876 75.1298 40.3993 76.8785 39.5826 78.1738C39.2801 78.6596 38.5541 78.2062 38.8566 77.7204C39.4616 76.7489 39.3406 75.486 38.5239 74.6764C38.1306 74.2878 38.7356 73.6725 39.1289 74.0611Z" fill="#BCD7FD"/>
<path d="M36.8898 77.6881C37.4646 77.1699 37.5553 76.2308 37.0108 75.6479C36.6478 75.2269 37.2225 74.5792 37.6158 75.0002C38.4325 75.9394 38.4023 77.4614 37.4948 78.3357C37.0713 78.692 36.4663 78.0767 36.8898 77.6881Z" fill="#BCD7FD"/>
<path d="M49.2312 62.3385L63.9021 98.4137C64.1139 98.9319 63.3879 99.3852 63.1762 98.8671L48.5052 62.7918C48.2934 62.2737 49.0194 61.8203 49.2312 62.3385Z" fill="black"/>
<path d="M63.6607 98.4138H97.8426C98.3871 98.4138 98.3871 99.3205 97.8426 99.3205H63.6305C63.1162 99.2881 63.1162 98.4138 63.6607 98.4138Z" fill="black"/>
<path d="M59.789 77.0406C63.8425 78.2712 66.3834 82.5458 65.8389 86.9824C65.7784 87.5653 64.9617 87.3062 65.0222 86.7557C65.5062 82.8049 63.1467 78.9836 59.5773 77.915C59.0631 77.7531 59.2748 76.9111 59.789 77.0406Z" fill="#8E1616"/>
<path d="M59.6682 72.2802C67.2306 73.187 72.131 80.9266 70.0135 88.7958C69.8623 89.3463 69.0455 89.1197 69.1968 88.5691C71.163 81.3152 66.7163 74.0289 59.6682 73.187C59.1539 73.0898 59.1539 72.2155 59.6682 72.2802Z" fill="#8E1616"/>
<path d="M51.3789 101.425V233.032C51.3789 235.04 48.4447 235.04 48.4447 233.032V101.425C48.475 99.3851 51.3789 99.3851 51.3789 101.425Z" fill="#FECA55"/>
<path d="M1.40671 99.2556H98.4772C100.353 99.2556 100.353 102.397 98.4772 102.397H1.40671C-0.468756 102.364 -0.468756 99.2556 1.40671 99.2556Z" fill="#FECA55"/>
<path d="M18.6185 5.08423H86.7705V49.1582H18.6185V5.08423Z" fill="white"/>
<path d="M24.0031 9.42361H52.5889V40.0261H24.0031V9.42361Z" fill="#BCD7FD"/>
<path d="M26.6044 37.5325C26.7254 37.5325 26.8161 37.5001 26.9069 37.403L50.0477 12.6296C50.1989 12.4677 50.1989 12.1762 50.0477 11.9819C49.8965 11.82 49.6242 11.82 49.4427 11.9819L26.3019 36.7553C26.1506 36.9172 26.1506 37.2087 26.3019 37.403C26.3926 37.5001 26.4834 37.5325 26.6044 37.5325Z" fill="white"/>
<path d="M49.7452 37.5325C49.8662 37.5325 49.9569 37.5001 50.0477 37.403C50.1989 37.2411 50.1989 36.9496 50.0477 36.7553L26.9069 11.9819C26.7556 11.82 26.4834 11.82 26.3019 11.9819C26.1506 12.1438 26.1506 12.4353 26.3019 12.6296L49.4427 37.403C49.5335 37.5001 49.6545 37.5325 49.7452 37.5325Z" fill="white"/>
<path d="M14.5953 9.26169C14.8373 9.26169 15.0188 9.06739 15.0188 8.80833V0.906745H22.2484C22.4904 0.906745 22.6719 0.712446 22.6719 0.453377C22.6719 0.194309 22.4904 0 22.2484 0H14.5953C14.3533 0 14.1718 0.194309 14.1718 0.453377V8.80833C14.202 9.06739 14.3835 9.26169 14.5953 9.26169Z" fill="#7195C7"/>
<path d="M14.5348 53.2385H22.3089C22.5509 53.2385 22.7324 53.0442 22.7324 52.7852C22.7324 52.5261 22.5509 52.3318 22.3089 52.3318H14.9281V44.5921C14.9281 44.3331 14.7466 44.1388 14.5046 44.1388C14.2626 44.1388 14.0811 44.3331 14.0811 44.5921V52.7852C14.1113 53.0442 14.3231 53.2385 14.5348 53.2385Z" fill="#7195C7"/>
<path d="M91.4291 9.32648C91.6711 9.32648 91.8525 9.13218 91.8525 8.87312V0.712462C91.8525 0.453393 91.6711 0.259094 91.4291 0.259094H83.6549C83.413 0.259094 83.2314 0.453393 83.2314 0.712462C83.2314 0.97153 83.413 1.16583 83.6549 1.16583H91.0358V8.90549C91.0358 9.13218 91.2173 9.32648 91.4291 9.32648Z" fill="#7195C7"/>
<path d="M76.9699 25.6154C78.0286 24.9677 79.0874 24.3524 80.1461 23.7047C80.5998 23.4133 81.0536 24.1905 80.5696 24.4496C79.5108 25.0972 78.4521 25.7125 77.3934 26.3602C76.9396 26.6516 76.4859 25.9068 76.9699 25.6154Z" fill="#FECA55"/>
<path d="M77.0902 30.8615C78.2699 31.3797 79.4496 31.8978 80.6293 32.4159C81.1133 32.6426 80.9016 33.4846 80.4176 33.2903C79.2379 32.7722 78.0581 32.254 76.8784 31.7359C76.3642 31.5092 76.6062 30.6348 77.0902 30.8615Z" fill="#FECA55"/>
<path d="M63.72 34.0675C64.688 33.2579 65.656 32.4159 66.624 31.6063C67.0475 31.2501 67.6222 31.8978 67.229 32.254C66.261 33.0636 65.293 33.9056 64.325 34.7151C63.9015 35.0714 63.2965 34.4237 63.72 34.0675Z" fill="#FECA55"/>
<path d="M57.9432 10.8161H73.7939V22.118H57.9432V10.8161Z" fill="#FECA55"/>
<path d="M65.7768 29.7281C65.8675 29.7281 65.928 29.6957 66.0188 29.6634L73.1879 24.6115C73.3391 24.5144 73.3996 24.2877 73.3694 24.1258C73.3391 23.9639 73.1576 23.8019 72.9762 23.8019H69.1647V17.0338C69.1647 16.7747 68.9832 16.5804 68.7412 16.5804H63.0543C62.8123 16.5804 62.6308 16.7747 62.6308 17.0338V23.8019H59.0916C58.9101 23.8019 58.7589 23.9315 58.6984 24.1258C58.6379 24.3201 58.6984 24.5144 58.8497 24.6115L65.5953 29.6634C65.6255 29.6957 65.686 29.7281 65.7768 29.7281ZM71.5544 24.6763L65.7768 28.7566L60.3621 24.6763H62.9938C63.2358 24.6763 63.4173 24.482 63.4173 24.2229V17.4548H68.2875V24.2229C68.2875 24.482 68.469 24.6763 68.711 24.6763H71.5544Z" fill="#1D4FB5"/>
<path d="M67.624 9.26169H73.7646V11.6581H67.624C67.1098 11.6581 67.1098 9.26169 67.624 9.26169Z" fill="#FECA55"/>
<path d="M116.053 19.7539C115.993 19.592 116.174 19.4301 116.326 19.4948C116.447 19.4948 116.537 19.6244 116.537 19.7539C116.931 20.4016 117.324 21.0816 117.717 21.7293C118.473 18.5557 121.317 16.3212 124.432 16.8394C127.397 17.3251 129.393 20.013 129.514 23.0246C130.543 21.2112 132.812 20.4987 134.778 20.3044C137.651 20.013 140.676 20.434 143.036 22.2798C145.123 23.9314 146.515 26.684 146.031 29.5013C145.637 31.9625 143.762 33.9055 141.463 34.1646C142.128 36.5286 140.313 38.5364 138.377 39.4107C135.958 40.5118 133.144 40.9975 130.513 40.7384C125.884 40.3175 119.683 40.1879 119.653 34.877C117.082 35.5247 115.902 30.57 114.783 27.9793C113.633 25.2267 114.359 22.0207 116.053 19.7539Z" fill="#642421"/>
<path d="M90.6723 220.499C100.685 218.718 104.859 214.249 93.183 197.28C92.2453 195.92 91.2168 194.431 90.1278 192.844C92.6385 192.034 95.1492 191.128 97.5994 190.091C100.594 188.828 103.468 187.436 106.281 185.752C108.217 184.586 110.153 183.388 112.21 182.449C118.351 198.317 121.829 211.821 123.221 217.812L100.685 234.489H84.8342C84.8342 234.521 80.6597 222.313 90.6723 220.499Z" fill="#FFA79B"/>
<path d="M91.0961 194.269C78.6938 176.264 55.6135 142.779 55.6135 142.779H92.3363C101.169 156.348 111.272 169.949 116.173 182.902C109.125 186.691 98.4769 191.192 91.0961 194.269Z" fill="#2252B2"/>
<path d="M90.9457 142.811C92.0952 149.741 91.0062 157.287 89.1005 163.861C87.4973 169.431 84.9563 175.389 81.0542 179.696C69.1661 162.436 55.6446 142.844 55.6446 142.844H90.9457V142.811Z" fill="black"/>
<path d="M90.6723 220.499C96.1475 219.528 99.8681 217.747 100.201 213.537C107.642 214.152 115.356 209.457 119.046 202.397C121.103 209.198 122.464 214.606 123.221 217.844L100.685 234.521H84.8342C84.8342 234.521 80.6597 222.313 90.6723 220.499Z" fill="#2252B2"/>
<path d="M68.9843 222.313C78.8456 222.313 70.406 210.234 60.4237 190.415C63.1764 190.383 65.9291 190.318 68.7121 190.221C75.1552 190.026 81.8101 190.512 88.3137 189.962C91.2479 201.976 94.1519 217.034 95.9971 234.521H56.7938C56.7333 234.521 52.2866 222.313 68.9843 222.313Z" fill="#FFA79B"/>
<path d="M105.707 108.517L103.771 93.2321C125.581 90.9005 160.216 103.206 160.216 103.206C166.054 164.832 167.506 161.27 78.2402 157.708C78.2402 157.708 83.7759 170.532 88.9788 192.844C80.4182 194.366 65.1725 195.078 56.5514 195.661C55.2809 193.232 43.7256 158.194 40.0654 146.082C38.1899 139.832 36.0725 128.822 41.7291 125.745C58.2151 116.807 105.707 108.517 105.707 108.517Z" fill="#2252B2"/>
<path d="M137.016 110.266C129.998 106.088 123.555 100.551 119.078 93.4588C138.831 95.5961 160.217 103.174 160.217 103.174C160.822 109.456 161.367 115.059 161.76 120.046C157.979 119.916 141.402 112.889 137.016 110.266Z" fill="black"/>
<path d="M68.9843 222.313C71.979 222.313 73.2797 221.179 73.3705 219.075C80.5093 220.985 88.0112 221.082 93.5468 216.29C94.4543 222.021 95.2711 228.11 95.9668 234.489H56.7635C56.7332 234.521 52.2866 222.313 68.9843 222.313Z" fill="#2252B2"/>
<path d="M108.701 108.42C112.876 108.485 117.05 108.517 121.225 108.582C121.497 108.582 121.497 109.035 121.225 109.035C117.05 108.971 112.876 108.938 108.701 108.873C108.429 108.841 108.429 108.42 108.701 108.42Z" fill="black"/>
<path d="M75.5479 154.955C76.6368 155.927 77.7561 156.931 78.845 157.902C79.0568 158.096 78.7543 158.388 78.5425 158.226C77.4536 157.254 76.3343 156.25 75.2454 155.279C75.0336 155.085 75.3361 154.761 75.5479 154.955Z" fill="black"/>
<path d="M83.9582 158.129C88.5864 158.161 93.2145 158.161 97.8427 158.193C98.1149 158.193 98.1149 158.647 97.8427 158.647C93.2145 158.614 88.5864 158.614 83.9582 158.582C83.6859 158.582 83.6859 158.129 83.9582 158.129Z" fill="black"/>
<path d="M83.322 170.564C84.6227 175.875 85.9234 181.186 87.2242 186.529C87.2847 186.821 86.8914 186.918 86.8309 186.659C85.5302 181.348 84.2295 176.037 82.9287 170.694C82.838 170.402 83.2615 170.273 83.322 170.564Z" fill="black"/>
<path d="M100.959 76.3927C90.9464 59.4237 82.5975 49.5791 82.5975 49.5791L69.2575 54.048C69.2575 54.048 76.7594 98.7049 80.1171 100.486C83.4445 102.267 108.279 101.166 108.279 101.166L100.959 76.3927Z" fill="#FFA79B"/>
<path d="M87.5584 55.9911C90.9161 60.5896 95.7258 67.4872 100.959 76.3927L108.249 101.166C108.249 101.166 83.4142 102.267 80.0868 100.486C77.7576 99.2231 73.3412 76.8461 70.9212 63.6012C77.3038 63.7631 83.5957 61.3668 87.5584 55.9911Z" fill="#D24A43"/>
<path d="M71.7678 35.1685C70.9209 33.4198 70.9511 31.833 70.0134 30.1166C69.0756 28.3679 71.5863 26.8135 72.5241 28.5298C74.2483 31.7034 75.8213 34.9418 77.243 38.2449C77.6362 37.9211 78.3017 37.3705 80.2377 39.0221C84.6239 42.7462 84.7449 42.9729 83.5046 51.004C78.8462 50.6802 73.5223 52.1698 69.5294 55.3434C68.8639 53.5947 68.3194 51.7165 67.5632 50.0649C66.8674 48.5753 65.9902 47.1504 65.4457 44.9807C64.5382 44.4625 64.508 41.7423 64.4172 40.8032C63.8122 35.719 68.7732 35.5895 71.7678 35.1685Z" fill="#FFA79B"/>
<path d="M76.8206 39.1193C76.7904 38.8278 77.2138 38.8278 77.2441 39.1193C77.3651 40.9327 78.1818 42.4871 79.5431 43.5558C79.6338 43.6206 79.6943 43.7501 79.6035 43.8473C78.6658 45.5312 78.3936 47.4418 78.8473 49.3848C78.9078 49.6763 78.5146 49.7734 78.4541 49.5144C77.9701 47.539 78.2423 45.5636 79.1498 43.8149C77.7886 42.6491 76.9719 40.9975 76.8206 39.1193Z" fill="#952C28"/>
<path d="M70.7102 43.0701C71.6479 43.7825 72.5554 43.0053 72.5856 41.9043C72.6159 41.3538 72.4949 40.8032 72.4041 40.2851C72.2529 39.1841 72.1016 38.083 71.9201 36.982C71.8899 36.6905 72.2831 36.5934 72.3134 36.8524C72.4949 38.0182 72.6461 39.2164 72.8276 40.3822C72.9486 41.1594 73.1301 42.0338 72.8276 42.7786C72.4344 43.8473 71.2849 44.1063 70.4682 43.4587C70.2867 43.2644 70.4984 42.8758 70.7102 43.0701Z" fill="#952C28"/>
<path d="M68.2288 44.2034C70.2253 44.4625 69.1665 39.2812 69.0758 38.1153C69.0455 37.8239 69.469 37.8239 69.4993 38.1153C69.6505 39.6698 70.0438 41.4509 69.8623 43.0053C69.7715 43.9444 69.1968 44.7864 68.2288 44.6568C67.9868 44.6244 67.9565 44.1711 68.2288 44.2034Z" fill="#952C28"/>
<path d="M66.3836 44.5921C67.3818 44.5273 66.6861 39.5726 66.6256 38.8278C66.5953 38.5364 67.0188 38.5364 67.0491 38.8278C67.1398 40.447 67.3213 42.0662 67.3516 43.653C67.3516 44.3978 67.1398 45.0131 66.3836 45.0454C66.1114 45.0454 66.1114 44.5921 66.3836 44.5921Z" fill="#952C28"/>
<path d="M94.6671 66.3538C96.3308 69.8512 97.9945 73.3487 99.628 76.8785C99.749 77.1375 99.386 77.3642 99.265 77.1052C97.6013 73.6077 95.9376 70.1103 94.3041 66.5805C94.1831 66.3214 94.5461 66.0947 94.6671 66.3538Z" fill="white"/>
<path d="M87.1945 87.1116L105.979 86.8526L115.145 86.723L150.174 86.2373L141.039 47.2151L132.538 43.7825L122.677 39.7993C117.202 40.4793 112.967 41.1594 109.64 41.9366C95.6341 45.0778 97.8423 49.3524 95.1501 59.4561C92.1856 70.5313 88.2532 83.7437 87.4062 86.5935C87.255 86.9173 87.1945 87.1116 87.1945 87.1116Z" fill="#D24A43"/>
<path d="M103.165 81.7683C103.195 81.9303 103.225 82.0598 103.256 82.2217C103.377 82.1893 103.498 82.1569 103.619 82.1246C103.588 81.995 103.558 81.8331 103.498 81.6712C102.893 78.8862 103.498 75.4859 103.74 72.8952C104.163 68.1673 104.617 63.4393 105.04 58.7113C105.071 58.4198 104.647 58.4198 104.617 58.7113L103.165 74.644C102.983 76.8784 102.681 79.5015 103.165 81.7683Z" fill="white"/>
<path d="M64.8713 96.9562C66.8375 93.815 66.2023 90.7062 72.2522 90.771C75.9426 89.2813 81.327 87.0145 85.8039 86.9497C86.3181 86.8202 86.8324 86.6906 87.3466 86.5611C89.1919 86.1077 91.0371 85.7515 92.9125 85.4925C95.0602 90.6091 95.5442 96.4381 95.0905 102.105C86.3786 99.6441 77.0013 100.777 67.866 101.296C67.2307 101.166 66.7165 100.583 66.6258 99.9355C66.1115 99.9355 65.6578 99.6117 65.3855 99.1907C63.2076 99.0288 64.8713 96.9562 64.8713 96.9562ZM64.8713 96.9562C65.2948 93.6207 66.2023 90.7062 72.2522 90.771C75.9426 89.2813 81.327 87.0145 85.8039 86.9497" fill="#FFA79B"/>
<path d="M91.6719 85.6868C93.1541 85.4277 94.6363 85.2334 96.1488 85.0715C106.827 82.7075 124.795 79.0805 137.258 78.1738L126.852 50.8421L122.647 39.7669C126.822 39.4755 130.482 39.2812 133.749 39.2164C160.489 38.6659 159.461 45.9845 164.361 69.2359C172.922 109.91 170.23 110.136 130.996 105.667C101.926 102.364 99.6577 101.328 94.2733 100.097C94.1221 94.3979 93.6381 90.8358 91.6719 85.6868Z" fill="#D24A43"/>
<path d="M65.7178 98.6078C67.7747 95.8875 70.6182 94.0093 73.8549 93.2645C74.1271 93.1997 74.2179 93.6207 73.9759 93.6855C70.8299 94.3979 68.0772 96.2438 66.0203 98.8992C65.869 99.1259 65.5665 98.8021 65.7178 98.6078Z" fill="#952C28"/>
<path d="M69.9836 98.122C71.1936 96.6 72.8271 95.5961 74.7025 95.2723C74.9748 95.2399 75.0655 95.6609 74.8235 95.6933C73.0388 95.9847 71.4658 96.9238 70.2861 98.4135C70.1046 98.6402 69.8323 98.3163 69.9836 98.122Z" fill="#952C28"/>
<path d="M66.3223 95.1427C67.0785 94.1388 68.0162 93.3293 69.0749 92.7463C69.3169 92.6168 69.5287 93.0054 69.2867 93.135C68.228 93.6855 67.3507 94.495 66.5945 95.4666C66.4432 95.6932 66.171 95.3694 66.3223 95.1427Z" fill="#952C28"/>
<path d="M138.589 78.4328C138.74 78.4328 138.861 78.4328 139.012 78.4328C139.012 78.2709 139.042 78.1414 139.042 77.9795C139.405 72.8952 139.768 67.8434 140.131 62.7592C140.162 62.4678 139.738 62.4678 139.708 62.7592C139.345 67.811 138.982 72.8953 138.619 77.9471C138.589 78.109 138.589 78.2709 138.589 78.4328Z" fill="white"/>
<path d="M95.422 84.4886C98.0235 83.6466 100.655 82.8694 103.287 82.1893C103.408 82.1569 103.529 82.1246 103.65 82.0922C115.084 79.2101 126.851 77.9471 138.588 78.4005C138.739 78.4005 138.86 78.4005 139.011 78.4005C139.768 78.4329 140.494 78.4652 141.25 78.4976C141.522 78.53 141.522 78.0766 141.25 78.0442C140.524 78.0119 139.768 77.9795 139.042 77.9471C138.89 77.9471 138.769 77.9471 138.618 77.9147C126.821 77.4614 115.024 78.7243 103.559 81.6064C103.438 81.6388 103.317 81.6712 103.196 81.7036C100.564 82.3836 97.9327 83.1608 95.3313 84.0028C95.059 84.1647 95.1498 84.5857 95.422 84.4886Z" fill="white"/>
<path d="M114.661 31.7682C115.055 32.1244 119.199 50.5506 119.199 50.5506L132.115 40.2203L123.978 27.2345L114.661 31.7682Z" fill="#FFA79B"/>
<path d="M116.236 37.7267C115.449 34.4884 114.814 31.8977 114.663 31.7681L119.049 29.6308C118.867 32.6101 117.869 35.3951 116.236 37.7267Z" fill="black"/>
<path d="M131.873 14.0544C131.207 9.74741 124.462 6.28237 119.591 6.44429C117.474 6.50906 116.718 4.79272 115.931 6.47667C113.995 10.6541 107.643 24.6438 108.581 27.785C110.426 34.0674 117.565 34.4237 121.981 31.2177C126.428 28.0117 132.841 20.2073 131.873 14.0544Z" fill="#FFA79B"/>
<path d="M117.173 3.0116C119.412 2.8173 122.164 5.21368 123.193 6.89762C127.276 7.9339 131.36 10.7513 131.874 14.0544C132.51 18.1671 129.848 23.0246 126.702 26.7487C125.461 25.4534 125.552 23.8342 124.856 21.8588C120.984 18.0699 120.258 12.7914 120.803 10.6217C119.291 10.9456 115.751 8.58156 115.328 6.63855C114.935 3.82118 116.508 3.07637 117.173 3.0116Z" fill="#642421"/>
<path d="M130.361 26.2306C130.573 23.7695 127.941 21.0492 124.825 21.8912C123.706 24.32 122.526 26.684 121.286 29.048C122.224 30.2462 124.704 31.5415 126.701 31.0558C128.97 30.4729 130.149 28.8861 130.361 26.2306Z" fill="#FFA79B"/>
<path d="M126.277 25.3239C125.521 25.6801 124.765 26.0039 124.009 26.3601C123.767 26.4897 123.948 26.8459 124.19 26.7487C124.251 26.7164 124.281 26.7164 124.342 26.684C124.372 26.684 124.372 26.6516 124.402 26.6516C125.098 26.3278 125.763 26.0363 126.459 25.7125C126.701 25.6153 126.519 25.2267 126.277 25.3239Z" fill="#952C28"/>
<path d="M119.35 17.5518C119.29 17.9728 119.229 18.3614 119.169 18.7823C119.108 19.2033 118.503 19.009 118.564 18.588C118.624 18.1671 118.685 17.7785 118.745 17.3575C118.836 16.9365 119.411 17.1308 119.35 17.5518Z" fill="black"/>
<path d="M114.057 14.2163C113.997 14.6373 113.936 15.0259 113.876 15.4469C113.815 15.8679 113.21 15.6736 113.271 15.2526C113.331 14.8316 113.392 14.443 113.452 14.022C113.513 13.601 114.118 13.7953 114.057 14.2163Z" fill="black"/>
<path d="M113.15 18.329C113.422 18.3614 113.392 18.7824 113.12 18.7824C112.545 18.75 112.484 19.4948 112.726 19.8834C112.968 20.3044 113.422 20.4987 113.846 20.693C114.088 20.8225 113.967 21.2435 113.725 21.114C113.059 20.7901 112.242 20.3692 112.182 19.4948C112.091 18.8471 112.545 18.2966 113.15 18.329Z" fill="#952C28"/>
<path d="M119.169 15.3497C119.563 15.5764 119.926 15.8355 120.319 16.0622C120.773 16.3536 120.319 17.0985 119.865 16.807C119.472 16.5803 119.109 16.3212 118.716 16.0946C118.262 15.8031 118.716 15.0907 119.169 15.3497Z" fill="#642421"/>
<path d="M114.572 11.8199C114.814 11.9171 115.086 12.0142 115.328 12.1114C115.842 12.3057 115.57 13.1477 115.056 12.9534C114.814 12.8562 114.542 12.7591 114.3 12.6619C113.816 12.4352 114.088 11.5932 114.572 11.8199Z" fill="#642421"/>
<path d="M112.666 25.7449C113.12 26.0039 113.664 25.9392 114.057 25.5829C114.269 25.3886 114.541 25.7449 114.33 25.9068C113.785 26.3925 113.059 26.4573 112.424 26.1011C112.182 26.0039 112.424 25.6153 112.666 25.7449Z" fill="#952C28"/>
<path d="M109.61 41.9042C112 51.9755 118.715 53.3356 122.647 52.5908C123.948 52.3317 125.4 51.7812 126.852 50.8421C129.03 49.4172 131.148 47.1503 132.509 43.7501C133.053 42.4223 133.477 40.9003 133.749 39.2164C130.482 39.2811 126.822 39.4754 122.647 39.7669C117.203 40.4793 112.937 41.1594 109.61 41.9042Z" fill="#FFA79B"/>
<path d="M161.215 158.906C167.265 127.332 173.315 95.7583 179.395 64.1843C179.758 62.209 182.601 63.0509 182.208 65.0263C176.158 96.6003 170.108 128.174 164.028 159.748C163.665 161.691 160.852 160.849 161.215 158.906Z" fill="#697CCC"/>
<path d="M100.685 157.902H162.424C164.3 157.902 164.3 161.043 162.424 161.043H100.685C98.8099 161.043 98.8099 157.902 100.685 157.902Z" fill="#697CCC"/>
<path d="M160.064 160.072C163.815 185.104 167.536 208 171.287 233.032C171.589 235.008 168.776 235.849 168.474 233.874C164.723 208.842 161.002 185.946 157.251 160.914C156.949 158.939 159.762 158.097 160.064 160.072Z" fill="#697CCC"/>
<path d="M103.105 160.072C99.3546 185.104 95.6339 208 91.883 233.032C91.5805 235.008 94.3937 235.849 94.6962 233.874C98.4471 208.842 102.168 185.946 105.919 160.914C106.221 158.939 103.408 158.097 103.105 160.072Z" fill="#697CCC"/>
<path d="M18.6491 49.6115H86.7708C87.0128 49.6115 87.1943 49.4172 87.1943 49.1582V5.08417C87.1943 4.8251 87.0128 4.6308 86.7708 4.6308H18.6188C18.3768 4.6308 18.1953 4.8251 18.1953 5.08417V49.1582C18.2256 49.4172 18.4071 49.6115 18.6491 49.6115ZM86.3776 48.7048H19.0726V5.53753H86.3776V48.7048Z" fill="white"/>
<path d="M59.1235 48.6724C59.6377 55.1491 60.1519 61.6258 60.6662 68.1349C60.6964 68.7178 59.8797 68.7178 59.8192 68.1349C59.305 61.6582 58.7907 55.1815 58.2765 48.6724H59.1235Z" fill="white"/>
</svg>
